<svg xmlns="http://www.w3.org/2000/svg" width="576.1" height="574.8" viewBox="0 0 576.1 574.8"><defs><style>.a{fill:#fff;}.b{fill:#bbc4ca;}.c{fill:#0064b1;}</style></defs><g transform="translate(-36 -36.7)"><path class="a" d="M56,422.1c-4.6-6.9-20-32.9-20-74.9h0a196,196,0,0,1,7.9-53.8h0c0-.1.1-.3.1-.4h0l2.5-9.7.5.7c.4-1.1.8-2.3,1.2-3.5h0c2-6,4.1-12.3,4.5-13.7h0c.3-1.3,2.1-8.5,3.6-13.5h0a34.9,34.9,0,0,1,1.2-3.8h0l.1-.7q.75-5.55,1.8-10.8h0c.2-1.9.6-3.7.8-5.2h0l.1-.7.3-.6a6.894,6.894,0,0,0,.4-1h0c7.2-29.3,20.6-46.6,28.1-54.5h0l.1-.1.1-.1a71.414,71.414,0,0,1,10.4-8.2h0c2.2-2.9,9.3-12.1,15.9-19.4h0a79.41,79.41,0,0,1,6.4-6.5h0a63.278,63.278,0,0,1,8.6-13.9h0a74.838,74.838,0,0,1,33.2-23.5h0A301.258,301.258,0,0,1,202.9,82h0a160.309,160.309,0,0,1,27.8-22.3h0c17.8-11.4,43.2-23,73.2-23h0c1.1,0,2.3,0,3.4.1h0l10.9.3L304.7,55.3c7.2-.5,14.5-.8,21.8-.8h0A290.251,290.251,0,0,1,436,75.8h0l.2.1.1.1c1.3.6,3.6,1.8,6.1,3.3h0a27.745,27.745,0,0,1,5.9,4.6h0a47.813,47.813,0,0,1,12.8,3.5h0l.2.1.1.1a284.016,284.016,0,0,1,93.1,77.8h0l.2.3.2.3c.4.6,1.4,2.6,2.2,6.8h0c.4.3,1,.6,1.7,1.1h0a28.814,28.814,0,0,1,4.3,3.4h0l.3.3.3.4a272.637,272.637,0,0,1,48.4,155.1h0a272.036,272.036,0,0,1-43.7,148.1h0l-.1.2-.1.1a3.644,3.644,0,0,1-1,1.1h0c-.4.3-.8.7-1.4,1.2h0a31.125,31.125,0,0,1-3.3,2.2h0c-.1.5-.3,1.2-.5,2h0a21.357,21.357,0,0,1-2.4,6h0l-.1.1-.1.2c-51.7,71-136.8,117.2-232.8,117.2h0C200.9,611.3,94.2,532.2,56,422.1Z"/><path d="M559,181a33.358,33.358,0,0,0-5.5-4,2.714,2.714,0,0,1-1.7-1.8c-.8-4.8-1.8-6.5-1.8-6.5a278.212,278.212,0,0,0-91.2-76.2,37.331,37.331,0,0,0-12.1-3.2,2.283,2.283,0,0,1-1.9-1c-2.1-3-8.5-6.2-10.8-7.3A285.364,285.364,0,0,0,326.6,60.2a295.934,295.934,0,0,0-34.1,2l14.7-19.7c-58.7-1.8-100.8,44.1-100.8,44.1v.1a278.4,278.4,0,0,0-40.2,22.9v-.1c-30.6,11-39.4,35.7-39.4,35.7-7.8,6.5-23.1,26.9-23.1,26.9a63.472,63.472,0,0,0-10.4,8c-7,7.3-19.9,23.9-26.8,52.3-.2.5-.4.9-.6,1.4-.3,1.6-.6,3.4-.8,5.2-.7,3.4-1.3,6.9-1.7,10.5l.3-.4a11.313,11.313,0,0,1-.2,1.2c-.7.5-5.1,18-5.1,18-.7,2.2-8.7,26.3-8.7,26.3l-.1-.1v.2c-21,73.5,6.9,118,11.7,124.9,37.2,108.1,141.9,186,265.4,186,94.2,0,177.5-45.3,228.2-114.9h0c1.4-2.3,2.2-6.9,2.2-6.9a2.93,2.93,0,0,1,1.2-2.2c3.9-2.1,5.3-3.5,5.4-3.8a266.421,266.421,0,0,0,42.8-145A269.14,269.14,0,0,0,559,181Z"/><path class="a" d="M209.1,128.2c.7-.8,1.4-1.4,2-2.1.9-1,1.3-1.2,1.4-1.1l.2-.2a107.567,107.567,0,0,1,3.4-25.2c25.4-35.5,67.4-45,67.4-45,5.2-1.5,1.9.8,1.9.8C259,85,261.7,109.5,261.7,109.5l25.2,92s-20.4-7.2-36.2-39.5c-7.3,64.5,53.6,116.8,53.6,116.8,2.6,2.3-1.5-.2-1.5-.2C287.6,271,270,255,265.2,250.5c1.3,5,30.9,153.8,31,154.3a16.9,16.9,0,0,0,.9,3.1l10.3-25.5,8.5,75.2c-38.6,35.9-79.6,21.7-82.2,20.7,1,1.6,1.8,2.8,1.8,2.8s33.4,65.5,169.2,58.6c0,0,3.3,0,2.8.4.1.1-.1.3-.7.5a53.34,53.34,0,0,1-6.6,1.6c-164,43.8-249-96-252.7-102.2-1-1.4-9-12.6-13.4-23.9-.1-.3-.3-1.4.4-.6,0,0,17.4,18.1,66.7,22.6a1.452,1.452,0,0,0,.6-.1c-38.1-42.5-54.3-73.2-56.7-77.9h0s-4.6-6.9-10-26.4c0,0,.1-1,.6,0,1.9,3.9,14.5,22.5,29.8,26.6h0c-13-21-21.1-54.2-22.1-59.1,17.7,24.8,49.1,26.6,49.1,26.6,0-.1-.1-.1-.2-.2a.31.31,0,0,1,.1.2c-51.7-51.5-40.5-107.6-19.6-148.2C185,155.6,200.8,137.1,209.1,128.2Z"/><path class="b" d="M363.6,469.4l-33.9,35.7a.1.1,0,0,0,.1-.1h0l41.8-32.1L350,398.2l9.5-89.8L343,394.2l20.6,75.2Z"/><path class="b" d="M371.2,249.6c-3,15.3-7.8,31-16.2,38.1h0c.6-.3,1.4-.7,2.2-1.2h0a45.962,45.962,0,0,0,9.2-7.3h0c6.7-7,13.4-18.3,13.4-36.2h0a96.179,96.179,0,0,0-4.6-28.1h0a274.464,274.464,0,0,1-4,34.7Z"/><path class="b" d="M370.6,136.4l.6-.2-.6.2Zm.2-1.4c11.8-17.8,31.2-19.4,39.4-19.5h0a68.585,68.585,0,0,0-19.6-2.8h0a64.871,64.871,0,0,0-25.6,5.1h0a11.816,11.816,0,0,1-1.3.6h0c3.1,4.3,6.1,13.3,7.1,16.6Z"/><path class="b" d="M326.4,273.6Zm29.5-101.1a.56.56,0,0,1,.5.6h0v5h0c0,38.4-10.2,80.5-14.1,95.1h0A222.7,222.7,0,0,0,361,184h0a214.2,214.2,0,0,0-2.7-33.9h0c-.7-4.2-1.4-7.5-1.9-9.6h0c-3.7,28.9-14.7,42-14.8,42.1h0c-.1.2-.3.2-.5.2h0a.55.55,0,0,1-.5-.3h0c-18.1-33.4-44.8-53.8-57-61.9h0c-2.1-1.4-3.8-2.4-4.9-3.1h0C313.1,192.3,323.2,250,325.8,269h0c.1-2.2.1-4.4.1-6.7h0c0-34.2-8.7-75.4-13.1-93.8h0c-1.5-6.2-2.4-9.8-2.4-9.8h0a.481.481,0,0,1,.2-.6h0a.854.854,0,0,1,.7,0h0c15.5,12,26.3,46.2,28.3,52.5h0c2.9-3.6,6.7-12.5,9.8-20.7h0c3.3-8.9,5.9-17,5.9-17h0c0-.3.3-.4.6-.4Zm-14.7,9.7.5-.3-.5.3Z"/><path class="b" d="M66.3,327.6c0,35.6,6.1,72.8,36.7,120.3h0v.1c28.9,60.9,82.2,93.7,107.1,106.3h0a146.189,146.189,0,0,0,13.4,6.1h0c39.5,18.6,76.6,25.4,109.9,25.4h0c69.7,0,122.5-30,144.6-45.1h0c7.4-5,11.3-8.3,11.3-8.3h0l.4.4-.4-.5c1.5-1.2,2.6-2.2,3.4-2.9h0a9.131,9.131,0,0,0-1.3.8h0c-1.6.9-3,1.9-3,1.9h0c-54.2,31.8-104.1,41.5-144.8,41.5h0c-63.8,0-105.1-23.8-105.2-23.8h0C103,478.9,101,355.9,101,355.9h0a.675.675,0,0,1,.4-.6h0c.3-.1.5.1.7.3h0c17.5,33.8,38.6,45.4,48.1,49h0c1.4.5,2.5.9,3.3,1.1h0c-39.3-49.6-50.6-91.3-50.6-122.8h0c0-41.7,19.7-65.3,19.8-65.3h0a.663.663,0,0,1,.7-.2h0a.446.446,0,0,1,.3.6h0a207.65,207.65,0,0,0-3.9,38.9h0c0,27.5,6.4,44.5,9.6,51.3h0l.3.6h0a241.616,241.616,0,0,1-1.7-28.9h0c0-92.8,54.4-149.9,65.8-160.9h0c-8.6,3.6-19,12.8-27.5,21.5h0c-9.4,9.6-16.5,18.6-16.5,18.6h0a.618.618,0,0,1-.7.2h0a.675.675,0,0,1-.4-.6h0c.1-7.4,4.3-16.6,6.6-21.1h0c-7,6.4-12.8,16.3-16.9,25h0a144.118,144.118,0,0,0-7.1,17.7h0l-.1.2a185.7,185.7,0,0,0-35.9,62h0c-1.3,3.8-1.8,6-1.8,6h0a27.729,27.729,0,0,1-1,3.4h0a.811.811,0,0,1-.7.5h0c-.5,0-.6-.3-.6-.4h0c-.1-.1-.1-.2-.1-.4h0v-.8h0c0-1.1.1-2.7.1-2.7h0c.4-17.5,7.7-37.2,10.6-44.5h0C81.1,225.8,76,255.9,76,279.9h0a174.888,174.888,0,0,0,2.3,28.5h0c1.1,7.2,2.2,11.4,2.2,11.5h0v.1c.1,14.1,2.8,31.6,5.6,45.6h0c2.8,13.9,5.5,24.3,5.5,24.3h0a20.979,20.979,0,0,1,1.3,4.6h0a.756.756,0,0,1-.1.4h0c0,.2-.3.4-.6.4h0a.932.932,0,0,1-.7-.4h0a2.181,2.181,0,0,1-.4-.5h0a6.376,6.376,0,0,1-.8-1.4h0c-.5-1-1-1.9-1-1.9h0c-14.4-22.1-21.4-58.5-23-67.7h0v4.2Z"/><path class="c" d="M383.7,153.9l-.3-.3.1-.4c6.6-17.7,37.7-33.4,43.7-36.3h0a80.918,80.918,0,0,0-39.9-10.6h0a81.182,81.182,0,0,0-21.2,2.8h0a50.872,50.872,0,0,0-8.1,2.8h0l-.4.2-.3-.4a164.112,164.112,0,0,0-17.9-18.3h0c-5.4-4.8-9.5-8-9.9-8.2h0c-.8-.5-1.3-.8-1.3-1.6h0a.953.953,0,0,1,.5-.8h0a6.893,6.893,0,0,1,.8-.3h0a12.1,12.1,0,0,1,1.9-.1h0a4.57,4.57,0,0,1,1.5.1h0c124,0,189.9,88.6,189.9,88.6h0a4.413,4.413,0,0,1,1.3,2.9h0c-.1,2.7-3.1,3.9-5.9,4.8h0a48.651,48.651,0,0,1-5.5,1.2h0a237.084,237.084,0,0,1-33.3,2.4h0c-64.5-.1-95.6-28.5-95.7-28.5Z"/><path class="c" d="M341.4,512c-.2-.1-.4-.2-.4-.5h0a.735.735,0,0,1,.2-.6h0l41.6-33.5-21.1-78.2V399l5.8-52.4c0-.2.1-.3.3-.4h0a.749.749,0,0,1,.5-.1h0c9.5,2.9,13.9,15.8,16.2,27.8h0a140.5,140.5,0,0,1,2.2,20.9h0c11-23.9,14.6-43.1,14.6-58h0c0-21.1-7.2-33.5-10.8-38.4h0a24.49,24.49,0,0,0-2-2.4h0a.608.608,0,0,1,0-.8h0a.608.608,0,0,1,.8,0h0c49.5,46.9,59.5,112.6,59.5,157.9h0c0,30.6-4.5,51.9-4.5,51.9h0v.1c-1.6,4.8-6.6,6.1-6.7,6.1h0a240.811,240.811,0,0,1-52.5,5.9h0c-27.4,0-43.6-5.1-43.7-5.1Z"/><path class="c" d="M457.9,506.3a3.451,3.451,0,0,1-1.2-3.1h0a10.378,10.378,0,0,1,.3-2.3h0s1.6-6.2,3.2-16.9h0a297.264,297.264,0,0,0,3.2-43.6h0c0-47.2-11.3-113-63.9-164.2h0a5.873,5.873,0,0,1-1.4-1.2h0a1.039,1.039,0,0,1-.4-.8h0a.842.842,0,0,1,.4-.7h0a1.483,1.483,0,0,1,.7-.1h0a10.383,10.383,0,0,1,2.4.4h0s14,4.3,23.8,15.3h0c-.1-.7-.2-1.6-.3-2.6h0a89.767,89.767,0,0,0-2.5-11.3h0A82.166,82.166,0,0,0,405.8,244h0s-1.2-1.3-1.9-2.2h0a1.528,1.528,0,0,1-.4-1h0a.646.646,0,0,1,.2-.5h0a.646.646,0,0,1,.5-.2h0c.4,0,.6.2,1,.4h0c.4.3.9.6,1.7,1.2h0c3.1,1.5,135.2,65.4,139.8,194.4h0a14.885,14.885,0,0,1,.1,1.9h0c0,3.1-.5,9.4-4.7,13h0c-1.3,1.6-32.6,40.5-78.6,55.4h0a9.782,9.782,0,0,1-2.9.5h0a3.248,3.248,0,0,1-2.7-.6Z"/><path class="c" d="M557.2,415.5a12.243,12.243,0,0,1-.6-3.9h0c-3-124.1-139.1-202.3-173.1-219.8h0c-4.9-2.5-7.6-3.8-7.6-3.8h0l-2.4-1.1h2.9a43.01,43.01,0,0,1,32,14.5h0a37.264,37.264,0,0,0-1.3-9.3h0c-.7-2.6-1.3-4.4-1.3-4.4h0l-.4-1.2,1.2.5c14.2,5.4,32.6,7.2,50.6,7.2h0a365.586,365.586,0,0,0,47.2-3.4h0c12.7-1.7,21.1-3.4,21.1-3.4h0a12.75,12.75,0,0,1,1.9-.1h0c7.2,0,9.5,4.1,9.9,4.8h0c17,19,38.1,62.9,41.6,115.8h0c.4,6.6.6,13.1.6,19.3h0c0,46.3-11.1,80.1-17.6,88.1h0c-1,1.1-1.8,1.9-2.8,1.9h0a2.5,2.5,0,0,1-1.9-1.7Z"/><path d="M267.5,67.6c.1-.1.2-.2.2-.3h0c-1.5.4-28.6,8.4-36.7,49.8,0,0-.1.8.4.1,2.4-4,10.9-16.8,18.7-13a4.53,4.53,0,0,1,.1-.8C250.7,99.7,253.2,85.4,267.5,67.6Z"/><path d="M246.7,441.3c-5.9-11.8-43.5-94-43.5-94-11.7,3.7-26.2-5.8-26.2-5.8h0c18.5,49.2,62.1,92.2,69.1,100l.1.1c1.2,1.3,1.2.8,1.2.8A7.172,7.172,0,0,1,246.7,441.3Z"/><path d="M209.4,173.6c-34,77.6,42.5,109.7,43.5,110.1h0l-4-17.9-2.3-10.2a43.263,43.263,0,0,1-5.4-2.1c-.6-.3-1.2-.5-1.7-.8-.7-.3-1.4-.7-2.1-1-33.4-17.8-30.2-60.3-28.1-74.1v-.3c.1-.4.1-.8.2-1.2.2-1.3.4-2.2.5-2.6a.438.438,0,0,1,.1-.3v-.1C210.1,172,209.6,173.1,209.4,173.6Z"/><path class="b" d="M259.7,392.2l-5.5-97.6L287,403.4S276.3,377.7,259.7,392.2Z"/><path class="b" d="M261.7,111.6,269,170s3.5,15.9-18.3-8c15.7,32.3,36.2,39.5,36.2,39.5l-25-91.3C261.8,110.4,261.6,110.5,261.7,111.6Z"/><path class="b" d="M226.8,218a34.28,34.28,0,0,1-2.9-13.1,29.2,29.2,0,0,1,10.5-22.2l.3-.2c0,.1-.5-9,.3-23.6-8.4,12.4-26.2,41.6-4.9,64.5-.3-.5-.7-.9-.9-1.3C228.2,220.5,227.4,219.2,226.8,218Z"/><path d="M249.1,229.9c-3.6-6.3-12.8-26.5-14.3-47v-.4l-.3.2s-10.5,8-10.5,22.2a32.507,32.507,0,0,0,2.9,13.1,41.815,41.815,0,0,0,2.4,4,14.625,14.625,0,0,1,.9,1.3c.4.5.9,1,1.3,1.5,3.6,3.9,9.6,7.9,19.6,8.4A22.4,22.4,0,0,1,249.1,229.9Z"/><path class="b" d="M295.2,461.4h0v0Z"/><path class="b" d="M278.8,415.2c3.4,0,6,3.1,8.1,7.4a77.163,77.163,0,0,1,5.1,15.8c1.6,7.1,2.7,14.2,3.3,18.6,0,2,0,3.4-.1,4.2v.1c.7-4.7,7.6-50.3-15.6-56.7,0,0-16.1-4.1-15.1,29.5a16.46,16.46,0,0,0,.2-2.1C270.1,420.1,274.5,415.3,278.8,415.2Z"/><path d="M295.2,461.3Z"/><path d="M295.3,457c-.1-1.4-1.6-11.4-3.3-18.6a79.223,79.223,0,0,0-5.1-15.8c-2.1-4.3-4.7-7.4-8.1-7.4-4.2.1-8.7,4.8-14,16.7a4.713,4.713,0,0,0-.2,2.1l8,17.6s4.6-47.1,22.6,9.5v.2h0v-.1h0v-.1A36.922,36.922,0,0,0,295.3,457Z"/></g></svg>