<?xml version="1.0" encoding="UTF-8"?>
<svg width="62px" height="62px" viewBox="0 0 62 62" version="1.1" xmlns="http://www.w3.org/2000/svg" xmlns:xlink="http://www.w3.org/1999/xlink">
    <title>BitPay - By Email</title>
    <defs>
        <circle id="path-1" cx="31" cy="31" r="31"></circle>
    </defs>
    <g id="Symbols" stroke="none" stroke-width="1" fill="none" fill-rule="evenodd">
        <g id="Components/Section/Business/What-(Services)" transform="translate(-629.000000, -218.000000)">
            <g id="Images/Large/By-email" transform="translate(629.000000, 218.000000)">
                <g id="sidebar-copy">
                    <mask id="mask-2" fill="white">
                        <use xlink:href="#path-1"></use>
                    </mask>
                    <use id="Mask" fill="#214497" xlink:href="#path-1"></use>
                    <g id="send" mask="url(#mask-2)" fill-rule="nonzero">
                        <g transform="translate(4.000000, 5.000000)" id="Shape">
                            <path d="M11.0080641,46 C10.7749322,46 15.6740482,25.8198834 15.6740482,25.8198834 C15.7934339,25.4302537 16.1065215,25.1317609 16.4984462,25.0349193 C16.8892522,24.9346595 17.3048303,25.0542853 17.5897668,25.3425235 L25.662603,33.5089035 C25.8991141,33.7481551 26.0207486,34.0785435 25.9970952,34.4169116 C25.9734418,34.7541364 25.8067608,35.0640272 25.5387196,35.2668218 L11.6995717,45.7664532 C11.4957211,45.9225244 11.2513333,46 11.0080641,46 Z" fill="#4F6EF7"></path>
                            <path d="M38.4908418,49 C38.2424705,49 37.9952427,48.9202463 37.791298,48.7664324 L0.467143138,20.7663208 C0.128763743,20.5133865 -0.0455476117,20.0986698 0.0102772884,19.6805465 C0.0649705239,19.2624115 0.341820028,18.9069384 0.733749327,18.7497178 L47.4003325,0.0829767189 C47.7979551,-0.0742555743 48.2514026,-0.00588863522 48.579527,0.269830797 C48.9087948,0.54327522 49.0614645,0.975071941 48.9771497,1.39548195 L39.6347214,48.0623346 C39.5561115,48.4553978 39.281537,48.7801058 38.9066994,48.9236647 C38.7722529,48.9749399 38.6309698,49 38.4908418,49 Z" fill="#BADEFC"></path>
                            <path d="M11.1829718,46 C11.1194966,46 11.0560214,45.9955035 10.9925461,45.985395 C10.4200993,45.8944302 10,45.4137658 10,44.8500026 L10,27.6000421 C10,27.2361715 10.1777329,26.8936448 10.4778072,26.6769048 L47.1140285,0.226965344 C47.616063,-0.135778325 48.3177648,-0.0549220106 48.7205623,0.406652432 C49.123348,0.87046937 49.0864163,1.5577768 48.637469,1.97891733 L16.143717,32.3736237 L12.3024565,45.2138618 C12.1397326,45.6889142 11.683848,46 11.1829718,46 Z" fill="#4F6EF7"></path>
                        </g>
                    </g>
                </g>
            </g>
        </g>
    </g>
</svg>
