<?xml version="1.0" encoding="UTF-8" standalone="no"?>
<!DOCTYPE svg PUBLIC "-//W3C//DTD SVG 1.1//EN" "http://www.w3.org/Graphics/SVG/1.1/DTD/svg11.dtd">
<svg width="100%" height="100%" viewBox="0 0 460 98" version="1.1" xmlns="http://www.w3.org/2000/svg" xmlns:xlink="http://www.w3.org/1999/xlink" xml:space="preserve" xmlns:serif="http://www.serif.com/" style="fill-rule:evenodd;clip-rule:evenodd;stroke-linejoin:round;stroke-miterlimit:1.41421;">
    <g id="形状_1" transform="matrix(1,0,0,1.00006,-26,-207.013)">
        <path d="M265.154,250.565C269.298,250.044 273.431,251.618 276.69,254.101C276.72,250.887 276.665,247.672 276.72,244.461C275.816,243.932 274.843,243.543 273.838,243.263C268.963,241.888 263.702,241.832 258.825,243.218C254.348,244.506 250.24,247.247 247.613,251.119C244.478,255.657 243.37,261.326 243.616,266.761C243.86,271.99 245.926,277.207 249.732,280.867C253.234,284.261 258.06,286.089 262.898,286.344C267.627,286.576 272.58,285.944 276.712,283.49C276.675,280.447 276.718,277.403 276.69,274.36C274.027,276.302 270.917,277.694 267.622,278.073C264.287,278.324 260.715,277.524 258.167,275.264C255.714,273.178 254.409,270.035 254.083,266.887C253.648,262.866 254.232,258.501 256.761,255.214C258.729,252.564 261.865,250.862 265.154,250.565ZM231.013,225.354C228.206,225.673 225.812,228.218 225.888,231.074C225.77,233.787 227.957,236.22 230.581,236.691C233.11,237.242 236.011,236.175 237.308,233.879C238.481,231.844 238.19,229.071 236.606,227.33C235.256,225.74 233.05,225.046 231.013,225.354ZM203.208,226.636C197.368,241.137 191.398,255.58 185.513,270.061C184.286,267.185 183.192,264.254 182.022,261.357C177.442,249.768 172.833,238.191 168.259,226.603L153.561,226.603C153.555,246.201 153.558,265.8 153.561,285.399C156.766,285.396 159.974,285.404 163.182,285.396C163.174,276.622 163.182,267.847 163.18,259.072C163.214,252.736 163.11,246.394 163.233,240.059C163.415,240.346 163.584,240.646 163.741,240.955C169.736,255.768 175.686,270.604 181.711,285.407C184.133,285.368 186.555,285.449 188.975,285.362C194.782,270.546 200.734,255.785 206.575,240.982C206.73,240.658 206.907,240.344 207.106,240.042C207.151,240.691 207.173,241.341 207.168,241.991C207.149,256.455 207.188,270.916 207.152,285.377C210.55,285.425 213.949,285.388 217.351,285.397C217.348,265.801 217.343,246.205 217.354,226.609C212.636,226.618 207.92,226.561 203.208,226.636ZM299.319,243.904C296.785,245.336 295.176,247.883 294.096,250.507C294.105,248.093 294.09,245.683 294.105,243.272C290.779,243.256 287.453,243.239 284.126,243.281C284.146,257.32 284.126,271.361 284.135,285.399L294.099,285.399C294.101,278.682 294.099,271.965 294.099,265.248C294.017,262.331 294.258,259.313 295.538,256.645C296.716,254.124 298.989,251.927 301.858,251.602C304.21,251.364 306.696,251.915 308.689,253.204C308.697,249.841 308.683,246.479 308.697,243.116C305.653,242.094 302.108,242.233 299.319,243.904ZM226.806,243.271C226.815,257.315 226.804,271.357 226.812,285.398L236.845,285.398C236.859,271.362 236.823,257.325 236.862,243.289C233.511,243.225 230.157,243.258 226.806,243.271ZM378.489,262.429C375.519,260.715 372.101,259.904 369.236,257.991C367.56,256.929 367.087,254.605 367.771,252.833C368.632,251.042 370.709,250.243 372.598,250.171C376.348,250.039 380.122,251.179 383.212,253.299C383.209,250.21 383.215,247.122 383.209,244.031C378.786,242.359 373.895,241.758 369.221,242.578C365.273,243.28 361.397,245.327 359.165,248.74C357.212,251.669 356.96,255.445 357.768,258.797C358.313,261.07 359.705,263.086 361.543,264.517C364.158,266.519 367.288,267.636 370.266,268.972C371.852,269.717 373.533,270.476 374.678,271.852C375.902,273.64 375.531,276.56 373.47,277.581C371.319,278.611 368.806,278.594 366.496,278.22C363.179,277.649 360.044,276.24 357.326,274.272C357.29,277.52 357.324,280.768 357.31,284.018C360.539,285.452 364.071,286.143 367.584,286.371C372.532,286.556 377.912,285.592 381.647,282.109C385.56,278.66 386.502,272.547 384.277,267.922C383.095,265.452 380.827,263.738 378.489,262.429ZM422.85,244.513C418.247,242.194 412.893,241.856 407.85,242.48C403.783,243.001 399.787,244.541 396.682,247.259C392.893,250.516 390.67,255.303 390.016,260.2C389.393,265.096 389.604,270.254 391.605,274.837C393.525,279.334 397.313,282.985 401.872,284.774C406.37,286.542 411.372,286.739 416.106,285.975C420.948,285.178 425.534,282.638 428.531,278.729C431.734,274.692 433.111,269.467 433.102,264.377C433.172,260.97 432.747,257.515 431.531,254.314C429.976,250.132 426.864,246.515 422.85,244.513ZM422.415,268.6C422.027,270.818 421.259,273.029 419.803,274.785C418.334,276.549 416.151,277.624 413.897,277.954C411.478,278.315 408.93,278.142 406.668,277.17C404.227,276.14 402.335,274.032 401.339,271.607C400.14,268.718 399.901,265.517 400.14,262.427C400.37,259.433 401.221,256.362 403.203,254.035C405.011,251.863 407.783,250.662 410.579,250.505C413.433,250.307 416.481,250.965 418.676,252.888C420.699,254.563 421.82,257.071 422.333,259.596C422.909,262.557 422.903,265.622 422.415,268.6ZM341.766,244.196C337.265,242.152 332.148,241.878 327.298,242.493C322.204,243.135 317.245,245.525 314.012,249.577C311.059,253.194 309.622,257.842 309.348,262.453C308.94,267.889 309.85,273.655 313.049,278.191C315.775,282.105 320.076,284.795 324.725,285.787C328.609,286.601 332.672,286.604 336.557,285.798C341.101,284.866 345.344,282.358 348.16,278.656C350.91,275.171 352.291,270.774 352.602,266.387C352.919,261.893 352.464,257.239 350.592,253.096C348.838,249.204 345.673,245.954 341.766,244.196ZM340.831,272.438C339.865,274.605 338.098,276.436 335.866,277.304C333.256,278.304 330.323,278.363 327.629,277.665C324.887,276.946 322.561,274.969 321.295,272.451C319.666,269.21 319.423,265.461 319.759,261.905C320.066,258.671 321.194,255.345 323.663,253.113C325.455,251.445 327.896,250.63 330.312,250.495C333.348,250.297 336.582,251.153 338.764,253.356C341.1,255.647 342.003,258.969 342.253,262.139C342.434,265.609 342.29,269.224 340.831,272.438ZM485.998,251.445L485.998,243.257C482.664,243.269 479.329,243.232 475.998,243.279C475.922,239.071 475.989,234.863 475.961,230.658C472.627,231.66 469.313,232.727 465.961,233.679C465.881,236.871 465.956,240.066 465.919,243.257C460.991,243.255 456.063,243.263 451.134,243.252C451.197,240.737 450.961,238.204 451.322,235.703C451.622,233.732 452.767,231.762 454.693,230.999C457.121,230.006 459.835,230.666 462.141,231.68C462.127,228.799 462.163,225.918 462.121,223.04C457.267,221.707 451.7,221.968 447.392,224.765C444.614,226.539 442.598,229.379 441.692,232.526C440.621,236.012 441.167,239.694 440.996,243.271C438.658,243.255 436.323,243.232 433.991,243.286C434.015,245.979 434.006,248.673 433.997,251.363C436.34,251.411 438.685,251.354 441.029,251.4C441.009,262.733 441.024,274.064 441.024,285.398L451.13,285.398C451.13,274.061 451.127,262.724 451.132,251.388C456.061,251.38 460.992,251.382 465.924,251.385C465.938,258.612 465.909,265.835 465.935,273.059C465.98,276.423 466.555,280.022 468.789,282.678C470.724,285.031 473.793,286.106 476.757,286.324C479.881,286.545 483.109,286.164 485.997,284.913L485.997,276.644C483.782,278.123 480.724,278.71 478.311,277.364C476.873,276.572 476.313,274.875 476.128,273.343C475.822,270.744 476.016,268.124 475.962,265.517C475.959,260.809 475.971,256.102 475.957,251.395C479.304,251.408 482.652,251.308 485.998,251.445Z" style="fill:rgb(137,137,137);"/>
    </g>
    <g id="形状_1_1_" transform="matrix(1,0,0,1.00006,-26,-207.013)">
        <path d="M26.002,207.003L26.002,253.62L72.728,253.62C72.731,238.081 72.728,222.542 72.731,207.003L26.002,207.003Z" style="fill:rgb(137,137,137);"/>
    </g>
    <g id="形状_1_2_" transform="matrix(1,0,0,1.00006,-26,-207.013)">
        <path d="M26.002,258.377L26.002,304.997L72.731,304.997C72.731,289.458 72.734,273.922 72.731,258.383C57.155,258.375 41.579,258.383 26.002,258.377Z" style="fill:rgb(137,137,137);"/>
    </g>
    <g id="形状_1_3_" transform="matrix(1,0,0,1.00006,-26,-207.013)">
        <path d="M77.506,258.383C77.5,273.919 77.506,289.458 77.503,304.997L124.232,304.997L124.232,258.38C108.655,258.38 93.079,258.377 77.506,258.383Z" style="fill:rgb(137,137,137);"/>
    </g>
    <g id="形状_1_4_" transform="matrix(1,0,0,1.00006,-26,-207.013)">
        <path d="M77.503,207.003C77.503,222.542 77.5,238.081 77.506,253.62C93.079,253.62 108.655,253.617 124.229,253.62C124.235,238.081 124.232,222.542 124.232,207.003L77.503,207.003Z" style="fill:rgb(137,137,137);"/>
    </g>
</svg>
