<?xml version="1.0" encoding="UTF-8" standalone="no"?>
<!DOCTYPE svg PUBLIC "-//W3C//DTD SVG 1.1//EN" "http://www.w3.org/Graphics/SVG/1.1/DTD/svg11.dtd">
<svg width="100%" height="100%" viewBox="0 0 78 40" version="1.1" xmlns="http://www.w3.org/2000/svg" xmlns:xlink="http://www.w3.org/1999/xlink" xml:space="preserve" xmlns:serif="http://www.serif.com/" style="fill-rule:evenodd;clip-rule:evenodd;stroke-linejoin:round;stroke-miterlimit:1.41421;">
    <g id="Newegg" transform="matrix(1,0,0,1,-15.9758,-0.262449)">
        <path d="M83,16L82.61,16.72C82.467,16.445 82.249,16.216 81.98,16.06C81.694,15.91 81.373,15.838 81.05,15.85C80.449,15.836 79.865,16.055 79.42,16.46C78.903,17.018 78.556,17.712 78.42,18.46L77.6,21.62C79.24,14.15 78.15,5.96 72.98,2.7C71.056,1.548 68.812,1.043 66.58,1.26C64.104,1.483 61.69,2.161 59.46,3.26C54.645,5.499 50.53,9.009 47.56,13.41C45.597,16.485 44.54,20.052 44.51,23.7L46.41,16.34L49.41,16.34L49.12,17.22C49.398,16.894 49.738,16.625 50.12,16.43C50.464,16.254 50.844,16.162 51.23,16.16C51.633,16.127 52.034,16.248 52.35,16.5C52.601,16.722 52.74,17.045 52.73,17.38C52.683,17.983 52.572,18.58 52.4,19.16L50.6,25.81L47.71,25.81L49.42,19.21C49.539,18.818 49.623,18.417 49.67,18.01C49.67,17.87 49.57,17.8 49.37,17.8C49.189,17.795 49.019,17.892 48.93,18.05C48.748,18.476 48.607,18.918 48.51,19.37L46.84,25.81L44.63,25.81C45.081,30.299 47.548,34.349 51.33,36.81C51.62,37 51.92,37.17 52.23,37.33C54.112,38.337 56.197,38.908 58.33,39C64.23,39.25 70.42,36 74.14,30.15C75.609,27.751 76.692,25.135 77.35,22.4C77.288,22.689 77.268,22.985 77.29,23.28C77.323,23.61 77.498,23.91 77.77,24.1C78.128,24.324 78.548,24.429 78.97,24.4C79.282,24.394 79.59,24.333 79.88,24.22C80.209,24.089 80.518,23.914 80.8,23.7L80.61,24.43C80.554,24.72 80.445,24.998 80.29,25.25C80.167,25.389 79.985,25.463 79.8,25.45C79.49,25.45 79.39,25.24 79.5,24.81L76.69,24.81C76.47,25.73 76.6,26.347 77.08,26.66C77.723,27.007 78.452,27.163 79.18,27.11C79.83,27.117 80.477,27.026 81.1,26.84C81.595,26.689 82.052,26.433 82.44,26.09C82.743,25.838 82.988,25.524 83.16,25.17C83.385,24.541 83.575,23.9 83.73,23.25L85.65,16L83,16ZM52.15,24C52.173,23.451 52.264,22.907 52.42,22.38L53.14,19.61C53.293,18.897 53.578,18.219 53.98,17.61C54.337,17.124 54.817,16.74 55.37,16.5C55.952,16.24 56.582,16.103 57.22,16.1C57.88,16.054 58.538,16.207 59.11,16.54C59.538,16.813 59.826,17.258 59.9,17.76C59.96,18.485 59.878,19.216 59.66,19.91L59.33,21.17L55.6,21.17L55.07,23.23C54.981,23.497 54.94,23.778 54.95,24.06C54.95,24.18 55.08,24.24 55.25,24.24C55.448,24.248 55.637,24.153 55.75,23.99C55.921,23.677 56.043,23.34 56.11,22.99L56.44,21.73L59.19,21.73L59.01,22.43C58.901,22.897 58.747,23.353 58.55,23.79C58.345,24.163 58.082,24.5 57.77,24.79C57.417,25.145 56.995,25.424 56.53,25.61C56.005,25.804 55.449,25.898 54.89,25.89C54.365,25.909 53.842,25.824 53.35,25.64C52.978,25.507 52.661,25.254 52.45,24.92C52.276,24.643 52.173,24.327 52.15,24ZM64.15,25.74C64.283,24.58 64.48,23.04 64.74,21.12C64.42,21.967 64.087,22.817 63.74,23.67L62.91,25.75L62.27,25.75L59.8,25.75L61,16.22L63.47,16.22L62.69,21.69L64,18.36L64.82,16.19L67.18,16.19L66.36,21.66C66.873,20.053 67.567,18.227 68.44,16.18L70.91,16.18L67.29,25.71L64.15,25.74ZM77.15,19.74L76.84,21L73.11,21L72.58,23.06C72.491,23.327 72.451,23.608 72.46,23.89C72.46,24.01 72.59,24.08 72.76,24.07C72.958,24.078 73.147,23.983 73.26,23.82C73.432,23.508 73.553,23.17 73.62,22.82L73.95,21.56L76.7,21.56L76.52,22.26C76.395,22.74 76.221,23.206 76,23.65C75.795,24.023 75.532,24.36 75.22,24.65C74.867,25.005 74.445,25.284 73.98,25.47C73.455,25.662 72.899,25.757 72.34,25.75C71.815,25.769 71.292,25.684 70.8,25.5C70.428,25.368 70.111,25.114 69.9,24.78C69.72,24.477 69.624,24.132 69.62,23.78C69.643,23.231 69.734,22.687 69.89,22.16L70.61,19.39C70.767,18.677 71.055,17.998 71.46,17.39C71.816,16.903 72.296,16.52 72.85,16.28C73.432,16.018 74.062,15.882 74.7,15.88C75.357,15.835 76.012,15.988 76.58,16.32C77.008,16.593 77.296,17.038 77.37,17.54C77.447,18.273 77.379,19.013 77.17,19.72L77.15,19.74ZM82.08,18.56L81.31,21.56C81.23,21.906 81.109,22.242 80.95,22.56C80.858,22.707 80.694,22.795 80.52,22.79C80.35,22.79 80.26,22.73 80.24,22.6C80.243,22.318 80.29,22.038 80.38,21.77L81.21,18.57C81.265,18.284 81.37,18.01 81.52,17.76C81.613,17.626 81.767,17.547 81.93,17.55C82.1,17.55 82.19,17.61 82.21,17.73C82.215,18.004 82.178,18.277 82.1,18.54L82.08,18.56Z" style="fill:rgb(122,122,122);fill-rule:nonzero;"/>
        <path d="M90.56,15.94L90.17,16.66C90.028,16.384 89.809,16.155 89.54,16C89.255,15.846 88.934,15.77 88.61,15.78C88.014,15.773 87.437,15.995 87,16.4C86.483,16.958 86.136,17.652 86,18.4L85.11,21.85C84.964,22.322 84.9,22.816 84.92,23.31C84.953,23.64 85.128,23.94 85.4,24.13C85.758,24.354 86.178,24.459 86.6,24.43C86.912,24.426 87.22,24.365 87.51,24.25C87.839,24.12 88.149,23.945 88.43,23.73L88.24,24.46C88.183,24.75 88.075,25.028 87.92,25.28C87.797,25.419 87.615,25.493 87.43,25.48C87.12,25.48 87.02,25.27 87.13,24.84L84.32,24.84C84.1,25.76 84.23,26.38 84.71,26.69C85.352,27.039 86.081,27.195 86.81,27.14C87.46,27.148 88.107,27.057 88.73,26.87C89.225,26.717 89.681,26.462 90.07,26.12C90.374,25.869 90.619,25.555 90.79,25.2C91.017,24.571 91.207,23.93 91.36,23.28L93.26,15.94L90.56,15.94ZM89.7,18.47L88.93,21.47C88.852,21.817 88.731,22.153 88.57,22.47C88.479,22.619 88.314,22.707 88.14,22.7C87.97,22.7 87.88,22.64 87.86,22.51C87.864,22.228 87.911,21.948 88,21.68L88.83,18.48C88.889,18.195 88.994,17.921 89.14,17.67C89.234,17.538 89.387,17.459 89.55,17.46C89.72,17.46 89.81,17.52 89.83,17.64C89.833,17.921 89.793,18.201 89.71,18.47L89.7,18.47Z" style="fill:rgb(122,122,122);fill-rule:nonzero;"/>
        <path d="M74.44,17.59C74.276,17.574 74.116,17.646 74.02,17.78C73.876,18.1 73.768,18.436 73.7,18.78L73.52,19.48L74.36,19.48L74.54,18.78C74.643,18.456 74.701,18.12 74.71,17.78C74.692,17.669 74.595,17.586 74.483,17.586C74.468,17.586 74.454,17.587 74.44,17.59Z" style="fill:rgb(122,122,122);fill-rule:nonzero;"/>
        <path d="M31.86,13.54C35.065,8.749 39.617,5.012 44.94,2.8C37.58,-1.63 24.94,5.39 19.73,13.65C14.52,21.91 16.16,32.48 23.5,37.12C27.735,39.694 32.976,40.024 37.5,38C36.859,37.714 36.241,37.379 35.65,37C28.29,32.38 26.61,21.87 31.86,13.54Z" style="fill:rgb(122,122,122);fill-rule:nonzero;"/>
        <path d="M46,13.42C49.149,8.71 53.6,5.016 58.81,2.79C56.886,1.639 54.642,1.134 52.41,1.35C45.49,1.81 37.41,7.35 33.41,13.54C28.17,21.86 29.86,32.36 37.2,37C39.303,38.322 41.718,39.067 44.2,39.16C46.677,39.25 49.142,38.778 51.41,37.78C50.844,37.52 50.296,37.223 49.77,36.89C42.43,32.25 40.74,21.75 46,13.42Z" style="fill:rgb(122,122,122);fill-rule:nonzero;"/>
        <path d="M57,18.94C57.105,18.617 57.162,18.28 57.17,17.94C57.167,17.822 57.068,17.726 56.95,17.726C56.937,17.726 56.923,17.728 56.91,17.73C56.746,17.714 56.586,17.786 56.49,17.92C56.342,18.24 56.231,18.575 56.16,18.92L55.98,19.62L56.82,19.62L57,18.94Z" style="fill:rgb(122,122,122);fill-rule:nonzero;"/>
    </g>
</svg>
