<?xml version="1.0" encoding="UTF-8" standalone="no"?>
<!DOCTYPE svg PUBLIC "-//W3C//DTD SVG 1.1//EN" "http://www.w3.org/Graphics/SVG/1.1/DTD/svg11.dtd">
<svg width="100%" height="100%" viewBox="0 0 1000 227" version="1.1" xmlns="http://www.w3.org/2000/svg" xmlns:xlink="http://www.w3.org/1999/xlink" xml:space="preserve" xmlns:serif="http://www.serif.com/" style="fill-rule:evenodd;clip-rule:evenodd;stroke-linejoin:round;stroke-miterlimit:1.41421;">
    <g id="_-11185eff" serif:id="#11185eff">
        <path d="M157.77,0L198.06,0C197.73,13.37 197.95,26.75 197.87,40.13C184.49,40.13 171.1,40.18 157.71,40.05C157.65,26.7 157.78,13.35 157.77,0Z" style="fill:rgb(122,122,122);fill-rule:nonzero;"/>
        <path d="M329.18,0L412.1,0C431.3,1.27 451.79,4.28 467.24,16.74C477.1,24.82 483.02,37.21 483.57,49.9C484.82,64.62 480.79,80.48 469.86,90.91C461.53,98.99 450.68,103.76 439.84,107.43C450.54,110.3 461.31,113.97 470.21,120.77C476.77,125.66 481.95,132.37 484.98,139.98C489.34,150.74 489.85,162.75 487.89,174.11C485.17,189.14 475.51,202.59 462.44,210.4C445.04,221.07 424.09,223.8 404.03,223.6C379.07,223.59 354.1,223.6 329.13,223.6C329.06,149.07 329.22,74.53 329.18,0M371.29,33.08C371.4,52.44 371.34,71.81 371.35,91.17C382.56,91.24 393.78,91.2 405,91.03C414.82,90.6 425.14,88.33 432.78,81.76C444.23,72.19 445.65,52.61 434.99,41.93C428.11,35.36 418.23,33.37 409.02,33.08C396.44,32.85 383.87,33.14 371.29,33.08M371.36,190.66C382.21,190.63 393.08,190.78 403.94,190.49C415.25,189.84 427.21,187.53 436.14,180.07C449.76,168.04 448.72,143.73 434.45,132.62C425.77,126.06 414.61,124.06 403.98,123.71C393.12,123.58 382.25,123.76 371.38,123.62C371.17,145.96 371.45,168.31 371.36,190.66Z" style="fill:rgb(122,122,122);fill-rule:nonzero;"/>
        <path d="M650.3,0L690.53,0C690.52,74.53 690.54,149.06 690.52,223.59C677.1,223.61 663.67,223.59 650.24,223.6C650.34,149.06 650.28,74.53 650.3,0Z" style="fill:rgb(122,122,122);fill-rule:nonzero;"/>
        <path d="M725.18,0L765.41,0C765.44,18.49 765.34,36.98 765.49,55.47C775.56,55.42 785.63,55.27 795.7,55.34C795.71,65.49 795.7,75.64 795.7,85.79C785.61,85.82 775.51,85.78 765.42,85.81C765.44,115.52 765.35,145.24 765.48,174.95C765.55,181.39 766.26,188.97 771.85,193.15C779.23,198.18 788.68,196.75 796.99,195.56C797,205.75 797,215.94 796.99,226.13C793.5,226.37 790.02,226.72 786.54,227L769.8,227C757.49,226.03 744.25,222.9 735.75,213.26C726.83,203.14 725.46,189 725.22,176.09C725.1,146 725.26,115.9 725.11,85.81C716.82,85.78 708.53,85.81 700.24,85.8C700.21,75.71 700.28,65.61 700.2,55.53C708.51,55.02 716.85,55.62 725.17,55.25C725.19,36.83 725.17,18.42 725.18,0Z" style="fill:rgb(122,122,122);fill-rule:nonzero;"/>
        <path d="M811.35,0L851.29,0C851.29,13.37 851.3,26.75 851.28,40.12C837.96,40.14 824.63,40.14 811.3,40.12C811.26,26.75 811.32,13.37 811.35,0Z" style="fill:rgb(122,122,122);fill-rule:nonzero;"/>
        <path d="M10.35,69.26C32.56,55.74 59.16,50.35 84.97,52.02C99.59,52.83 115.23,56.36 125.83,67.16C136.03,77.64 138.69,92.94 138.97,107.03C139.01,145.88 139.01,184.74 139.04,223.59C128.23,223.6 117.41,223.61 106.59,223.58C105.1,217.74 103.65,211.89 102.16,206.05C90.25,216.99 75.39,225.28 59.11,227L45.03,227C32.14,225.68 19.18,220.4 10.63,210.39C4.49,203.36 0.98,194.31 0,185.08L0,176.01C0.94,164.32 6.22,152.87 15.35,145.34C25.08,136.84 37.39,132.26 49.5,128.34C64.15,123.39 78.8,118.45 93.44,113.51C95.54,112.65 98.69,111.85 98.77,109.06C99.05,102.33 100,94.37 94.98,89.02C88.85,82.62 79.37,81.87 71.02,81.66C48.81,81.61 28.29,92.03 10.36,104.27C10.34,92.6 10.37,80.93 10.35,69.26M91.71,141.68C81.1,145.34 70.55,149.18 60.06,153.15C53.21,155.96 46.22,160.12 42.91,167.04C39.55,174.78 39.75,184.88 45.69,191.34C51.5,197.27 60.6,199.09 68.54,197.37C80.31,194.9 90.85,187.87 98.88,179.1C99.05,165.5 98.85,151.89 98.97,138.28C96.65,139.62 94.24,140.81 91.71,141.68Z" style="fill:rgb(122,122,122);fill-rule:nonzero;"/>
        <path d="M292.4,54.5C300.75,51.71 309.83,50.79 318.47,52.75C318.48,65.38 318.48,78.01 318.41,90.64C305.87,88.75 292.67,91.14 281.82,97.76C267.08,106.03 256.03,121.79 255.73,138.99C255.59,167.19 255.67,195.39 255.64,223.6C242.23,223.57 228.82,223.68 215.42,223.52C215.41,167.52 215.4,111.53 215.42,55.54C228.44,55.41 241.45,55.37 254.47,55.48C254.47,65.72 254.46,75.96 254.48,86.21C264.01,72.62 276.35,59.96 292.4,54.5Z" style="fill:rgb(122,122,122);fill-rule:nonzero;"/>
        <path d="M505.89,69.27C525.63,57.16 548.96,51.64 572.01,51.72C587.25,51.85 603.49,53.66 616.25,62.73C626.38,69.84 631.89,81.85 633.58,93.84C635.42,106.48 634.55,119.29 634.76,132.01C634.76,162.54 634.77,193.07 634.76,223.6C623.86,223.57 612.96,223.66 602.07,223.53C600.58,217.72 599.19,211.89 597.74,206.08C585.72,216.94 570.84,225.35 554.5,227L540.55,227C531.47,226.07 522.49,223.26 514.91,218.11C505.56,211.87 498.7,201.92 496.59,190.84C494.3,179.13 495.6,166.29 501.88,155.96C509.17,143.97 521.96,136.66 534.79,131.91C553.11,125.38 571.66,119.48 590.03,113.11C591.85,112.43 594.22,111.36 594.2,109.06C594.45,103.94 594.84,98.62 593.25,93.67C591.45,88.39 586.28,85.17 581.2,83.56C574.36,81.5 567.07,81.45 560,81.96C540.18,83.74 522.08,93.24 505.9,104.28C505.87,92.61 505.88,80.94 505.89,69.27M578.74,144.66C570.67,147.58 562.57,150.42 554.58,153.56C547.55,156.57 540.45,161.29 537.71,168.78C535.3,175.88 535.61,184.53 540.55,190.51C545.96,196.87 555.09,198.98 563.08,197.55C575.28,195.41 585.86,187.99 594.35,179.27C594.21,165.63 594.34,151.98 594.44,138.34C589.54,141.21 584.03,142.71 578.74,144.66Z" style="fill:rgb(122,122,122);fill-rule:nonzero;"/>
        <path d="M889.94,71.87C903.14,59.55 921.09,53.18 938.94,52.05C958.69,50.7 979.26,53.89 996.47,64.11C996.45,76.3 996.53,88.49 996.39,100.68C990.13,95.69 983.64,90.79 976.12,87.83C964.44,83.04 951.21,81.98 938.96,85.08C926.87,88.22 916.69,97.13 911.23,108.27C902.98,124.74 902.45,144.37 907.43,161.89C910.95,174.2 918.68,186.06 930.63,191.52C944.52,197.75 960.73,196.69 974.86,191.8C984.03,188.76 991.93,183.15 1000,178.03L1000,210.14C1000.97,213.36 998.31,214.22 996.38,215.35C983.35,222.02 968.96,225.78 954.4,227L937.19,227C921.67,225.8 906.14,221.04 893.91,211.15C879.13,199.65 870.15,182.06 866.25,164.01C862.75,147.55 862.84,130.3 866.55,113.88C870.22,98.09 877.9,82.92 889.94,71.87Z" style="fill:rgb(122,122,122);fill-rule:nonzero;"/>
        <path d="M157.71,55.6C171.12,55.1 184.53,55.41 197.94,55.55C197.82,111.57 197.92,167.58 197.87,223.6C184.5,223.58 171.13,223.62 157.76,223.58C157.81,167.59 157.67,111.59 157.71,55.6Z" style="fill:rgb(122,122,122);fill-rule:nonzero;"/>
        <path d="M811.23,55.57C824.6,55.14 837.98,55.41 851.35,55.56C851.33,111.56 851.41,167.57 851.3,223.58C837.96,223.59 824.63,223.66 811.3,223.52C811.31,167.54 811.28,111.55 811.23,55.57Z" style="fill:rgb(122,122,122);fill-rule:nonzero;"/>
    </g>
</svg>
