<?xml version="1.0" encoding="UTF-8"?>
<svg width="613px" height="120px" viewBox="0 0 613 120" version="1.1" xmlns="http://www.w3.org/2000/svg" xmlns:xlink="http://www.w3.org/1999/xlink">
    <!-- Generator: Sketch 52.2 (67145) - http://www.bohemiancoding.com/sketch -->
    <title>Group 22</title>
    <desc>Created with Sketch.</desc>
    <defs>
        <rect id="path-1" x="-5.68434189e-14" y="0" width="615" height="131"></rect>
        <path d="M13.9067936,59.7586515 L121.628979,59.7586515 C125.398802,59.7586515 129.005981,58.2230582 131.619065,55.5058245 L172.651231,12.8382413 C175.264315,10.1210076 178.871494,8.5854143 182.641318,8.5854143 L201.889801,8.5854143 C205.628701,8.5854143 209.209007,10.0959935 211.817926,12.7742229 L218.442216,19.5744995 C221.051135,22.2527289 224.631442,23.763308 228.370341,23.763308 L330.002822,23.763308 C333.456774,23.763308 336.786273,22.4736772 339.339046,20.1470637 L357.453855,3.63711287 C360.006629,1.31049938 363.336128,0.0208685156 366.790079,0.0208685156 L455.774757,0.0208685156 C463.429424,0.0208685156 469.634758,6.22620228 469.634758,13.8808694 L469.634758,122.749812 L0.0467927381,122.749812 L0.0467927381,73.6186524 C0.0467927381,65.9639853 6.2521265,59.7586515 13.9067936,59.7586515 Z" id="path-3"></path>
        <path d="M0,65.0693875 L59.4908735,22.0170153 C61.854848,20.3062536 64.6984676,19.3852534 67.6165287,19.3852534 L108.606622,19.3852534 C111.756647,19.3852534 114.812709,18.3122289 117.2713,16.3429684 L133.329731,3.48062851 C135.788322,1.51136798 138.844384,0.438343479 141.994409,0.438343479 L232.690364,0.438343479 C237.070459,0.438343479 241.192795,2.50879292 243.808224,6.02230488 L258.073589,25.1861005 C260.689018,28.6996124 264.811354,30.7700619 269.191449,30.7700619 L273.910451,30.7700619 C277.957374,30.7700619 281.802152,29.0013081 284.435319,25.9281966 L291.833428,17.2940264 C294.466595,14.220915 298.311374,12.4521612 302.358296,12.4521612 L313.244985,12.4521612 C319.522501,12.4521612 325.016216,16.6713663 326.635777,22.7363676 L327.676196,26.6325737 C329.295756,32.697575 334.789471,36.9167801 341.066988,36.9167801 L350.320472,36.9167801 C354.17195,36.9167801 357.849751,35.314163 360.47199,32.493214 L386.564383,4.42356605 C389.186621,1.60261704 392.864422,4.03764914e-14 396.715901,8.8817842e-15 L483.446409,1.77635684e-15 C487.142389,-1.20333444e-14 490.685283,1.47619742 493.287789,4.10055164 L508.013657,18.950044 C510.616163,21.5743982 514.159057,23.0505956 517.855037,23.0505956 L561.067023,23.0505956 C563.852136,23.0505956 566.572648,23.889668 568.873915,25.4584325 L626.980412,65.0693875 L0,65.0693875 Z" id="path-5"></path>
    </defs>
    <g id="Page-1" stroke="none" stroke-width="1" fill="none" fill-rule="evenodd">
        <g id="Boxyswap_HomePage-1100" transform="translate(-487.000000, -487.000000)">
            <g id="HEADER">
                <g id="Group-22" transform="translate(485.000000, 476.000000)">
                    <mask id="mask-2" fill="white">
                        <use xlink:href="#path-1"></use>
                    </mask>
                    <g id="Rectangle-Copy"></g>
                    <g id="Group-10" mask="url(#mask-2)">
                        <g transform="translate(2.000000, 11.000000)">
                            <g id="Group-26" transform="translate(172.928315, 0.752779)">
                                <mask id="mask-4" fill="white">
                                    <use xlink:href="#path-3"></use>
                                </mask>
                                <use id="Path-31" fill="#FFFFFF" xlink:href="#path-3"></use>
                                <path d="M456.077768,-34.5459264 C435.842151,-11.3663383 429.059388,-14.9611643 442.568578,9.14388034 C456.077768,33.248925 502.407868,56.4641798 477.94523,64.4272356 C453.482592,72.3902913 455.39799,54.1965298 439.436339,40.0180855 C423.474688,25.8396413 426.573925,39.8697872 442.568578,64.4272356 C458.563231,88.9846839 511.176303,165.048574 459.822581,111.910851 C408.468858,58.7731281 382.447612,33.3146268 400.424186,21.2292535 C418.400761,9.14388034 441.547032,-1.99163283 418.049604,-1.99163283 C394.552176,-1.99163283 366.444648,-11.8881982 369.013535,4.6705277 C371.582422,21.2292535 367.220197,34.1564797 376.222568,47.9083659 C385.224939,61.660252 413.674234,69.0695356 418.049604,82.8218569 C422.424975,96.5741781 459.420326,141.07681 414.21693,108.770306 C369.013535,76.4638017 349.418261,78.40482 353.202111,43.7743502 C356.985962,9.14388034 380.704975,-5.3217745 353.202111,-5.3217745 C325.699248,-5.3217745 310.76102,-30.6770302 310.76102,4.6705277 C310.76102,40.0180855 322.854318,61.3861817 304.059005,75.0671696 C285.263692,88.7481575 262.220701,132.285912 262.220701,82.8218569 C262.220701,33.3578022 276.358968,24.9029217 262.220701,14.7867247 C248.082434,4.6705277 253.918765,-5.44566929 242.852646,4.6705277 C231.786527,14.7867247 229.854229,12.8081625 236.353437,28.2912563 C242.852646,43.7743502 242.852646,41.8285705 242.852646,47.9083659 C242.852646,53.9881613 249.457014,61.0764448 236.353437,70.2953431 C223.249861,79.5142415 226.096668,84.9111735 226.096668,58.2212331 C226.096668,31.5312927 230.214774,14.7867247 218.641638,14.7867247 C207.068503,14.7867247 217.779709,17.2533572 212.424106,43.7743502 C207.068503,70.2953431 203.209539,69.1014479 189.967002,82.8218569 C176.724465,96.5422658 164.360758,127.131138 167.663881,104.976497 C170.967004,82.8218569 166.875188,78.2828024 183.467793,64.4272356 C200.060399,50.5716687 209.472139,43.7743502 183.467793,43.7743502 C157.463447,43.7743502 143.94299,39.1639624 159.974121,33.7276094 C176.005252,28.2912563 196.466211,47.7802816 189.967002,21.2292535 C183.467793,-5.3217745 149.396241,-4.15416001 145.392683,14.7867247 C141.389126,33.7276094 152.661807,50.487195 152.661807,64.4272356 C152.661807,78.3672762 142.181575,85.7258756 136.519883,91.0571057 C130.858192,96.3883359 110.58314,106.069024 125.733563,111.910851 C140.883987,117.752678 139.331012,183.649686 122.362838,142.888302 C105.394664,102.126917 108.54756,99.7184776 117.140561,78.9698553 C122.869229,65.1374405 122.869229,54.7836107 117.140561,47.9083659" id="Path-44" stroke="#FFDBF4" stroke-width="0.693000044" mask="url(#mask-4)"></path>
                            </g>
                            <g id="Group-18" transform="translate(0.157706, 19.178457)">
                                <g id="Group-25" transform="translate(571.483871, 81.463834) rotate(-15.000000) translate(-571.483871, -81.463834) translate(522.241935, 24.959132)">
                                    <path d="M24.639678,79.4026222 C18.1631672,60.8259458 15.9344344,48.3569368 17.9534795,41.995595 C20.9820472,32.4535824 26.7610022,28.9986745 27.733128,28.9986745 C28.7052539,28.9986745 31.8638963,36.4694282 33.2526475,34.8957197 C34.6413988,33.3220112 31.6961071,28.2244692 31.6961071,26.8025485 C31.6961071,25.3806279 42.7110511,20.2246388 44.2531345,20.2246388 C45.7952179,20.2246388 51.5149454,37.777508 53.6870049,36.0310754 C55.8590644,34.2846428 46.6468685,18.8755589 47.7473553,17.8898102 C48.8478421,16.9040615 53.7553472,14.6695524 54.3971518,14.6695524 C55.0389564,14.6695524 57.7060598,24.0101755 59.3230569,23.1906083 C60.940054,22.3710412 59.3230569,13.4931966 59.3230569,12.7429808 C59.3230569,11.9927649 64.5788451,10.5424931 64.5788451,10.5424931 C64.5788451,10.5424931 67.6117551,21.9588586 68.8344695,21.0917487 C70.057184,20.2246388 67.6117551,9.69762797 68.8344695,8.96180583 C70.057184,8.22598369 74.9380448,7.02279685 75.8778344,7.43618545 C76.817624,7.84957405 76.3086673,13.8194923 78.2968512,12.7429808 C80.2850351,11.6664693 78.510987,7.58588262 79.398011,6.98658391 C80.2850351,6.3872852 91.0749452,4.60858492 92.327998,5.54298086 C93.5810507,6.4773768 93.0221558,21.0917487 92.327998,21.0917487 C91.6338402,21.0917487 83.7114302,19.9127259 83.2918663,22.319928 C82.8723025,24.7271301 91.4203035,24.2645442 91.4203035,24.9637868 C91.4203035,25.6630294 89.0811943,32.8335985 89.0811943,33.6150859 C89.0811943,34.3965732 82.9627454,31.292079 81.9156316,32.4535824 C80.8685178,33.6150859 88.238475,34.8416255 88.238475,36.0310754 C88.238475,37.2205252 86.5256097,43.4210618 86.0923325,44.1667905 C85.6590553,44.9125193 79.9513546,40.6406702 78.8340414,41.995595 C77.7167282,43.3505198 84.6566732,45.5509724 84.6566732,46.9991946 C84.6566732,48.4474168 83.1240408,51.8721128 81.9156316,51.8721128 C80.7072225,51.8721128 71.9837073,46.7898444 70.1211534,48.9769687 C68.2585995,51.1640931 81.3537099,54.6596561 80.6726125,56.8152479 C79.9915151,58.9708397 75.8814092,66.752601 75.0198736,67.2095843 C74.158338,67.6665675 66.1653026,61.3801675 64.5788451,62.6540651 C62.9923875,63.9279627 73.0176887,69.791243 73.0176887,70.6741389 C73.0176887,71.1793673 70.9471357,73.86757 67.5682804,76.4675066 C67.1875695,76.7604533 64.4086045,73.2066971 62.9286518,72.4816118 C61.0964765,71.5839593 59.9438183,72.4816118 59.9438183,73.7971226 C59.9438183,75.1126333 63.5669317,79.0815827 62.9286518,79.4026222 C61.4347148,80.1540366 56.1008724,81.567143 54.3971518,81.9832244 C48.6782447,83.3798919 38.7590868,82.5196912 24.639678,79.4026222 Z M35.7076933,42.2496085 C33.675637,43.728821 39.1587054,51.0566739 41.136767,49.4777491 C43.1148287,47.8988242 37.7397495,40.7703961 35.7076933,42.2496085 Z M41.1740477,32.7222457 C41.1740477,33.3599889 44.0142923,37.9546725 45.2094928,38.8374195 C46.4046933,39.7201664 46.5025075,37.9546725 46.8300395,36.9914798 C47.1575715,36.0282871 44.855533,31.7256238 43.7106875,31.1504257 C42.565842,30.5752275 41.1740477,32.0845026 41.1740477,32.7222457 Z M60.8792873,25.5957122 C60.3560735,25.3451196 58.5775464,26.0695329 58.3303483,27.088488 C58.0831502,28.107443 59.7384114,30.8166959 60.5454699,31.3042818 C61.3525284,31.7918677 62.6095075,30.5453726 62.6095075,29.8312416 C62.6095075,29.1171107 61.4025011,25.8463048 60.8792873,25.5957122 Z M75.9098086,41.3908124 C76.8170296,40.8169144 77.2052336,40.436502 77.2052336,39.7482929 C77.2052336,39.0600838 73.6219931,36.8858303 72.5143177,36.5630419 C71.4066423,36.2402536 70.2672048,37.1675786 70.5951784,38.0600959 C70.9231519,38.9526131 75.0025877,41.9647104 75.9098086,41.3908124 Z M59.0031719,52.4035635 C58.6206145,52.9116389 58.0858341,53.738052 58.0858341,54.493255 C58.0858341,55.2484579 62.7433409,57.4102965 64.1916947,57.4102965 C65.6400485,57.4102965 66.1195393,55.7302979 65.5334689,54.8354856 C64.9473985,53.9406732 59.3857293,51.8954881 59.0031719,52.4035635 Z" id="Combined-Shape-Copy" fill="#000000" transform="translate(55.153193, 43.954119) rotate(8.000000) translate(-55.153193, -43.954119) "></path>
                                    <path d="M24.0832719,78.8486546 C17.6067611,60.2719782 15.3780283,47.8029691 17.3970734,41.4416274 C20.4256411,31.8996147 26.2045961,28.4447068 27.176722,28.4447068 C28.1488478,28.4447068 31.3074903,35.9154606 32.6962415,34.341752 C34.0849927,32.7680435 31.1397011,27.6705015 31.1397011,26.2485809 C31.1397011,24.8266602 42.1546451,19.6706712 43.6967284,19.6706712 C45.2388118,19.6706712 50.9585393,37.2235403 53.1305989,35.4771077 C55.3026584,33.7306751 46.0904624,18.3215912 47.1909492,17.3358425 C48.291436,16.3500938 53.1989412,14.1155848 53.8407458,14.1155848 C54.4825504,14.1155848 57.1496537,23.4562078 58.7666508,22.6366407 C60.3836479,21.8170735 58.7666508,12.9392289 58.7666508,12.1890131 C58.7666508,11.4387973 64.022439,9.98852544 64.022439,9.98852544 C64.022439,9.98852544 67.0553491,21.404891 68.2780635,20.5377811 C69.5007779,19.6706712 67.0553491,9.1436603 68.2780635,8.40783816 C69.5007779,7.67201603 74.3816388,6.46882919 75.3214283,6.88221779 C76.2612179,7.29560638 75.7522613,13.2655246 77.7404452,12.1890131 C79.728629,11.1125016 77.9545809,7.03191495 78.841605,6.43261625 C79.728629,5.83331754 90.5185392,4.05461726 91.7715919,4.9890132 C93.0246447,5.92340914 92.4657497,20.5377811 91.7715919,20.5377811 C91.0774342,20.5377811 83.1550241,19.3587582 82.7354603,21.7659603 C82.3158964,24.1731624 90.8638974,23.7105765 90.8638974,24.4098191 C90.8638974,25.1090618 88.5247882,32.2796309 88.5247882,33.0611182 C88.5247882,33.8426056 82.4063394,30.7381113 81.3592256,31.8996147 C80.3121118,33.0611182 87.6820689,34.2876579 87.6820689,35.4771077 C87.6820689,36.6665576 85.9692037,42.8670941 85.5359264,43.6128229 C85.1026492,44.3585517 79.3949485,40.0867025 78.2776353,41.4416274 C77.1603221,42.7965522 84.1002671,44.9970047 84.1002671,46.4452269 C84.1002671,47.8934491 82.5676347,51.3181452 81.3592256,51.3181452 C80.1508164,51.3181452 71.4273013,46.2358767 69.5647474,48.4230011 C67.7021935,50.6101254 80.7973039,54.1056884 80.1162065,56.2612802 C79.4351091,58.416872 75.3250032,66.1986334 74.4634675,66.6556166 C73.6019319,67.1125999 65.6088966,60.8261998 64.022439,62.1000974 C62.4359815,63.373995 72.4612826,69.2372753 72.4612826,70.1201712 C72.4612826,70.6253996 70.3907297,73.3136024 67.0118744,75.913539 C66.6311634,76.2064856 63.8521984,72.6527294 62.3722457,71.9276442 C60.5400705,71.0299917 59.3874122,71.9276442 59.3874122,73.2431549 C59.3874122,74.5586656 63.0105257,78.5276151 62.3722457,78.8486546 C60.8783087,79.6000689 55.5444663,81.0131753 53.8407458,81.4292568 C48.1218387,82.8259242 38.2026807,81.9657235 24.0832719,78.8486546 Z M35.1512872,41.6956409 C33.119231,43.1748533 38.6022994,50.5027062 40.580361,48.9237814 C42.5584226,47.3448565 37.1833435,40.2164285 35.1512872,41.6956409 Z M40.6176417,32.1682781 C40.6176417,32.8060212 43.4578862,37.4007049 44.6530867,38.2834518 C45.8482873,39.1661987 45.9461015,37.4007049 46.2736334,36.4375122 C46.6011654,35.4743195 44.2991269,31.1716561 43.1542814,30.596458 C42.0094359,30.0212598 40.6176417,31.5305349 40.6176417,32.1682781 Z M60.3228812,25.0417445 C59.7996674,24.7911519 58.0211403,25.5155652 57.7739422,26.5345203 C57.5267441,27.5534753 59.1820053,30.2627282 59.9890638,30.7503141 C60.7961224,31.2379 62.0531014,29.9914049 62.0531014,29.277274 C62.0531014,28.563143 60.846095,25.2923371 60.3228812,25.0417445 Z M75.3534026,40.8368447 C76.2606235,40.2629468 76.6488275,39.8825344 76.6488275,39.1943253 C76.6488275,38.5061162 73.0655871,36.3318626 71.9579117,36.0090743 C70.8502363,35.6862859 69.7107988,36.613611 70.0387723,37.5061282 C70.3667459,38.3986454 74.4461816,41.4107427 75.3534026,40.8368447 Z M58.4467659,51.8495959 C58.0642085,52.3576713 57.5294281,53.1840844 57.5294281,53.9392873 C57.5294281,54.6944902 62.1869349,56.8563288 63.6352887,56.8563288 C65.0836425,56.8563288 65.5631332,55.1763303 64.9770628,54.2815179 C64.3909924,53.3867055 58.8293233,51.3415205 58.4467659,51.8495959 Z" id="Combined-Shape" fill="#C297FB"></path>
                                    <path d="M91.7410197,5.14477533 C78.7503468,17.7110822 54.7951755,42.3364902 38.2833008,61.2529535 C27.2753844,73.863929 14.6137236,91.1024351 0.298318562,112.968472" id="Path-27" stroke="#FFFFFF" stroke-width="0.554400002" stroke-linecap="round"></path>
                                </g>
                                <g id="Group-6" transform="translate(62.419355, 47.145027)">
                                    <mask id="mask-6" fill="white">
                                        <use xlink:href="#path-5"></use>
                                    </mask>
                                    <use id="Path-13" fill="#E6DBFF" xlink:href="#path-5"></use>
                                    <path d="M608.776584,51.2565507 C590.391693,41.2059894 576.523553,34.5414378 567.172165,31.2628959 C553.145082,26.3450831 553.486115,19.4974762 539.627234,19.4974762 C525.768353,19.4974762 519.048007,27.127182 512.92331,23.3123291 C506.798614,19.4974762 508.400386,17.2283097 493.362552,5.9873744 C478.324717,-5.25356092 469.542745,-7.27899636 466.241982,-4.51311232 C462.94122,-1.74722827 490.884279,23.8198449 490.884279,31.2628959 C490.884279,38.705947 477.567038,44.8362443 463.55693,39.7101804 C449.546822,34.5841164 457.859682,33.1217304 443.167509,23.3123291 C428.475336,13.5029277 412.020904,2.29747221 409.538003,5.9873744 C407.055101,9.6772766 391.86141,6.91447776 407.104481,23.3123291 C422.347553,39.7101804 451.13162,42.7691587 440.846636,47.0128547 C430.561652,51.2565507 425.242471,54.315529 416.173476,47.0128547 C407.104481,39.7101804 400.043103,26.9189308 387.580758,12.9491339 C375.118412,-1.02066308 367.95673,-8.79228819 362.32738,-8.79228819 C356.698029,-8.79228819 322.019193,-27.7354316 362.32738,5.9873744 C402.635567,39.7101804 414.213697,46.9172134 411.87585,51.2565507 C409.538003,55.5958881 391.952455,48.1574648 387.580758,39.7101804 C383.209061,31.2628959 383.506886,31.6670574 370.725112,23.3123291 C357.943338,14.9576007 355.452721,5.9873744 347.61206,5.9873744 C339.771399,5.9873744 334.271672,3.86321248 331.021833,3.86321248 C327.771994,3.86321248 315.138361,3.86321248 308.499801,3.86321248 C301.861241,3.86321248 268.143776,-11.3375803 289.510001,5.9873744 C310.876226,23.3123291 319.940592,19.2192336 331.021833,19.2192336 C342.103074,19.2192336 359.275062,17.5152336 359.275062,23.3123291 C359.275062,29.1094246 350.442166,33.4163673 337.743722,31.2628959 C325.045277,29.1094246 316.615139,19.6363103 316.615139,28.4322226 C316.615139,37.228135 371.198854,47.0128547 374.564428,47.0128547 C377.930001,47.0128547 387.454221,56.052498 376.595191,56.052498 C365.736161,56.052498 343.035126,56.1589375 331.021833,49.1940929 C319.008539,42.2292482 319.795537,43.5111499 314.147669,37.3870229 C308.499801,31.2628959 330.131445,35.8855381 305.052441,28.4322226 C279.973437,20.9789072 277.729721,17.8360946 274.016942,15.3926142 C270.304163,12.9491339 273.266979,8.33675611 265.492673,8.33675611 C257.718367,8.33675611 248.274391,15.3617622 262.321534,23.3123291 C276.368677,31.2628959 288.834109,36.8131752 277.163391,39.7101804 C265.492673,42.6071855 253.1939,48.1574648 241.642004,39.7101804 C230.090107,31.2628959 226.372699,35.8855381 226.372699,28.4322226 C226.372699,20.9789072 228.036197,23.045853 221.149192,19.2192336 C214.262188,15.3926142 230.915683,2.58593864 235.288924,12.9491339 C239.662164,23.3123291 252.891446,48.5276891 247.266725,28.4322226 C241.642004,8.33675611 246.567685,3.22457556 235.288924,-4.51311232 C224.010162,-12.2508002 239.493962,-17.4061736 221.149192,-13.0992309 C202.804423,-8.79228819 210.058693,19.4774224 212.668131,28.4322226 C215.27757,37.3870229 226.806319,47.131635 215.644835,49.1940929 C204.483352,51.2565507 207.491221,46.1366572 207.491221,46.1366572 C207.491221,46.1366572 196.999457,38.7954178 196.999457,23.3123291 C196.999457,7.8292403 194.354224,15.4080402 188.346806,8.33675611 C182.339388,1.26547197 179.64662,-4.51311232 170.904769,-4.51311232 C162.162918,-4.51311232 161.579614,-4.51311232 147.955289,-4.51311232 C134.330965,-4.51311232 75.0777288,2.58593864 75.0777288,12.9491339 C75.0777288,23.3123291 82.7671625,38.454503 86.7268427,43.8242979 C90.686523,49.1940929 78.0544331,65.6073702 75.0777288,68.0817026 C72.1010245,70.556035 163.388281,159.562884 141.640486,95.4128898 C119.89269,31.2628959 92.7901874,25.4893334 114.123318,19.2192336 C135.456449,12.9491339 147.075361,6.4732938 156.167582,31.2628959 C165.259803,56.052498 176.549736,48.5276891 170.904769,28.4322226 C165.259803,8.33675611 162.345177,57.9290489 201.99359,76.6709693 C241.642004,95.4128898 629.543587,143.978656 580.842568,106.030179 C532.141549,68.0817026 726.743821,171.687697 661.862575,85.7130754 C596.981329,-0.261546634 411.754009,-117.550806 427.460759,-56.8437969 C443.167509,3.86321248 436.170942,7.95440192 411.87585,-13.0992309 C387.580758,-34.1528637 365.951551,-38.9517079 374.564428,-26.0254694 C383.177304,-13.0992309 357.868918,-19.8463284 342.377035,-29.7810385 C326.885152,-39.7157487 147.434738,-13.0992309 82.6087801,-13.0992309" id="Path-12" stroke="#B93CF6" stroke-width="0.693000044" stroke-linecap="round" stroke-linejoin="round" mask="url(#mask-6)"></path>
                                </g>
                                <g id="Group-7-Copy-2" transform="translate(199.741935, 38.825316) scale(-1, 1) rotate(-330.000000) translate(-199.741935, -38.825316) translate(178.935484, 6.239783)">
                                    <path d="M23.5089098,64.8659261 C23.5089098,41.0507245 18.3709644,22.1458743 8.09507356,8.15137554" id="Path-29" stroke="#B93CF6" stroke-width="0.693000044"></path>
                                    <path d="M23.5806452,50.4512417 C25.0768829,46.8284328 27.612793,44.2591094 31.1883756,42.7432713 C34.7639581,41.2274332 38.0442911,41.0656888 41.0293746,42.2580381 C40.3178216,44.7385944 37.7072803,46.8859079 33.1977506,48.6999788 C28.688221,50.5140497 25.4825191,51.097804 23.5806452,50.4512417 Z" id="Path-14" fill="#210164"></path>
                                    <path d="M22.033572,50.6339724 C18.8430417,48.4029214 14.9177477,47.2873959 10.2576901,47.2873959 C5.59763245,47.2873959 2.49744463,48.4029214 0.957126589,50.6339724 C4.09629652,52.1380421 7.43638201,52.8900769 10.9773831,52.8900769 C14.5183841,52.8900769 18.2037804,52.1380421 22.033572,50.6339724 Z" id="Path-15" fill="#210164"></path>
                                    <path d="M21.2130728,33.2584638 C21.2813829,30.6382752 22.2180102,28.0547018 24.0229546,25.5077435 C25.827899,22.9607852 28.3214428,21.6223994 31.503586,21.4925859 C30.347793,24.8511377 28.9600828,27.3185641 27.3404555,28.8948651 C25.7208281,30.4711661 23.6783672,31.925699 21.2130728,33.2584638 Z" id="Path-16" fill="#210164"></path>
                                    <path d="M18.6699975,33.8226318 C16.3520026,31.7703747 13.7780733,30.425843 10.9482094,29.7890367 C8.1183455,29.1522303 5.55432944,29.8244962 3.25616121,31.8058342 C5.77032485,34.041534 8.33434091,35.1593839 10.9482094,35.1593839 C13.5620779,35.1593839 16.1360072,34.7137999 18.6699975,33.8226318 Z" id="Path-17" fill="#210164"></path>
                                    <path d="M13.9983155,16.0148835 C14.438188,14.1666519 15.0619424,12.5486916 15.8695788,11.1610026 C16.6772153,9.77331366 18.3478173,8.88026757 20.881385,8.48186436 C20.9831908,11.0152391 20.3238367,12.8455794 18.9033227,13.9728852 C17.4828087,15.100191 15.8478063,15.7808571 13.9983155,16.0148835 Z" id="Path-18" fill="#210164"></path>
                                    <path d="M12.2501996,16.9383133 C9.6765431,16.922484 7.52836761,17.1858254 5.80567317,17.7283373 C4.08297874,18.2708493 2.80098314,19.4378977 1.95968638,21.2294823 C3.72124787,21.2294823 5.62223717,21.2294823 7.66265428,21.2294823 C9.7030714,21.2294823 11.2322532,19.7990926 12.2501996,16.9383133 Z" id="Path-19" fill="#210164"></path>
                                    <path d="M8.66589831,8.68141302 C8.22599012,5.89654555 7.32450224,3.83854068 5.96143468,2.50739839 C4.59836711,1.1762561 2.61122222,0.34045664 0,0 C0.311421683,2.46877321 1.44736273,4.46016701 3.40782315,5.97418139 C5.36828357,7.48819576 7.12097529,8.39060631 8.66589831,8.68141302 Z" id="Path-26" fill="#210164"></path>
                                </g>
                                <path d="M515.306452,94.3096326 L534.986758,79.5829731 C536.664609,78.327447 538.703877,77.6489286 540.799475,77.6489286 L595.342989,77.6489286 C597.910844,77.6489286 600.373969,76.6309325 602.192564,74.8180375 L612.507518,64.5354119 C614.326113,62.7225169 616.789238,61.7045208 619.357092,61.7045208 L666.759332,61.7045208 C669.139209,61.7045208 671.436072,62.5792492 673.213054,64.1623314 L710.922788,97.7572731 L515.306452,94.3096326 Z" id="Path-28" fill="#C297FB"></path>
                                <path d="M0,100.928672 L19.7744498,79.7896909 C22.3951889,76.9881084 26.0598933,75.3980632 29.8961855,75.3980632 L88.2510974,75.3980632 C90.3842952,75.3980632 92.4887048,74.9056665 94.4004493,73.9592175 L121.849223,60.3701296 C123.760968,59.4236806 125.865377,58.9312839 127.998575,58.9312839 L168.384626,58.9312839 C172.482469,58.9312839 176.37026,60.7446422 179.003703,63.8842746 L194.694767,82.5914061 C197.32821,85.7310384 201.216001,87.5443967 205.313844,87.5443967 L227.771955,87.5443967 C231.217668,87.5443967 234.539833,88.827896 237.090513,91.1445678 L250.099435,102.960006 L0,100.928672 Z" id="Path-3" fill="#C297FB"></path>
                                <g id="Group-25" transform="translate(82.673750, 106.036278) rotate(-6.000000) translate(-82.673750, -106.036278) translate(20.947944, 36.012046)">
                                    <path d="M31.257596,99.4399355 C23.1847621,76.1905981 20.4066937,60.5852125 22.9233908,52.6237787 C26.6984365,40.681628 33.9017818,36.3576941 35.1135161,36.3576941 C36.3252505,36.3576941 40.2624315,45.7075945 41.9934806,43.7380452 C43.7245297,41.7684959 40.0532859,35.3887501 40.0532859,33.6091684 C40.0532859,31.8295867 53.7831808,25.3766924 55.7053552,25.3766924 C57.6275296,25.3766924 64.7570491,47.3447005 67.4644754,45.1589811 C70.1719016,42.9732618 58.689094,23.6882733 60.0608276,22.4545756 C61.4325611,21.2208779 67.5496626,18.4243143 68.3496585,18.4243143 C69.1496544,18.4243143 72.4741423,30.1144193 74.489695,29.0887033 C76.5052478,28.0629874 74.489695,16.9520653 74.489695,16.0131449 C74.489695,15.0742245 81.040924,13.2591603 81.040924,13.2591603 C81.040924,13.2591603 84.8213823,27.547127 86.34547,26.4619097 C87.8695577,25.3766924 84.8213823,12.2017831 86.34547,11.2808769 C87.8695577,10.3599707 93.9534476,8.85414173 95.1248755,9.37151151 C96.2963033,9.88888129 95.6618996,17.3604354 98.1401288,16.0131449 C100.618358,14.6658544 98.4070445,9.55886257 99.5127013,8.80882001 C100.618358,8.05877746 114.067753,5.83267404 115.629657,7.00210209 C117.191561,8.17153013 116.49491,26.4619097 115.629657,26.4619097 C114.764404,26.4619097 104.889287,24.9863228 104.36631,27.9990175 C103.843332,31.0117121 114.498235,30.4327703 114.498235,31.307896 C114.498235,32.1830218 111.582585,41.1572309 111.582585,42.1352887 C111.582585,43.1133465 103.956067,39.2279672 102.650862,40.681628 C101.345657,42.1352887 110.532153,43.6703445 110.532153,45.1589811 C110.532153,46.6476178 108.397102,54.4077984 107.857032,55.3411032 C107.316961,56.2744079 100.202432,50.9280446 98.809725,52.6237787 C97.4170177,54.3195128 106.067513,57.0734534 106.067513,58.8859524 C106.067513,60.6984513 104.157119,64.984574 102.650862,64.984574 C101.144606,64.984574 90.2709284,58.6239436 87.9492943,61.3612035 C85.6276602,64.0984634 101.950439,68.4732785 101.101465,71.1710743 C100.252492,73.8688702 95.1293314,83.6080071 94.0554455,84.179937 C92.9815595,84.751867 83.0184098,76.8842252 81.040924,78.478551 C79.0634382,80.0728769 91.5597642,87.41097 91.5597642,88.515944 C91.5597642,89.1482544 88.9788637,92.5126309 84.767192,95.7665392 C84.2926438,96.1331719 80.8287227,91.6855261 78.9839929,90.7780574 C76.7002252,89.654615 75.263461,90.7780574 75.263461,92.4244635 C75.263461,94.0708695 79.7795954,99.0381437 78.9839929,99.4399355 C77.121832,100.380356 70.4733101,102.148906 68.3496585,102.669646 C61.2211616,104.417623 48.8571408,103.341052 31.257596,99.4399355 Z M45.0536432,52.9416852 C42.520728,54.7929694 49.355257,63.9640247 51.820869,61.9879469 C54.286481,60.0118692 47.5865585,51.090401 45.0536432,52.9416852 Z M51.8673386,41.0178692 C51.8673386,41.8160262 55.4076434,47.5664279 56.8974356,48.6712154 C58.3872278,49.776003 58.5091512,47.5664279 58.9174128,46.3609597 C59.3256745,45.1554915 56.4562322,39.7705632 55.0292064,39.0506833 C53.6021807,38.3308034 51.8673386,40.2197121 51.8673386,41.0178692 Z M76.4295034,32.098772 C75.7773284,31.7851468 73.560432,32.6917746 73.2523047,33.9670312 C72.9441775,35.2422878 75.0074256,38.6330092 76.0134071,39.2432395 C77.0193885,39.8534697 78.5861863,38.293439 78.5861863,37.39968 C78.5861863,36.505921 77.0816783,32.4123971 76.4295034,32.098772 Z M95.1647307,51.8668729 C96.2955625,51.1486202 96.7794505,50.6725212 96.7794505,49.8112043 C96.7794505,48.9498874 92.313017,46.2287357 90.932323,45.8247552 C89.551629,45.4207747 88.1313442,46.5813533 88.5401563,47.6983687 C88.9489684,48.8153841 94.0338989,52.5851256 95.1647307,51.8668729 Z M74.0909652,65.6497025 C73.6141155,66.285576 72.947523,67.3198599 72.947523,68.2650218 C72.947523,69.2101837 78.7530068,71.9157977 80.5583493,71.9157977 C82.3636917,71.9157977 82.9613668,69.8132228 82.2308424,68.693335 C81.500318,67.5734471 74.5678149,65.013829 74.0909652,65.6497025 Z" id="Combined-Shape-Copy" fill="#000000" transform="translate(69.292048, 55.074938) rotate(8.000000) translate(-69.292048, -55.074938) "></path>
                                    <path d="M30.0192897,97.2951333 C21.9464558,74.0457959 19.1683874,58.4404104 21.6850845,50.4789765 C25.4601301,38.5368258 32.6634754,34.2128919 33.8752098,34.2128919 C35.0869441,34.2128919 39.0241252,43.5627923 40.7551743,41.593243 C42.4862233,39.6236937 38.8149795,33.2439479 38.8149795,31.4643662 C38.8149795,29.6847845 52.5448745,23.2318902 54.4670488,23.2318902 C56.3892232,23.2318902 63.5187427,45.1998983 66.226169,43.0141789 C68.9335953,40.8284596 57.4507877,21.5434712 58.8225212,20.3097734 C60.1942548,19.0760757 66.3113563,16.2795122 67.1113521,16.2795122 C67.911348,16.2795122 71.235836,27.9696171 73.2513887,26.9439011 C75.2669414,25.9181852 73.2513887,14.8072631 73.2513887,13.8683427 C73.2513887,12.9294223 79.8026177,11.1143582 79.8026177,11.1143582 C79.8026177,11.1143582 83.583076,25.4023249 85.1071636,24.3171075 C86.6312513,23.2318902 83.583076,10.056981 85.1071636,9.13607472 C86.6312513,8.21516848 92.7151413,6.70933956 93.8865691,7.22670934 C95.057997,7.74407912 94.4235933,15.2156332 96.9018225,13.8683427 C99.3800517,12.5210523 97.1687382,7.41406039 98.2743949,6.66401784 C99.3800517,5.91397529 112.829447,3.68787186 114.391351,4.85729991 C115.953254,6.02672796 115.256603,24.3171075 114.391351,24.3171075 C113.526098,24.3171075 103.650981,22.8415207 103.128003,25.8542153 C102.605026,28.86691 113.259928,28.2879681 113.259928,29.1630939 C113.259928,30.0382196 110.344278,39.0124288 110.344278,39.9904866 C110.344278,40.9685443 102.717761,37.083165 101.412556,38.5368258 C100.107351,39.9904866 109.293846,41.5255423 109.293846,43.0141789 C109.293846,44.5028156 107.158796,52.2629962 106.618725,53.196301 C106.078654,54.1296057 98.964126,48.7832424 97.5714187,50.4789765 C96.1787114,52.1747107 104.829206,54.9286513 104.829206,56.7411502 C104.829206,58.5536492 102.918812,62.8397718 101.412556,62.8397718 C99.9062994,62.8397718 89.032622,56.4791414 86.7109879,59.2164013 C84.3893538,61.9536612 100.712132,66.3284763 99.8631588,69.0262721 C99.0141853,71.724068 93.8910251,81.4632049 92.8171391,82.0351349 C91.7432532,82.6070648 81.7801035,74.7394231 79.8026177,76.3337489 C77.8251318,77.9280747 90.3214579,85.2661679 90.3214579,86.3711418 C90.3214579,87.0034522 87.7405574,90.3678287 83.5288857,93.6217371 C83.0543375,93.9883697 79.5904164,89.5407239 77.7456866,88.6332552 C75.4619189,87.5098128 74.0251547,88.6332552 74.0251547,90.2796613 C74.0251547,91.9260674 78.5412891,96.8933415 77.7456866,97.2951333 C75.8835257,98.2355537 69.2350038,100.004104 67.1113521,100.524844 C59.9828552,102.27282 47.6188344,101.19625 30.0192897,97.2951333 Z M43.8153369,50.796883 C41.2824217,52.6481673 48.1169506,61.8192225 50.5825626,59.8431448 C53.0481747,57.867067 46.3482521,48.9455988 43.8153369,50.796883 Z M50.6290323,38.873067 C50.6290323,39.671224 54.1693371,45.4216257 55.6591293,46.5264133 C57.1489215,47.6312008 57.2708448,45.4216257 57.6791065,44.2161575 C58.0873682,43.0106894 55.2179258,37.625761 53.7909001,36.9058811 C52.3638743,36.1860012 50.6290323,38.0749099 50.6290323,38.873067 Z M75.191197,29.9539698 C74.5390221,29.6403447 72.3221256,30.5469724 72.0139984,31.822229 C71.7058712,33.0974857 73.7691193,36.4882071 74.7751007,37.0984373 C75.7810821,37.7086675 77.34788,36.1486368 77.34788,35.2548778 C77.34788,34.3611189 75.843372,30.2675949 75.191197,29.9539698 Z M93.9264243,49.7220707 C95.0572561,49.003818 95.5411442,48.5277191 95.5411442,47.6664021 C95.5411442,46.8050852 91.0747106,44.0839336 89.6940167,43.6799531 C88.3133227,43.2759726 86.8930379,44.4365511 87.30185,45.5535665 C87.7106621,46.6705819 92.7955926,50.4403234 93.9264243,49.7220707 Z M72.8526589,63.5049003 C72.3758092,64.1407738 71.7092167,65.1750577 71.7092167,66.1202196 C71.7092167,67.0653816 77.5147005,69.7709955 79.3200429,69.7709955 C81.1253853,69.7709955 81.7230604,67.6684207 80.992536,66.5485328 C80.2620117,65.4286449 73.3295086,62.8690268 72.8526589,63.5049003 Z" id="Combined-Shape" fill="#D38BF7"></path>
                                    <path d="M114.353243,5.05224147 C98.1606435,20.7793985 68.3010286,51.5989276 47.7193257,75.2735197 C33.9981904,91.0565811 18.2156977,112.631153 0.371847785,139.997236" id="Path-27" stroke="#FFFFFF" stroke-width="0.693000044" stroke-linecap="round"></path>
                                </g>
                                <g id="Group-25-Copy" transform="translate(575.579042, 102.765166) rotate(-75.000000) translate(-575.579042, -102.765166) translate(538.474203, 57.700066)">
                                    <path d="M16.653831,61.4798969 C11.4726224,46.6185558 9.68963609,36.6433486 11.3048722,31.5542752 C13.7277264,23.9206651 18.3508903,21.1567387 19.128591,21.1567387 C19.9062917,21.1567387 22.4332057,27.1333417 23.5442067,25.8743749 C24.6552076,24.6154081 22.2989743,20.5373745 22.2989743,19.399838 C22.2989743,18.2623014 31.1109295,14.1375102 32.3445962,14.1375102 C33.5782629,14.1375102 38.1540449,28.1798056 39.8916925,26.7826595 C41.6293401,25.3855134 34.2595834,13.0582463 35.1399728,12.2696473 C36.0203623,11.4810484 39.9463664,9.6934411 40.4598101,9.6934411 C40.9732538,9.6934411 43.1069364,17.1659395 44.4005341,16.5102858 C45.6941318,15.8546321 44.4005341,8.75235642 44.4005341,8.15218377 C44.4005341,7.55201112 48.6051647,6.39179364 48.6051647,6.39179364 C48.6051647,6.39179364 51.0314927,15.5248861 52.0096642,14.8311981 C52.9878358,14.1375102 51.0314927,5.71590153 52.0096642,5.12724382 C52.9878358,4.53858611 56.8925245,3.57603664 57.6443561,3.90674752 C58.3961878,4.2374584 57.9890225,9.01339298 59.5795696,8.15218377 C61.1701167,7.29097456 59.7508782,4.02650525 60.4604974,3.54706629 C61.1701167,3.06762732 69.8020448,1.6446671 70.804487,2.39218385 C71.8069292,3.1397006 71.3598132,14.8311981 70.804487,14.8311981 C70.2491608,14.8311981 63.9112327,13.8879799 63.5755817,15.8137415 C63.2399306,17.7395032 70.0783314,17.3694345 70.0783314,17.9288286 C70.0783314,18.4882227 68.207044,24.224678 68.207044,24.8498679 C68.207044,25.4750577 63.312285,22.9914623 62.4745939,23.9206651 C61.6369029,24.8498679 67.5328686,25.8310996 67.5328686,26.7826595 C67.5328686,27.7342194 66.1625764,32.6946486 65.8159546,33.2912316 C65.4693328,33.8878146 60.9031723,30.4703353 60.0093217,31.5542752 C59.1154711,32.638215 64.6674272,34.3985771 64.6674272,35.5571548 C64.6674272,36.7157326 63.4413212,39.4554894 62.4745939,39.4554894 C61.5078666,39.4554894 54.5290545,35.3896747 53.0390114,37.1393741 C51.5489682,38.8890736 62.0250566,41.685524 61.4801786,43.4099975 C60.9353007,45.1344709 57.647216,51.35988 56.9579875,51.7254666 C56.268759,52.0910532 49.8743307,47.0619332 48.6051647,48.0810512 C47.3359986,49.1001693 55.3562395,53.7907936 55.3562395,54.4971102 C55.3562395,54.901293 53.6997972,57.0518552 50.996713,59.1318045 C50.6921442,59.3661618 48.4689722,56.5231568 47.28501,55.9430886 C45.8192698,55.2249666 44.8971432,55.9430886 44.8971432,56.9954972 C44.8971432,58.0479058 47.795634,61.2230654 47.28501,61.4798969 C46.0898604,62.0810285 41.8227865,63.2115136 40.4598101,63.5443787 C35.8846844,64.6617127 27.949358,63.9735521 16.653831,61.4798969 Z M25.5082432,31.757486 C23.8825982,32.9408559 28.2690529,38.8031383 29.8515022,37.5399984 C31.4339516,36.2768585 27.1338883,30.5741161 25.5082432,31.757486 Z M29.8813268,24.1355957 C29.8813268,24.6457902 32.1535224,28.3215372 33.1096829,29.0277347 C34.0658433,29.7339323 34.1440946,28.3215372 34.4061202,27.550983 C34.6681458,26.7804289 32.826515,23.3382982 31.9106386,22.8781397 C30.9947622,22.4179812 29.8813268,23.6254012 29.8813268,24.1355957 Z M45.6455184,18.4343689 C45.2269474,18.2338948 43.8041257,18.8134255 43.6063672,19.6285895 C43.4086087,20.4437536 44.7328177,22.6111559 45.3784645,23.0012246 C46.0241113,23.3912933 47.0296946,22.3940972 47.0296946,21.8227925 C47.0296946,21.2514877 46.0640895,18.634843 45.6455184,18.4343689 Z M57.6699355,31.0704491 C58.3957123,30.6113307 58.7062755,30.3070008 58.7062755,29.7564335 C58.7062755,29.2058662 55.8396831,27.4664634 54.9535428,27.2082327 C54.0674025,26.950002 53.1558525,27.6918621 53.4182313,28.4058758 C53.6806101,29.1198896 56.9441587,31.5295675 57.6699355,31.0704491 Z M44.1446261,39.88065 C43.8385802,40.2871103 43.4107559,40.9482408 43.4107559,41.5524031 C43.4107559,42.1565655 47.1367613,43.8860363 48.2954444,43.8860363 C49.4541274,43.8860363 49.83772,42.5420375 49.3688637,41.8261876 C48.9000074,41.1103377 44.4506721,39.4741897 44.1446261,39.88065 Z" id="Combined-Shape-Copy" fill="#000000" transform="translate(41.064643, 33.121094) rotate(-3.000000) translate(-41.064643, -33.121094) "></path>
                                    <path d="M19.2666175,62.8016 C14.0854089,47.9402588 12.3024226,37.9650516 13.9176587,32.8759782 C16.3405129,25.2423681 20.9636769,22.4784418 21.7413776,22.4784418 C22.5190783,22.4784418 25.0459922,28.4550448 26.1569932,27.1960779 C27.2679942,25.9371111 24.9117609,21.8590775 24.9117609,20.721541 C24.9117609,19.5840045 33.723716,15.4592132 34.9573828,15.4592132 C36.1910495,15.4592132 40.7668315,29.5015086 42.5044791,28.1043625 C44.2421267,26.7072164 36.87237,14.3799493 37.7527594,13.5913503 C38.6331488,12.8027514 42.559153,11.0151441 43.0725966,11.0151441 C43.5860403,11.0151441 45.719723,18.4876426 47.0133207,17.8319888 C48.3069183,17.1763351 47.0133207,10.0740594 47.0133207,9.47388679 C47.0133207,8.87371414 51.2179512,7.71349666 51.2179512,7.71349666 C51.2179512,7.71349666 53.6442793,16.8465891 54.6224508,16.1529012 C55.6006223,15.4592132 53.6442793,7.03760455 54.6224508,6.44894684 C55.6006223,5.86028913 59.505311,4.89773966 60.2571427,5.22845054 C61.0089743,5.55916142 60.601809,10.335096 62.1923561,9.47388679 C63.7829032,8.61267758 62.3636647,5.34820827 63.073284,4.86876931 C63.7829032,4.38933034 72.4148313,2.96637012 73.4172736,3.71388687 C74.4197158,4.46140362 73.9725998,16.1529012 73.4172736,16.1529012 C72.8619473,16.1529012 66.5240193,15.2096829 66.1883682,17.1354446 C65.8527171,19.0612062 72.6911179,18.6911375 72.6911179,19.2505316 C72.6911179,19.8099257 70.8198306,25.546381 70.8198306,26.1715709 C70.8198306,26.7967608 65.9250715,24.3131653 65.0873805,25.2423681 C64.2496894,26.1715709 70.1456551,27.1528026 70.1456551,28.1043625 C70.1456551,29.0559224 68.7753629,34.0163516 68.4287412,34.6129346 C68.0821194,35.2095176 63.5159588,31.7920383 62.6221082,32.8759782 C61.7282577,33.9599181 67.2802137,35.7202801 67.2802137,36.8788578 C67.2802137,38.0374356 66.0541078,40.7771924 65.0873805,40.7771924 C64.1206531,40.7771924 57.141841,36.7113777 55.6517979,38.4610772 C54.1617548,40.2107766 64.6378431,43.0072271 64.0929652,44.7317005 C63.5480873,46.4561739 60.2600025,52.681583 59.570774,53.0471696 C58.8815455,53.4127562 52.4871173,48.3836362 51.2179512,49.4027542 C49.9487852,50.4218723 57.9690261,55.1124966 57.9690261,55.8188133 C57.9690261,56.222996 56.3125837,58.3735582 53.6094995,60.4535075 C53.3049307,60.6878648 51.0817587,57.8448599 49.8977966,57.2647916 C48.4320564,56.5466696 47.5099298,57.2647916 47.5099298,58.3172002 C47.5099298,59.3696088 50.4084206,62.5447684 49.8977966,62.8016 C48.702647,63.4027315 44.4355731,64.5332166 43.0725966,64.8660817 C38.4974709,65.9834157 30.5621446,65.2952551 19.2666175,62.8016 Z M28.1210298,33.079189 C26.4953848,34.2625589 30.8818395,40.1248413 32.4642888,38.8617014 C34.0467381,37.5985615 29.7466748,31.8958191 28.1210298,33.079189 Z M32.4941134,25.4572988 C32.4941134,25.9674933 34.766309,29.6432402 35.7224694,30.3494378 C36.6786298,31.0556353 36.7568812,29.6432402 37.0189068,28.8726861 C37.2809323,28.1021319 35.4393016,24.6600012 34.5234251,24.1998427 C33.6075487,23.7396842 32.4941134,24.9471043 32.4941134,25.4572988 Z M48.258305,19.7560719 C47.839734,19.5555978 46.4169123,20.1351285 46.2191538,20.9502925 C46.0213953,21.7654566 47.3456043,23.9328589 47.9912511,24.3229276 C48.6368979,24.7129964 49.6424812,23.7158002 49.6424812,23.1444955 C49.6424812,22.5731907 48.676876,19.956546 48.258305,19.7560719 Z M60.2827221,32.3921521 C61.0084988,31.9330337 61.319062,31.6287038 61.319062,31.0781365 C61.319062,30.5275692 58.4524696,28.7881664 57.5663293,28.5299357 C56.680189,28.2717051 55.768639,29.0135651 56.0310178,29.7275789 C56.2933967,30.4415926 59.5569453,32.8512705 60.2827221,32.3921521 Z M46.7574127,41.202353 C46.4513668,41.6088133 46.0235425,42.2699438 46.0235425,42.8741061 C46.0235425,43.4782685 49.7495479,45.2077394 50.9082309,45.2077394 C52.066914,45.2077394 52.4505066,43.8637405 51.9816503,43.1478906 C51.5127939,42.4320407 47.0634586,40.7958927 46.7574127,41.202353 Z" id="Combined-Shape" fill="#FFA3E3"></path>
                                    <path d="M73.3928157,3.83849657 C63.0002774,13.891542 43.8361404,33.5918685 30.6266406,48.7250391 C21.8203075,58.8138195 11.6909789,72.6046244 0.23865485,90.0974538" id="Path-27" stroke="#74125D" stroke-width="0.550000012" stroke-linecap="round"></path>
                                </g>
                                <g id="Group-7" transform="translate(373.129032, 19.412658)">
                                    <path d="M23.5089098,64.8659261 C23.5089098,41.0507245 18.3709644,22.1458743 8.09507356,8.15137554" id="Path-29" stroke="#B93CF6" stroke-width="0.693000044"></path>
                                    <path d="M23.5806452,50.4512417 C25.0768829,46.8284328 27.612793,44.2591094 31.1883756,42.7432713 C34.7639581,41.2274332 38.0442911,41.0656888 41.0293746,42.2580381 C40.3178216,44.7385944 37.7072803,46.8859079 33.1977506,48.6999788 C28.688221,50.5140497 25.4825191,51.097804 23.5806452,50.4512417 Z" id="Path-14" fill="#FFA3E3"></path>
                                    <path d="M22.033572,50.6339724 C18.8430417,48.4029214 14.9177477,47.2873959 10.2576901,47.2873959 C5.59763245,47.2873959 2.49744463,48.4029214 0.957126589,50.6339724 C4.09629652,52.1380421 7.43638201,52.8900769 10.9773831,52.8900769 C14.5183841,52.8900769 18.2037804,52.1380421 22.033572,50.6339724 Z" id="Path-15" fill="#FFA3E3"></path>
                                    <path d="M21.2130728,33.2584638 C21.2813829,30.6382752 22.2180102,28.0547018 24.0229546,25.5077435 C25.827899,22.9607852 28.3214428,21.6223994 31.503586,21.4925859 C30.347793,24.8511377 28.9600828,27.3185641 27.3404555,28.8948651 C25.7208281,30.4711661 23.6783672,31.925699 21.2130728,33.2584638 Z" id="Path-16" fill="#FFA3E3"></path>
                                    <path d="M18.6699975,33.8226318 C16.3520026,31.7703747 13.7780733,30.425843 10.9482094,29.7890367 C8.1183455,29.1522303 5.55432944,29.8244962 3.25616121,31.8058342 C5.77032485,34.041534 8.33434091,35.1593839 10.9482094,35.1593839 C13.5620779,35.1593839 16.1360072,34.7137999 18.6699975,33.8226318 Z" id="Path-17" fill="#FFA3E3"></path>
                                    <path d="M13.9983155,16.0148835 C14.438188,14.1666519 15.0619424,12.5486916 15.8695788,11.1610026 C16.6772153,9.77331366 18.3478173,8.88026757 20.881385,8.48186436 C20.9831908,11.0152391 20.3238367,12.8455794 18.9033227,13.9728852 C17.4828087,15.100191 15.8478063,15.7808571 13.9983155,16.0148835 Z" id="Path-18" fill="#FFA3E3"></path>
                                    <path d="M12.2501996,16.9383133 C9.6765431,16.922484 7.52836761,17.1858254 5.80567317,17.7283373 C4.08297874,18.2708493 2.80098314,19.4378977 1.95968638,21.2294823 C3.72124787,21.2294823 5.62223717,21.2294823 7.66265428,21.2294823 C9.7030714,21.2294823 11.2322532,19.7990926 12.2501996,16.9383133 Z" id="Path-19" fill="#FFA3E3"></path>
                                    <path d="M8.66589831,8.68141302 C8.22599012,5.89654555 7.32450224,3.83854068 5.96143468,2.50739839 C4.59836711,1.1762561 2.61122222,0.34045664 0,0 C0.311421683,2.46877321 1.44736273,4.46016701 3.40782315,5.97418139 C5.36828357,7.48819576 7.12097529,8.39060631 8.66589831,8.68141302 Z" id="Path-26" fill="#FFA3E3"></path>
                                </g>
                                <path d="M409.323279,94.290727 L393.735628,76.8186271 C392.420776,75.3448174 390.539534,74.5020675 388.564451,74.5020675 L365.998359,74.5020675 C364.582683,74.5020675 363.200965,74.935636 362.039084,75.744446 L359.95027,77.1985139 C357.799107,78.695985 354.845065,78.1958265 353.306751,76.0736779 L342.45307,61.100712 C341.149562,59.3024849 339.063143,58.2379747 336.842163,58.2379747 L305.640261,58.2379747 C303.697406,58.2379747 301.843778,59.0535408 300.53114,60.4859037 L269.551915,94.290727 L409.323279,94.290727 Z" id="Path-30" fill="#D38BF7"></path>
                            </g>
                        </g>
                    </g>
                </g>
            </g>
        </g>
    </g>
</svg>