<svg xmlns="http://www.w3.org/2000/svg" xmlns:xlink="http://www.w3.org/1999/xlink" width="1920" height="1080" viewBox="0 0 1920 1080">
  <defs>
    <filter id="Path_80" x="43.75" y="178.75" width="594.2" height="729.5" filterUnits="userSpaceOnUse">
      <feOffset dy="3" input="SourceAlpha"/>
      <feGaussianBlur stdDeviation="3" result="blur"/>
      <feFlood flood-opacity="0.161"/>
      <feComposite operator="in" in2="blur"/>
      <feComposite in="SourceGraphic"/>
    </filter>
    <filter id="Path_114" x="662.75" y="87.75" width="594.2" height="729.5" filterUnits="userSpaceOnUse">
      <feOffset dy="3" input="SourceAlpha"/>
      <feGaussianBlur stdDeviation="3" result="blur-2"/>
      <feFlood flood-opacity="0.161"/>
      <feComposite operator="in" in2="blur-2"/>
      <feComposite in="SourceGraphic"/>
    </filter>
    <filter id="Path_115" x="1281.75" y="178.75" width="594.2" height="729.5" filterUnits="userSpaceOnUse">
      <feOffset dy="3" input="SourceAlpha"/>
      <feGaussianBlur stdDeviation="3" result="blur-3"/>
      <feFlood flood-opacity="0.161"/>
      <feComposite operator="in" in2="blur-3"/>
      <feComposite in="SourceGraphic"/>
    </filter>
    <clipPath id="clip-dashboard">
      <rect width="1920" height="1080"/>
    </clipPath>
  </defs>
  <g id="dashboard" clip-path="url(#clip-dashboard)">
    <rect width="1920" height="1080" fill="#fff"/>
    <g id="_1" data-name="1" transform="translate(52.75 184.75)">
      <g transform="matrix(1, 0, 0, 1, -52.75, -184.75)" filter="url(#Path_80)">
        <path id="Path_80-2" data-name="Path 80" d="M10.059.25H566.141a9.809,9.809,0,0,1,9.809,9.809V701.441a9.809,9.809,0,0,1-9.809,9.809H10.059A9.809,9.809,0,0,1,.25,701.441V10.059A9.809,9.809,0,0,1,10.059.25Z" transform="translate(52.75 184.75)" fill="#fff" stroke="rgba(0,0,0,0.17)" stroke-width="0.5" fill-rule="evenodd"/>
      </g>
      <g id="Group_46" data-name="Group 46" transform="translate(58.767 66.049)">
        <path id="Path_82" data-name="Path 82" d="M20.256,14.206a14.545,14.545,0,0,1-1.247,6.251,9.374,9.374,0,0,1-3.51,4.071,9.637,9.637,0,0,1-5.235,1.421,9.662,9.662,0,0,1-5.22-1.421,9.483,9.483,0,0,1-3.55-4.079A14.319,14.319,0,0,1,.222,14.206V13A14.4,14.4,0,0,1,1.486,6.758,9.5,9.5,0,0,1,5.02,2.669,9.578,9.578,0,0,1,10.23,1.24a9.681,9.681,0,0,1,5.244,1.421A9.4,9.4,0,0,1,19,6.74,14.529,14.529,0,0,1,20.256,13Zm-4.294-1.239a10.442,10.442,0,0,0-1.5-6.088,4.888,4.888,0,0,0-4.236-2.1,5.036,5.036,0,0,0-3.055.947A5.852,5.852,0,0,0,5.2,8.5a12.853,12.853,0,0,0-.685,4.465V14.2a12.776,12.776,0,0,0,.693,4.476,5.931,5.931,0,0,0,1.992,2.8,5.045,5.045,0,0,0,3.065.947,4.841,4.841,0,0,0,4.219-2.113A10.609,10.609,0,0,0,15.961,14.2ZM32,7.418a5.239,5.239,0,0,1,.785.066,3.249,3.249,0,0,1,.652.149l-.032,3.88a10.358,10.358,0,0,0-1.636-.135,3.661,3.661,0,0,0-3.7,2.063V25.619H23.952V7.748h3.914l.116,2.015A4.98,4.98,0,0,1,29.67,8.03,4.388,4.388,0,0,1,32,7.418ZM50.877.25V25.619H47.16l-.2-1.866a5.835,5.835,0,0,1-4.773,2.2,6.089,6.089,0,0,1-3.706-1.173,7.46,7.46,0,0,1-2.452-3.236,12.006,12.006,0,0,1-.859-4.658v-.346a12.461,12.461,0,0,1,.85-4.773,7.2,7.2,0,0,1,2.445-3.2,6.294,6.294,0,0,1,3.757-1.139,5.768,5.768,0,0,1,4.539,1.965V.25ZM43.23,22.574a3.685,3.685,0,0,0,3.534-2.142V12.868a3.653,3.653,0,0,0-3.5-2.1,3.276,3.276,0,0,0-3,1.6,7.857,7.857,0,0,0-.984,4.162v.346A7.8,7.8,0,0,0,40.242,21,3.247,3.247,0,0,0,43.23,22.58Zm26.9-4.6H58.49A5.9,5.9,0,0,0,59.2,20.4a4.349,4.349,0,0,0,1.607,1.651,4.611,4.611,0,0,0,2.37.6,5.358,5.358,0,0,0,4.465-2.181l2.2,2.131a7.672,7.672,0,0,1-2.706,2.395,8.556,8.556,0,0,1-4.194.958,8.922,8.922,0,0,1-4.566-1.131,7.658,7.658,0,0,1-2.99-3.1,9.271,9.271,0,0,1-1.04-4.409v-.676A10.608,10.608,0,0,1,55.4,11.787,7.857,7.857,0,0,1,58.3,8.557a7.779,7.779,0,0,1,4.162-1.139A7.672,7.672,0,0,1,66.71,8.525a6.714,6.714,0,0,1,2.571,3.1,11.634,11.634,0,0,1,.851,4.615Zm-4.059-3.286a4.932,4.932,0,0,0-.947-2.849,3.163,3.163,0,0,0-2.675-1.115,3.313,3.313,0,0,0-2.61,1.123A5.882,5.882,0,0,0,58.571,15h7.5ZM81.238,7.418a5.239,5.239,0,0,1,.785.066,3.249,3.249,0,0,1,.652.149l-.032,3.88a10.358,10.358,0,0,0-1.636-.135,3.661,3.661,0,0,0-3.7,2.063V25.619H73.189V7.748H77.1l.116,2.015A5.006,5.006,0,0,1,78.9,8.03,4.388,4.388,0,0,1,81.238,7.418Zm20.193,7.861a16.972,16.972,0,0,1-5.863-2.89A5.548,5.548,0,0,1,93.5,7.913a5.8,5.8,0,0,1,1.082-3.451,7.09,7.09,0,0,1,3.031-2.37,11.046,11.046,0,0,1,4.458-.851,10.2,10.2,0,0,1,4.6.984,7.348,7.348,0,0,1,3.031,2.659,6.812,6.812,0,0,1,1.057,3.709H106.5a3.775,3.775,0,0,0-1.131-2.874,4.69,4.69,0,0,0-3.345-1.074,4.84,4.84,0,0,0-3.163.9A2.917,2.917,0,0,0,97.781,7.9,2.629,2.629,0,0,0,99,10.077a12.756,12.756,0,0,0,3.848,1.652,19.685,19.685,0,0,1,4.489,1.848,7.347,7.347,0,0,1,2.6,2.462,6.3,6.3,0,0,1,.859,3.32,5.89,5.89,0,0,1-1.057,3.5,6.705,6.705,0,0,1-3,2.288,11.813,11.813,0,0,1-4.533.8,12.223,12.223,0,0,1-4.584-.871,8.2,8.2,0,0,1-3.518-2.6A6.607,6.607,0,0,1,92.755,18.3h4.277a3.742,3.742,0,0,0,1.413,3.213A6.164,6.164,0,0,0,102.2,22.56a5.112,5.112,0,0,0,3.188-.859,2.776,2.776,0,0,0,1.114-2.306,3.111,3.111,0,0,0-.413-1.66,3.818,3.818,0,0,0-1.5-1.246,18.207,18.207,0,0,0-3.163-1.21Zm27.417-7.531v17.87h-3.882l-.1-1.767a6.152,6.152,0,0,1-5.006,2.1,5.769,5.769,0,0,1-4.343-1.624,7.013,7.013,0,0,1-1.569-5.037V7.743h4.113V19.32a3.4,3.4,0,0,0,.769,2.51,2.767,2.767,0,0,0,2.029.752,3.9,3.9,0,0,0,3.864-2.029V7.754Zm23.519-.33a5.681,5.681,0,0,1,4.343,1.594,7.168,7.168,0,0,1,1.5,5.045V25.619H154.1V14.041a3.372,3.372,0,0,0-.785-2.552,3.383,3.383,0,0,0-2.354-.718,3.342,3.342,0,0,0-2.155.694,3.728,3.728,0,0,0-1.23,1.866l.016.38V25.619h-4.119V14.09a3.416,3.416,0,0,0-.8-2.56,3.3,3.3,0,0,0-2.353-.759,3.466,3.466,0,0,0-3.353,1.932V25.619h-4.113V7.748h3.866l.135,1.883a6.035,6.035,0,0,1,2.205-1.644,7.252,7.252,0,0,1,2.948-.57,6.173,6.173,0,0,1,2.94.668,4.482,4.482,0,0,1,1.932,2.057,6.333,6.333,0,0,1,2.3-2.006A6.834,6.834,0,0,1,152.368,7.418Zm29.415,0a5.681,5.681,0,0,1,4.343,1.594,7.168,7.168,0,0,1,1.5,5.045V25.619h-4.113V14.041a3.371,3.371,0,0,0-.783-2.552,3.383,3.383,0,0,0-2.354-.718,3.337,3.337,0,0,0-2.155.694,3.728,3.728,0,0,0-1.23,1.866l.016.38V25.619H172.9V14.09a3.416,3.416,0,0,0-.8-2.56,3.3,3.3,0,0,0-2.353-.759A3.466,3.466,0,0,0,166.39,12.7V25.619h-4.108V7.748h3.866l.135,1.883a6.036,6.036,0,0,1,2.205-1.644,7.252,7.252,0,0,1,2.948-.57,6.173,6.173,0,0,1,2.94.668,4.482,4.482,0,0,1,1.932,2.057,6.327,6.327,0,0,1,2.3-2.006,6.833,6.833,0,0,1,3.174-.718Zm24.066,14.039a9.224,9.224,0,0,0,.676,3.88v.281h-4.194a7.363,7.363,0,0,1-.463-1.668,6.361,6.361,0,0,1-2.015,1.453,6.227,6.227,0,0,1-2.659.541,6.921,6.921,0,0,1-3.139-.694,5.307,5.307,0,0,1-2.165-1.916,5.011,5.011,0,0,1-.775-2.741,5.051,5.051,0,0,1,2.121-4.377,10.237,10.237,0,0,1,6.021-1.519h2.477V13.542a3.065,3.065,0,0,0-.777-2.222,3.055,3.055,0,0,0-2.3-.8,3.848,3.848,0,0,0-1.6.314,2.548,2.548,0,0,0-1.073.858,2.085,2.085,0,0,0-.38,1.218h-4.113a4.515,4.515,0,0,1,.917-2.706,6.39,6.39,0,0,1,2.61-2.029,9.284,9.284,0,0,1,3.872-.767,8.861,8.861,0,0,1,3.617.694,5.424,5.424,0,0,1,2.453,2.081,6.17,6.17,0,0,1,.884,3.382Zm-7.861,1.206a4.294,4.294,0,0,0,2.287-.612,3.92,3.92,0,0,0,1.463-1.469V17.245H199.59a5.65,5.65,0,0,0-3.247.777,2.51,2.51,0,0,0-1.116,2.185,2.328,2.328,0,0,0,.727,1.775,2.842,2.842,0,0,0,2.032.681ZM218.026,7.418a5.246,5.246,0,0,1,.785.066,3.253,3.253,0,0,1,.652.149l-.034,3.88a10.319,10.319,0,0,0-1.634-.135,3.659,3.659,0,0,0-3.706,2.063V25.619h-4.113V7.748h3.914l.116,2.015a4.972,4.972,0,0,1,1.684-1.733,4.389,4.389,0,0,1,2.335-.612Zm18.194.33L229.1,28.325a9.1,9.1,0,0,1-1.942,3.18,4.735,4.735,0,0,1-3.608,1.329,8.124,8.124,0,0,1-1.965-.3V29.384l.759.034a4,4,0,0,0,2.238-.521,3.449,3.449,0,0,0,1.218-1.825l.561-1.519-6.275-17.8h4.432l3.717,11.99,3.6-11.99Z" transform="translate(1.43 -0.25)"/>
        <g id="Group_36" data-name="Group 36" transform="translate(1.736 353.47)">
          <path id="Path_83" data-name="Path 83" d="M6.936,1.2a7.586,7.586,0,0,1,3.4.708A5.09,5.09,0,0,1,12.513,3.87a5.459,5.459,0,0,1,.75,2.86,5.428,5.428,0,0,1-.743,2.89,4.764,4.764,0,0,1-2.17,1.863,8.268,8.268,0,0,1-3.414.637H3.364v6.4H.283V1.2Zm0,8.443a3.374,3.374,0,0,0,2.435-.769,2.821,2.821,0,0,0,.792-2.116A3.392,3.392,0,0,0,9.818,5.23a2.64,2.64,0,0,0-1.07-1.118A3.572,3.572,0,0,0,6.936,3.69H3.364V9.643Zm18.712,5.879a6.63,6.63,0,0,0,.488,2.8v.2H23.115a5.26,5.26,0,0,1-.333-1.2,4.6,4.6,0,0,1-1.45,1.047,4.5,4.5,0,0,1-1.914.392,4.985,4.985,0,0,1-2.26-.5,3.818,3.818,0,0,1-1.563-1.38,3.6,3.6,0,0,1-.56-1.974,3.638,3.638,0,0,1,1.534-3.15,7.364,7.364,0,0,1,4.33-1.095h1.785V9.827a2.2,2.2,0,0,0-.559-1.6,2.2,2.2,0,0,0-1.653-.576,2.767,2.767,0,0,0-1.154.226,1.831,1.831,0,0,0-.773.618,1.5,1.5,0,0,0-.271.879H15.315a3.247,3.247,0,0,1,.659-1.951,4.62,4.62,0,0,1,1.879-1.463,6.7,6.7,0,0,1,2.789-.553,6.366,6.366,0,0,1,2.6.5,3.911,3.911,0,0,1,1.766,1.5,4.441,4.441,0,0,1,.636,2.435Zm-5.66.869a3.1,3.1,0,0,0,1.647-.442,2.842,2.842,0,0,0,1.053-1.059v-2.4H21.142a4.074,4.074,0,0,0-2.342.559,1.8,1.8,0,0,0-.8,1.569,1.677,1.677,0,0,0,.524,1.279A2.047,2.047,0,0,0,19.988,16.391ZM38.907,5.652,33.782,20.469a6.507,6.507,0,0,1-1.4,2.289,3.411,3.411,0,0,1-2.6.958,5.872,5.872,0,0,1-1.415-.214V21.225l.541.023a2.878,2.878,0,0,0,1.611-.373,2.5,2.5,0,0,0,.874-1.315l.406-1.093L27.289,5.652h3.2l2.676,8.633,2.591-8.633Zm15.654-.238a4.092,4.092,0,0,1,3.128,1.149A5.162,5.162,0,0,1,58.772,10.2v8.324H55.817V10.183a2.426,2.426,0,0,0-.564-1.837,2.435,2.435,0,0,0-1.7-.515,2.407,2.407,0,0,0-1.552.5,2.7,2.7,0,0,0-.886,1.344l.012.271v8.575h-2.96v-8.3a2.457,2.457,0,0,0-.578-1.847A2.369,2.369,0,0,0,45.9,7.83a2.494,2.494,0,0,0-2.414,1.391v9.3H40.524V5.652h2.783L43.4,7A4.343,4.343,0,0,1,44.99,5.822a5.231,5.231,0,0,1,2.123-.406,4.44,4.44,0,0,1,2.116.482A3.22,3.22,0,0,1,50.62,7.387a4.579,4.579,0,0,1,1.653-1.45,4.918,4.918,0,0,1,2.288-.522Zm18.023,7.6H64.2a4.251,4.251,0,0,0,.513,1.748,3.131,3.131,0,0,0,1.16,1.189,3.332,3.332,0,0,0,1.707.428,3.861,3.861,0,0,0,3.211-1.569l1.582,1.534a5.546,5.546,0,0,1-1.948,1.724,6.158,6.158,0,0,1-3.02.69,6.425,6.425,0,0,1-3.282-.812,5.523,5.523,0,0,1-2.153-2.23,6.685,6.685,0,0,1-.75-3.175v-.487a7.631,7.631,0,0,1,.762-3.491,5.542,5.542,0,0,1,5.09-3.146,5.534,5.534,0,0,1,3.054.79,4.842,4.842,0,0,1,1.85,2.23,8.388,8.388,0,0,1,.613,3.324Zm-2.925-2.366A3.561,3.561,0,0,0,68.983,8.6a2.278,2.278,0,0,0-1.927-.8,2.384,2.384,0,0,0-1.879.812,4.241,4.241,0,0,0-.916,2.272h5.4Zm11.7-5.233A3.945,3.945,0,0,1,84.387,6.55a5.255,5.255,0,0,1,1.063,3.668v8.3H82.49V10.2a2.483,2.483,0,0,0-.553-1.824,2.335,2.335,0,0,0-1.694-.541,2.772,2.772,0,0,0-1.488.406,2.951,2.951,0,0,0-1.046,1.13v9.153h-2.96V5.652h2.783l.095,1.488a4.712,4.712,0,0,1,1.641-1.279A4.871,4.871,0,0,1,81.36,5.414Zm12,10.893a4.621,4.621,0,0,0,1.011-.119v2.284a6.1,6.1,0,0,1-1.924.285,3.423,3.423,0,0,1-2.476-.869,3.7,3.7,0,0,1-.907-2.771V7.84h-2.09V5.652h2.09V2.513h2.962V5.652h2.26V7.84h-2.26v7.076a1.431,1.431,0,0,0,.333,1.1A1.489,1.489,0,0,0,93.358,16.307Z" transform="translate(-0.283 -0.254)"/>
          <path id="Path_84" data-name="Path 84" d="M93.88,18.518H90.811V12.929l.3-7.693L86.066,18.518h-2.2L78.822,5.247l.308,7.682v5.589H76.054V1.2h4l4.924,13.175L89.883,1.2h4Z" transform="translate(26.464 -0.253)"/>
          <path id="Path_85" data-name="Path 85" d="M102.62,13.26H94.231a4.251,4.251,0,0,0,.511,1.748A3.131,3.131,0,0,0,95.9,16.2a3.328,3.328,0,0,0,1.706.428,3.857,3.857,0,0,0,3.211-1.569L102.4,16.59a5.548,5.548,0,0,1-1.944,1.724,6.163,6.163,0,0,1-3.021.69,6.423,6.423,0,0,1-3.281-.812A5.523,5.523,0,0,1,92,15.959a6.683,6.683,0,0,1-.75-3.175V12.3a7.632,7.632,0,0,1,.762-3.491A5.538,5.538,0,0,1,97.1,5.66a5.535,5.535,0,0,1,3.056.8,4.85,4.85,0,0,1,1.855,2.23,8.419,8.419,0,0,1,.612,3.324Zm-2.925-2.366a3.542,3.542,0,0,0-.676-2.051,2.276,2.276,0,0,0-1.927-.8,2.38,2.38,0,0,0-1.878.812A4.231,4.231,0,0,0,94.3,11.12h5.4Zm10.143,5.66a4.626,4.626,0,0,0,1.011-.119v2.284a6.087,6.087,0,0,1-1.925.285,3.423,3.423,0,0,1-2.475-.869,3.7,3.7,0,0,1-.9-2.771V8.086h-2.092V5.9h2.092V2.76H108.5V5.9h2.26V8.086H108.5v7.076a1.432,1.432,0,0,0,.333,1.1A1.488,1.488,0,0,0,109.838,16.553ZM119.412,5.66q4.195,0,4.194,4.841v8.264h-2.96V10.477a2.552,2.552,0,0,0-.553-1.85,2.311,2.311,0,0,0-1.7-.552,2.841,2.841,0,0,0-1.5.392,2.907,2.907,0,0,0-1.04,1.093v9.2h-2.962V.5h2.962V7.3a4.647,4.647,0,0,1,1.575-1.218,4.589,4.589,0,0,1,1.983-.423Zm6.544,6.553a7.644,7.644,0,0,1,.72-3.365,5.547,5.547,0,0,1,2.076-2.337,5.871,5.871,0,0,1,3.186-.851,5.955,5.955,0,0,1,3.217.851,5.537,5.537,0,0,1,2.081,2.337,7.644,7.644,0,0,1,.72,3.365v.25a7.644,7.644,0,0,1-.72,3.365,5.506,5.506,0,0,1-2.08,2.331,6.494,6.494,0,0,1-6.4,0,5.492,5.492,0,0,1-2.081-2.331,7.644,7.644,0,0,1-.72-3.365Zm2.962.25a5.386,5.386,0,0,0,.76,3,2.546,2.546,0,0,0,2.284,1.165,2.6,2.6,0,0,0,1.694-.553,3.232,3.232,0,0,0,1.011-1.488,6.388,6.388,0,0,0,.327-2.116v-.25a6.392,6.392,0,0,0-.327-2.111,3.252,3.252,0,0,0-1.016-1.5,2.636,2.636,0,0,0-1.713-.559,2.571,2.571,0,0,0-1.689.559,3.3,3.3,0,0,0-1,1.5,6.428,6.428,0,0,0-.327,2.111ZM151.114.5V18.765h-2.675l-.143-1.344A4.2,4.2,0,0,1,144.859,19a4.381,4.381,0,0,1-2.667-.844,5.373,5.373,0,0,1-1.759-2.331,8.644,8.644,0,0,1-.618-3.353v-.25a8.987,8.987,0,0,1,.612-3.437,5.178,5.178,0,0,1,1.759-2.307,4.536,4.536,0,0,1,2.706-.821,4.157,4.157,0,0,1,3.27,1.415V.5Zm-5.505,16.078a2.654,2.654,0,0,0,2.545-1.546V9.585a2.629,2.629,0,0,0-2.522-1.509,2.36,2.36,0,0,0-2.165,1.153,5.679,5.679,0,0,0-.708,3v.25a5.615,5.615,0,0,0,.7,2.966A2.342,2.342,0,0,0,145.609,16.578Z" transform="translate(31.826 -0.5)"/>
        </g>
        <g id="Group_45" data-name="Group 45" transform="translate(0 58.559)">
          <g id="Group_37" data-name="Group 37" transform="translate(0.855 1.767)">
            <path id="Path_86" data-name="Path 86" d="M6.1,9.355a10.214,10.214,0,0,1-3.71-1.771A3.434,3.434,0,0,1,1.119,4.819,3.7,3.7,0,0,1,1.77,2.675a4.354,4.354,0,0,1,1.839-1.5A6.505,6.505,0,0,1,6.342.637a6.208,6.208,0,0,1,2.906.641,4.691,4.691,0,0,1,1.894,1.713,4.33,4.33,0,0,1,.649,2.293H9.724a2.866,2.866,0,0,0-.856-2.173,3.518,3.518,0,0,0-2.526-.82,3.543,3.543,0,0,0-2.358.685,2.266,2.266,0,0,0-.8,1.808A1.881,1.881,0,0,0,3.55,5.937a3.269,3.269,0,0,0,1.153.9,11.279,11.279,0,0,0,2.061.76A12.4,12.4,0,0,1,9.644,8.738a4.551,4.551,0,0,1,1.633,1.521,3.882,3.882,0,0,1,.541,2.066,3.665,3.665,0,0,1-.663,2.173A4.208,4.208,0,0,1,9.279,15.94a7.3,7.3,0,0,1-2.832.507,7.383,7.383,0,0,1-2.807-.541,5.209,5.209,0,0,1-2.172-1.6,3.955,3.955,0,0,1-.835-2.53h2.05A2.724,2.724,0,0,0,3.2,13.462,3.042,3.042,0,0,0,4.56,14.477a5.2,5.2,0,0,0,1.887.327,3.974,3.974,0,0,0,2.435-.655,2.131,2.131,0,0,0,.867-1.8A2.343,2.343,0,0,0,9.439,11.1a2.743,2.743,0,0,0-1.095-.909A12.718,12.718,0,0,0,6.1,9.355ZM23.085,4.8V16.236H21.2L21.172,15.1a4.155,4.155,0,0,1-3.351,1.342,3.642,3.642,0,0,1-2.755-1.035,4.535,4.535,0,0,1-1-3.235V4.8h1.975v7.4a2.794,2.794,0,0,0,.587,2.008,2.038,2.038,0,0,0,1.506.586,2.933,2.933,0,0,0,2.977-1.659V4.8Zm8.191-.211a4.01,4.01,0,0,1,2.411.724,4.474,4.474,0,0,1,1.526,2.04,8.271,8.271,0,0,1,.524,3.066v.222a8.055,8.055,0,0,1-.524,3,4.615,4.615,0,0,1-1.526,2.058,3.893,3.893,0,0,1-2.385.752,4.01,4.01,0,0,1-3.355-1.511l-.095,1.3H26.044V0h1.977V6.025A3.971,3.971,0,0,1,31.276,4.588Zm2.484,5.83a5.736,5.736,0,0,0-.713-3.039,2.467,2.467,0,0,0-2.268-1.155,2.851,2.851,0,0,0-1.686.48A3.284,3.284,0,0,0,28.021,8.01v5.006a3.372,3.372,0,0,0,1.095,1.3A2.853,2.853,0,0,0,30.8,14.8a2.457,2.457,0,0,0,2.224-1.157,5.511,5.511,0,0,0,.735-3Zm9.291,5.818a5.057,5.057,0,0,1-1.511.211,2.606,2.606,0,0,1-1.919-.718,3.192,3.192,0,0,1-.724-2.334v-7.1H36.815V4.8H38.9V2.023h1.977V4.8h2.135V6.291H40.874v7.114a1.384,1.384,0,0,0,.338,1.095,1.4,1.4,0,0,0,.92.28,3.559,3.559,0,0,0,.486-.037,3.984,3.984,0,0,0,.423-.08ZM44.468,10.4A6.815,6.815,0,0,1,45.1,7.424a4.861,4.861,0,0,1,4.556-2.832,5.039,5.039,0,0,1,2.77.755,4.957,4.957,0,0,1,1.818,2.077A6.815,6.815,0,0,1,54.88,10.4v.244a6.773,6.773,0,0,1-.635,2.977,5.065,5.065,0,0,1-9.144,0,6.72,6.72,0,0,1-.64-2.977Zm1.977.244a5.933,5.933,0,0,0,.365,2.124A3.4,3.4,0,0,0,47.9,14.3a3.056,3.056,0,0,0,3.542,0,3.411,3.411,0,0,0,1.1-1.528,5.933,5.933,0,0,0,.365-2.124V10.4a5.882,5.882,0,0,0-.371-2.124,3.489,3.489,0,0,0-1.1-1.533,2.8,2.8,0,0,0-1.776-.571,2.76,2.76,0,0,0-1.759.571,3.469,3.469,0,0,0-1.082,1.533,5.946,5.946,0,0,0-.365,2.124Zm15.739,5.592a5.066,5.066,0,0,1-1.511.211,2.6,2.6,0,0,1-1.919-.718,3.191,3.191,0,0,1-.724-2.334v-7.1H55.948V4.8H58.03V2.023h1.977V4.8h2.135V6.291H60.007v7.114a1.384,1.384,0,0,0,.338,1.095,1.4,1.4,0,0,0,.919.28,3.577,3.577,0,0,0,.487-.037,3.887,3.887,0,0,0,.422-.08Zm10.951-2.495a7.626,7.626,0,0,0,.106,1.242,4.715,4.715,0,0,0,.3,1.082v.17H71.475a4.5,4.5,0,0,1-.271-1.195,4.529,4.529,0,0,1-1.422,1.02,4.274,4.274,0,0,1-1.822.386A4.384,4.384,0,0,1,65.93,16a3.356,3.356,0,0,1-1.364-1.218,3.173,3.173,0,0,1-.482-1.713A3.353,3.353,0,0,1,64.721,11a3.8,3.8,0,0,1,1.786-1.275A7.881,7.881,0,0,1,69.24,9.3h1.924V8.389a2.182,2.182,0,0,0-.625-1.64,2.466,2.466,0,0,0-1.782-.6,3.1,3.1,0,0,0-1.268.248,2.154,2.154,0,0,0-.873.667,1.488,1.488,0,0,0-.311.9H64.33A2.717,2.717,0,0,1,64.9,6.347a4.125,4.125,0,0,1,1.606-1.273,5.467,5.467,0,0,1,2.368-.491A5.412,5.412,0,0,1,71.1,5.01,3.32,3.32,0,0,1,72.588,6.3a3.9,3.9,0,0,1,.541,2.109Zm-4.894,1.015a3.362,3.362,0,0,0,2.272-.866,2.88,2.88,0,0,0,.645-.846V10.677H69.551a5.128,5.128,0,0,0-2.59.533,1.728,1.728,0,0,0-.9,1.58,1.985,1.985,0,0,0,.254,1,1.8,1.8,0,0,0,.74.7,2.5,2.5,0,0,0,1.181.258Z" transform="translate(-0.632)" fill="#565d6d"/>
            <rect id="Rectangle_8" data-name="Rectangle 8" width="1.977" height="16.236" transform="translate(75.737)" fill="#565d6d"/>
          </g>
          <path id="Path_87" data-name="Path 87" d="M0,38.959H439.016" transform="translate(0 7.622)" fill="none" stroke="#979797" stroke-linecap="square" stroke-width="1" fill-rule="evenodd"/>
          <text id="_30_000.00" data-name=" ₦30,000.00" transform="translate(288.483 -3.359)" font-size="20" font-family="AvenirNextLTPro-Demi, Avenir Next LT Pro" font-weight="300"><tspan x="40.85" y="22"> </tspan><tspan y="22" font-family="SegoeUI-Semibold, Segoe UI" font-weight="600">₦</tspan><tspan y="22">30,000.00</tspan></text>
          <text id="_30_500.00" data-name=" ₦30,500.00" transform="translate(290.483 208.641)" font-size="20" font-family="AvenirNextLTPro-Demi, Avenir Next LT Pro" font-weight="300"><tspan x="40.85" y="22"> </tspan><tspan y="22" font-family="SegoeUI-Semibold, Segoe UI" font-weight="600">₦</tspan><tspan y="22">30,500.00</tspan></text>
          <text id="_500.00" data-name=" ₦500.00" transform="translate(328.483 65.641)" font-size="20" font-family="AvenirNextLTPro-Regular, Avenir Next LT Pro"><tspan x="31.89" y="22"> </tspan><tspan y="22" font-family="SegoeUI, Segoe UI">₦</tspan><tspan y="22">500.00</tspan></text>
          <text id="_0.00" data-name=" ₦0.00" transform="translate(328.483 141.641)" font-size="20" font-family="AvenirNextLTPro-Regular, Avenir Next LT Pro"><tspan x="55.09" y="22"> </tspan><tspan y="22" font-family="SegoeUI, Segoe UI">₦</tspan><tspan y="22">0.00</tspan></text>
          <g id="Group_39" data-name="Group 39" transform="translate(0 69.12)">
            <path id="Path_90" data-name="Path 90" d="M6.1,9.355a10.214,10.214,0,0,1-3.71-1.771A3.434,3.434,0,0,1,1.119,4.819,3.7,3.7,0,0,1,1.77,2.675a4.354,4.354,0,0,1,1.839-1.5A6.505,6.505,0,0,1,6.342.637a6.208,6.208,0,0,1,2.906.641,4.691,4.691,0,0,1,1.894,1.713,4.33,4.33,0,0,1,.649,2.293H9.724a2.866,2.866,0,0,0-.856-2.173,3.518,3.518,0,0,0-2.526-.82,3.543,3.543,0,0,0-2.358.685,2.266,2.266,0,0,0-.8,1.808A1.881,1.881,0,0,0,3.55,5.937a3.269,3.269,0,0,0,1.153.9,11.279,11.279,0,0,0,2.061.76A12.4,12.4,0,0,1,9.644,8.738a4.551,4.551,0,0,1,1.633,1.521,3.882,3.882,0,0,1,.541,2.066,3.665,3.665,0,0,1-.663,2.173A4.208,4.208,0,0,1,9.279,15.94a7.3,7.3,0,0,1-2.832.507,7.383,7.383,0,0,1-2.807-.541,5.209,5.209,0,0,1-2.172-1.6,3.955,3.955,0,0,1-.835-2.53h2.05A2.724,2.724,0,0,0,3.2,13.462,3.042,3.042,0,0,0,4.56,14.477a5.2,5.2,0,0,0,1.887.327,3.974,3.974,0,0,0,2.435-.655,2.131,2.131,0,0,0,.867-1.8A2.343,2.343,0,0,0,9.439,11.1a2.743,2.743,0,0,0-1.095-.909A12.718,12.718,0,0,0,6.1,9.355Zm13.35-4.767q3.668,0,3.668,4.154v7.494H21.139V8.72a2.684,2.684,0,0,0-.566-1.9,2.256,2.256,0,0,0-1.707-.594,2.817,2.817,0,0,0-1.633.5,3.5,3.5,0,0,0-1.146,1.331v8.184H14.111V0h1.977V6.152a4.244,4.244,0,0,1,3.361-1.564ZM27.206.635a1.153,1.153,0,0,1,.862.317,1.1,1.1,0,0,1,.313.8,1.067,1.067,0,0,1-.313.787,1.161,1.161,0,0,1-.862.311,1.124,1.124,0,0,1-.85-.311,1.082,1.082,0,0,1-.3-.787,1.117,1.117,0,0,1,.3-.8A1.116,1.116,0,0,1,27.206.635Zm-1,15.6V4.8h1.977V16.236ZM36.508,4.588a4.031,4.031,0,0,1,2.422.724,4.457,4.457,0,0,1,1.522,2.04,8.359,8.359,0,0,1,.517,3.066v.222a8.082,8.082,0,0,1-.522,3,4.637,4.637,0,0,1-1.522,2.058,3.871,3.871,0,0,1-2.384.746,4.2,4.2,0,0,1-3.266-1.311v5.5H31.3V4.8h1.8L33.2,6.051a4.041,4.041,0,0,1,3.3-1.463Zm2.484,5.83a6.392,6.392,0,0,0-.333-2.13,3.28,3.28,0,0,0-1.026-1.506,2.641,2.641,0,0,0-1.717-.559,2.868,2.868,0,0,0-1.586.422A3.14,3.14,0,0,0,33.274,7.8v5.507a2.864,2.864,0,0,0,2.664,1.553,2.583,2.583,0,0,0,1.7-.566,3.329,3.329,0,0,0,1.02-1.517,6.428,6.428,0,0,0,.333-2.135Zm9.673-5.83a4.025,4.025,0,0,1,2.421.724,4.438,4.438,0,0,1,1.522,2.04,8.357,8.357,0,0,1,.518,3.066v.222a8.055,8.055,0,0,1-.524,3,4.637,4.637,0,0,1-1.522,2.058,3.866,3.866,0,0,1-2.384.746,4.2,4.2,0,0,1-3.266-1.311v5.5H43.453V4.8h1.8l.107,1.247A4.037,4.037,0,0,1,48.665,4.588Zm2.484,5.83a6.392,6.392,0,0,0-.333-2.13A3.291,3.291,0,0,0,49.79,6.783a2.642,2.642,0,0,0-1.718-.56,2.868,2.868,0,0,0-1.586.422A3.151,3.151,0,0,0,45.43,7.8V13.3a2.866,2.866,0,0,0,2.664,1.553,2.588,2.588,0,0,0,1.7-.566,3.34,3.34,0,0,0,1.02-1.517,6.427,6.427,0,0,0,.333-2.135ZM56.783.635a1.156,1.156,0,0,1,.862.317,1.1,1.1,0,0,1,.311.808,1.071,1.071,0,0,1-.311.787,1.163,1.163,0,0,1-.862.311,1.126,1.126,0,0,1-.851-.311,1.082,1.082,0,0,1-.3-.787,1.116,1.116,0,0,1,.3-.812,1.118,1.118,0,0,1,.856-.313Zm-1,15.6V4.8h1.977V16.236ZM66.209,4.588q3.667,0,3.668,4.154v7.494H67.9V8.72a2.691,2.691,0,0,0-.566-1.9,2.258,2.258,0,0,0-1.707-.594A2.817,2.817,0,0,0,64,6.72,3.508,3.508,0,0,0,62.85,8.052v8.184H60.873V4.8h1.871L62.808,6.2a4.248,4.248,0,0,1,3.4-1.617Zm15.83.211V15.992a5.085,5.085,0,0,1-.613,2.571A4.059,4.059,0,0,1,79.719,20.2a5.482,5.482,0,0,1-2.531.56,6.027,6.027,0,0,1-1.459-.2,5.926,5.926,0,0,1-1.549-.645,3.806,3.806,0,0,1-1.231-1.142l1.026-1.151a3.835,3.835,0,0,0,3.059,1.546,3.014,3.014,0,0,0,2.214-.8,3.054,3.054,0,0,0,.812-2.277V15.1a4,4,0,0,1-3.192,1.342,3.9,3.9,0,0,1-2.373-.752,4.811,4.811,0,0,1-1.575-2.067,7.605,7.605,0,0,1-.556-2.986v-.223a7.9,7.9,0,0,1,.551-3.055,4.616,4.616,0,0,1,1.575-2.046,4.024,4.024,0,0,1,2.4-.729,3.945,3.945,0,0,1,3.266,1.469L80.238,4.8Zm-4.683,10a2.856,2.856,0,0,0,2.706-1.68V7.864a3.18,3.18,0,0,0-1.068-1.2,2.876,2.876,0,0,0-1.621-.441,2.611,2.611,0,0,0-1.707.555,3.213,3.213,0,0,0-1,1.506,6.628,6.628,0,0,0-.323,2.134v.222a6.479,6.479,0,0,0,.323,2.12,3.208,3.208,0,0,0,1,1.488,2.592,2.592,0,0,0,1.691.549Z" transform="translate(0.223 1.649)" fill="#565d6d"/>
            <path id="Path_91" data-name="Path 91" d="M0,35.959H439.016" transform="translate(0 10.504)" fill="none" stroke="#979797" stroke-linecap="square" stroke-width="1" fill-rule="evenodd"/>
          </g>
          <g id="Group_41" data-name="Group 41" transform="translate(0 139.476)">
            <g id="Group_40" data-name="Group 40" transform="translate(0.529 2.495)">
              <path id="Path_93" data-name="Path 93" d="M12.282,2.285H7.345v13.73H5.316V2.285H.391V.625H12.282Z" transform="translate(-0.391 -0.625)" fill="#565d6d"/>
              <path id="Path_94" data-name="Path 94" d="M18.175,12.546a7.627,7.627,0,0,0,.106,1.242,4.788,4.788,0,0,0,.295,1.082v.17H16.514a4.456,4.456,0,0,1-.271-1.195,4.529,4.529,0,0,1-1.422,1.02A4.276,4.276,0,0,1,13,15.252a4.391,4.391,0,0,1-2.029-.449A3.356,3.356,0,0,1,9.6,13.585a3.172,3.172,0,0,1-.48-1.713,3.351,3.351,0,0,1,.63-2.063,3.8,3.8,0,0,1,1.786-1.275,7.876,7.876,0,0,1,2.733-.428H16.2V7.193a2.182,2.182,0,0,0-.612-1.64,2.466,2.466,0,0,0-1.782-.6,3.1,3.1,0,0,0-1.268.248,2.154,2.154,0,0,0-.874.667,1.473,1.473,0,0,0-.311.9H9.369A2.706,2.706,0,0,1,9.94,5.152a4.125,4.125,0,0,1,1.606-1.273,5.463,5.463,0,0,1,2.368-.491,5.412,5.412,0,0,1,2.226.428A3.329,3.329,0,0,1,17.628,5.1a3.9,3.9,0,0,1,.541,2.109Zm-4.9,1.015a3.362,3.362,0,0,0,2.273-.866,2.906,2.906,0,0,0,.645-.846V9.481H14.591a5.128,5.128,0,0,0-2.59.533,1.725,1.725,0,0,0-.9,1.58,1.983,1.983,0,0,0,.253,1,1.814,1.814,0,0,0,.74.7A2.505,2.505,0,0,0,13.279,13.561Z" transform="translate(2.691 0.35)" fill="#565d6d"/>
              <path id="Path_95" data-name="Path 95" d="M24.713,3.547h2.3L23.287,9.192l3.847,5.792H24.862l-2.633-4.3-2.621,4.3h-2.3l3.857-5.792L17.42,3.547H19.7L22.2,7.722Z" transform="translate(5.581 0.406)" fill="#565d6d"/>
            </g>
            <path id="Path_96" data-name="Path 96" d="M0,35.959H439.016" transform="translate(0 10.504)" fill="none" stroke="#979797" stroke-linecap="square" stroke-width="1" fill-rule="evenodd"/>
          </g>
          <g id="Group_44" data-name="Group 44" transform="translate(0 209.209)">
            <g id="Group_42" data-name="Group 42" transform="translate(0.541 1.659)">
              <path id="Path_98" data-name="Path 98" d="M14.176,3.69H8.789V18.518H5.721V3.69H.4V1.2H14.176Z" transform="translate(-0.4 -0.253)"/>
              <path id="Path_99" data-name="Path 99" d="M10.2,11.623a7.613,7.613,0,0,1,.72-3.365A5.547,5.547,0,0,1,13,5.922a5.871,5.871,0,0,1,3.186-.851,5.942,5.942,0,0,1,3.213.851,5.538,5.538,0,0,1,2.085,2.337,7.632,7.632,0,0,1,.718,3.365v.25a7.632,7.632,0,0,1-.718,3.365A5.51,5.51,0,0,1,19.41,17.57a5.926,5.926,0,0,1-3.2.844,5.953,5.953,0,0,1-3.205-.844,5.489,5.489,0,0,1-2.081-2.331,7.614,7.614,0,0,1-.725-3.365Zm2.962.25a5.39,5.39,0,0,0,.76,3,2.546,2.546,0,0,0,2.284,1.165,2.6,2.6,0,0,0,1.706-.553,3.227,3.227,0,0,0,1.011-1.488,6.417,6.417,0,0,0,.327-2.116v-.25a6.435,6.435,0,0,0-.327-2.111,3.26,3.26,0,0,0-1.016-1.5,2.636,2.636,0,0,0-1.713-.559,2.571,2.571,0,0,0-1.689.559,3.3,3.3,0,0,0-1.012,1.5,6.435,6.435,0,0,0-.326,2.111Zm16.4,4.09a4.646,4.646,0,0,0,1.011-.119v2.284a6.1,6.1,0,0,1-1.927.285,3.42,3.42,0,0,1-2.473-.869,3.7,3.7,0,0,1-.9-2.771V7.5H23.18V5.309h2.093V2.17h2.96V5.309H30.5V7.5h-2.26v7.076a1.431,1.431,0,0,0,.333,1.1A1.488,1.488,0,0,0,29.566,15.964Zm13.295-.785a6.656,6.656,0,0,0,.488,2.8v.2H40.327a5.261,5.261,0,0,1-.333-1.2,4.6,4.6,0,0,1-1.452,1.047,4.5,4.5,0,0,1-1.914.392,4.988,4.988,0,0,1-2.26-.5,3.827,3.827,0,0,1-1.557-1.38,3.607,3.607,0,0,1-.557-1.974,3.637,3.637,0,0,1,1.526-3.15,7.366,7.366,0,0,1,4.33-1.095H39.9V9.484a2.2,2.2,0,0,0-.559-1.6,2.2,2.2,0,0,0-1.652-.576,2.757,2.757,0,0,0-1.154.226,1.831,1.831,0,0,0-.773.618,1.5,1.5,0,0,0-.271.879H32.525a3.248,3.248,0,0,1,.662-1.951,4.609,4.609,0,0,1,1.879-1.463,6.688,6.688,0,0,1,2.789-.553,6.359,6.359,0,0,1,2.6.5,3.924,3.924,0,0,1,1.767,1.5A4.453,4.453,0,0,1,42.86,9.5Zm-5.661.869a3.112,3.112,0,0,0,1.648-.442A2.831,2.831,0,0,0,39.9,14.546v-2.4H38.353a4.079,4.079,0,0,0-2.343.559,1.808,1.808,0,0,0-.8,1.569,1.676,1.676,0,0,0,.522,1.279,2.048,2.048,0,0,0,1.463.494Z" transform="translate(3.059 0.09)"/>
              <rect id="Rectangle_9" data-name="Rectangle 9" width="2.96" height="18.265" transform="translate(49.083 0)"/>
            </g>
            <path id="Path_100" data-name="Path 100" d="M0,37.959H439.016" transform="translate(0 7.774)" fill="none" stroke="#979797" stroke-linecap="square" stroke-width="1" fill-rule="evenodd"/>
          </g>
        </g>
      </g>
      <g id="Group_49" data-name="Group 49" transform="translate(58.767 491.081)">
        <path id="Path_103" data-name="Path 103" d="M307.13,8.118A8.118,8.118,0,0,0,299.012,0H8.118A8.118,8.118,0,0,0,0,8.118V71.709a8.118,8.118,0,0,0,8.118,8.118H299.012a8.118,8.118,0,0,0,8.118-8.118Z" transform="translate(0 0)" fill="#4f6ef7" fill-rule="evenodd"/>
        <g id="Group_48" data-name="Group 48" transform="translate(71.709 24.083)">
          <path id="Path_108" data-name="Path 108" d="M4.583,5.659a5.476,5.476,0,0,1,2.356.464A3.4,3.4,0,0,1,8.426,7.411a3.55,3.55,0,0,1,.507,1.9,3.673,3.673,0,0,1-.5,1.967,3.163,3.163,0,0,1-1.477,1.238,5.942,5.942,0,0,1-2.373.423H1.652v4.7H0V5.659Zm0,6a2.879,2.879,0,0,0,2.04-.625,2.231,2.231,0,0,0,.66-1.7A2.5,2.5,0,0,0,7,8.14,2.084,2.084,0,0,0,6.1,7.277a3.206,3.206,0,0,0-1.521-.326H1.652v4.706ZM17.389,15.7a5.709,5.709,0,0,0,.085.966,3.545,3.545,0,0,0,.239.844v.135H16.052a3.4,3.4,0,0,1-.222-.93,3.654,3.654,0,0,1-1.146.794,3.541,3.541,0,0,1-1.469.3,3.634,3.634,0,0,1-1.624-.35,2.671,2.671,0,0,1-1.1-.947,2.41,2.41,0,0,1-.387-1.334,2.553,2.553,0,0,1,.507-1.6,3.05,3.05,0,0,1,1.43-1,6.519,6.519,0,0,1,2.2-.334h1.551v-.709a1.67,1.67,0,0,0-.5-1.28A2.03,2.03,0,0,0,13.86,9.79a2.563,2.563,0,0,0-1.023.193,1.722,1.722,0,0,0-.7.518,1.124,1.124,0,0,0-.252.7h-1.59a2.065,2.065,0,0,1,.46-1.26,3.3,3.3,0,0,1,1.288-.992,4.539,4.539,0,0,1,1.908-.382,4.485,4.485,0,0,1,1.793.333,2.652,2.652,0,0,1,1.206,1,2.955,2.955,0,0,1,.434,1.641Zm-3.944.79a2.775,2.775,0,0,0,1.019-.185,2.661,2.661,0,0,0,.812-.49,2.235,2.235,0,0,0,.52-.659V13.311H14.5a4.251,4.251,0,0,0-2.088.415,1.338,1.338,0,0,0-.724,1.23,1.515,1.515,0,0,0,.2.782,1.45,1.45,0,0,0,.6.541,2.069,2.069,0,0,0,.955.208ZM26.4,8.736,22.7,19.018a4.5,4.5,0,0,1-.984,1.559,2.324,2.324,0,0,1-1.751.663A3.122,3.122,0,0,1,19.5,21.2a4.271,4.271,0,0,1-.423-.095V19.883c.062.012.135.022.212.03a2.463,2.463,0,0,0,1.469-.313,2.29,2.29,0,0,0,.729-1.141l.349-.913-3.3-8.811h1.739L22.557,15.4l2.138-6.666Zm16.618,0-2.675,8.9H39.052L36.82,10.917,34.637,17.64H33.35l-2.672-8.9h1.584l1.806,6.608,2.138-6.608h1.287l2.173,6.757,1.771-6.757Zm2.235-3.247a.947.947,0,0,1,.694.246.84.84,0,0,1,.25.626.812.812,0,0,1-.25.613.961.961,0,0,1-.694.242.928.928,0,0,1-.686-.242.831.831,0,0,1-.244-.613.856.856,0,0,1,.244-.626.919.919,0,0,1,.686-.241Zm-.812,12.146v-8.9H46.03v8.9Zm7.7,0a4.207,4.207,0,0,1-1.218.165,2.142,2.142,0,0,1-1.546-.56,2.436,2.436,0,0,1-.583-1.818V9.9H47.115V8.736h1.679V6.571h1.592V8.736h1.721V9.9H50.387v5.538a1.054,1.054,0,0,0,.271.852,1.156,1.156,0,0,0,.74.218,2.975,2.975,0,0,0,.392-.028,3.431,3.431,0,0,0,.341-.062Zm5.787-9.065q2.958,0,2.958,3.236V17.64H59.292v-5.85a2.049,2.049,0,0,0-.456-1.482,1.86,1.86,0,0,0-1.376-.461,2.338,2.338,0,0,0-1.316.387,2.758,2.758,0,0,0-.924,1.038V17.64H53.627V5H55.22V9.79a3.465,3.465,0,0,1,1.193-.9,3.588,3.588,0,0,1,1.515-.317Z" transform="translate(0 1.742)" fill="#fafafa" fill-rule="evenodd"/>
          <text id="Crypto" transform="translate(70.774 -5.914)" fill="#fff" font-size="32" font-family="AvenirNextLTPro-Demi, Avenir Next LT Pro" font-weight="300"><tspan x="0" y="31">Crypto</tspan></text>
        </g>
      </g>
      <text id="Supported_Currencies:_Bitcoin_Ethereum_Litecoin" data-name="Supported Currencies: Bitcoin, Ethereum &amp; Litecoin" transform="translate(59.25 619.25)" fill="#4f6ef7" font-size="18" font-family="AvenirNextLTPro-Regular, Avenir Next LT Pro"><tspan x="0" y="19" fill="#000">Supported Currencies:</tspan><tspan y="19" fill="#4f6ef7"> </tspan><tspan y="19" fill="#4f6ef7" font-size="20" font-family="AvenirNextLTPro-Demi, Avenir Next LT Pro" font-weight="300">Bitcoin, Ethereum &amp; Litecoin</tspan></text>
    </g>
    <g id="_2" data-name="2" transform="translate(430 -91)">
      <g transform="matrix(1, 0, 0, 1, -430, 91)" filter="url(#Path_114)">
        <path id="Path_114-2" data-name="Path 114" d="M10.059.25H566.141a9.809,9.809,0,0,1,9.809,9.809V701.441a9.809,9.809,0,0,1-9.809,9.809H10.059A9.809,9.809,0,0,1,.25,701.441V10.059A9.809,9.809,0,0,1,10.059.25Z" transform="translate(671.75 93.75)" fill="#4f6ef7" stroke="rgba(0,0,0,0.17)" stroke-width="0.5" fill-rule="evenodd"/>
      </g>
      <g id="Ram" transform="translate(277.576 253)">
        <rect id="Rectangle_224" data-name="Rectangle 224" width="15" height="15" transform="translate(32.424 32)"/>
        <rect id="Rectangle_225" data-name="Rectangle 225" width="15" height="15" transform="translate(47.424 32)"/>
        <rect id="Rectangle_226" data-name="Rectangle 226" width="15" height="15" transform="translate(62.424 32)"/>
        <rect id="Rectangle_227" data-name="Rectangle 227" width="14" height="15" transform="translate(77.424 32)"/>
        <rect id="Rectangle_228" data-name="Rectangle 228" width="15" height="15" transform="translate(91.424 32)"/>
        <rect id="Rectangle_229" data-name="Rectangle 229" width="15" height="15" transform="translate(106.424 32)"/>
        <rect id="Rectangle_230" data-name="Rectangle 230" width="15" height="15" transform="translate(121.424 32)"/>
        <rect id="Rectangle_231" data-name="Rectangle 231" width="15" height="15" transform="translate(181.424 32)"/>
        <rect id="Rectangle_232" data-name="Rectangle 232" width="15" height="15" transform="translate(210.424 32)"/>
        <rect id="Rectangle_233" data-name="Rectangle 233" width="15" height="15" transform="translate(270.424 32)"/>
        <rect id="Rectangle_234" data-name="Rectangle 234" width="15" height="15" transform="translate(314.424 32)"/>
        <rect id="Rectangle_235" data-name="Rectangle 235" width="15" height="15" transform="translate(329.424 32)"/>
        <rect id="Rectangle_236" data-name="Rectangle 236" width="15" height="15" transform="translate(360.424 32)"/>
        <rect id="Rectangle_237" data-name="Rectangle 237" width="15" height="15" transform="translate(375.424 32)"/>
        <rect id="Rectangle_238" data-name="Rectangle 238" width="15" height="15" transform="translate(390.424 32)"/>
        <rect id="Rectangle_239" data-name="Rectangle 239" width="15" height="15" transform="translate(405.424 32)"/>
        <rect id="Rectangle_240" data-name="Rectangle 240" width="14" height="15" transform="translate(420.424 32)"/>
        <rect id="Rectangle_241" data-name="Rectangle 241" width="15" height="15" transform="translate(434.424 32)"/>
        <rect id="Rectangle_242" data-name="Rectangle 242" width="15" height="15" transform="translate(449.424 32)"/>
        <rect id="Rectangle_243" data-name="Rectangle 243" width="15" height="15" transform="translate(32.424 47)"/>
        <rect id="Rectangle_244" data-name="Rectangle 244" width="15" height="15" transform="translate(121.424 47)"/>
        <rect id="Rectangle_245" data-name="Rectangle 245" width="15" height="15" transform="translate(151.424 47)"/>
        <rect id="Rectangle_246" data-name="Rectangle 246" width="15" height="15" transform="translate(181.424 47)"/>
        <rect id="Rectangle_247" data-name="Rectangle 247" width="15" height="15" transform="translate(255.424 47)"/>
        <rect id="Rectangle_248" data-name="Rectangle 248" width="15" height="15" transform="translate(329.424 47)"/>
        <rect id="Rectangle_249" data-name="Rectangle 249" width="15" height="15" transform="translate(360.424 47)"/>
        <rect id="Rectangle_250" data-name="Rectangle 250" width="15" height="15" transform="translate(449.424 47)"/>
        <rect id="Rectangle_251" data-name="Rectangle 251" width="15" height="15" transform="translate(32.424 62)"/>
        <rect id="Rectangle_252" data-name="Rectangle 252" width="15" height="15" transform="translate(62.424 62)"/>
        <rect id="Rectangle_253" data-name="Rectangle 253" width="14" height="15" transform="translate(77.424 62)"/>
        <rect id="Rectangle_254" data-name="Rectangle 254" width="15" height="15" transform="translate(91.424 62)"/>
        <rect id="Rectangle_255" data-name="Rectangle 255" width="15" height="15" transform="translate(121.424 62)"/>
        <rect id="Rectangle_256" data-name="Rectangle 256" width="15" height="15" transform="translate(210.424 62)"/>
        <rect id="Rectangle_257" data-name="Rectangle 257" width="15" height="15" transform="translate(240.424 62)"/>
        <rect id="Rectangle_258" data-name="Rectangle 258" width="14" height="15" transform="translate(300.424 62)"/>
        <rect id="Rectangle_259" data-name="Rectangle 259" width="15" height="15" transform="translate(329.424 62)"/>
        <rect id="Rectangle_260" data-name="Rectangle 260" width="15" height="15" transform="translate(360.424 62)"/>
        <rect id="Rectangle_261" data-name="Rectangle 261" width="15" height="15" transform="translate(390.424 62)"/>
        <rect id="Rectangle_262" data-name="Rectangle 262" width="15" height="15" transform="translate(405.424 62)"/>
        <rect id="Rectangle_263" data-name="Rectangle 263" width="14" height="15" transform="translate(420.424 62)"/>
        <rect id="Rectangle_264" data-name="Rectangle 264" width="15" height="15" transform="translate(449.424 62)"/>
        <rect id="Rectangle_265" data-name="Rectangle 265" width="15" height="14" transform="translate(32.424 77)"/>
        <rect id="Rectangle_266" data-name="Rectangle 266" width="15" height="14" transform="translate(62.424 77)"/>
        <rect id="Rectangle_267" data-name="Rectangle 267" width="14" height="14" transform="translate(77.424 77)"/>
        <rect id="Rectangle_268" data-name="Rectangle 268" width="15" height="14" transform="translate(91.424 77)"/>
        <rect id="Rectangle_269" data-name="Rectangle 269" width="15" height="14" transform="translate(121.424 77)"/>
        <rect id="Rectangle_270" data-name="Rectangle 270" width="15" height="14" transform="translate(151.424 77)"/>
        <rect id="Rectangle_271" data-name="Rectangle 271" width="15" height="14" transform="translate(166.424 77)"/>
        <rect id="Rectangle_272" data-name="Rectangle 272" width="15" height="14" transform="translate(181.424 77)"/>
        <rect id="Rectangle_273" data-name="Rectangle 273" width="15" height="14" transform="translate(210.424 77)"/>
        <rect id="Rectangle_274" data-name="Rectangle 274" width="15" height="14" transform="translate(225.424 77)"/>
        <rect id="Rectangle_275" data-name="Rectangle 275" width="15" height="14" transform="translate(240.424 77)"/>
        <rect id="Rectangle_276" data-name="Rectangle 276" width="15" height="14" transform="translate(255.424 77)"/>
        <rect id="Rectangle_277" data-name="Rectangle 277" width="15" height="14" transform="translate(270.424 77)"/>
        <rect id="Rectangle_278" data-name="Rectangle 278" width="15" height="14" transform="translate(285.424 77)"/>
        <rect id="Rectangle_279" data-name="Rectangle 279" width="14" height="14" transform="translate(300.424 77)"/>
        <rect id="Rectangle_280" data-name="Rectangle 280" width="15" height="14" transform="translate(360.424 77)"/>
        <rect id="Rectangle_281" data-name="Rectangle 281" width="15" height="14" transform="translate(390.424 77)"/>
        <rect id="Rectangle_282" data-name="Rectangle 282" width="15" height="14" transform="translate(405.424 77)"/>
        <rect id="Rectangle_283" data-name="Rectangle 283" width="14" height="14" transform="translate(420.424 77)"/>
        <rect id="Rectangle_284" data-name="Rectangle 284" width="15" height="14" transform="translate(449.424 77)"/>
        <rect id="Rectangle_285" data-name="Rectangle 285" width="15" height="15" transform="translate(32.424 91)"/>
        <rect id="Rectangle_286" data-name="Rectangle 286" width="15" height="15" transform="translate(62.424 91)"/>
        <rect id="Rectangle_287" data-name="Rectangle 287" width="14" height="15" transform="translate(77.424 91)"/>
        <rect id="Rectangle_288" data-name="Rectangle 288" width="15" height="15" transform="translate(91.424 91)"/>
        <rect id="Rectangle_289" data-name="Rectangle 289" width="15" height="15" transform="translate(121.424 91)"/>
        <rect id="Rectangle_290" data-name="Rectangle 290" width="15" height="15" transform="translate(166.424 91)"/>
        <rect id="Rectangle_291" data-name="Rectangle 291" width="15" height="15" transform="translate(225.424 91)"/>
        <rect id="Rectangle_292" data-name="Rectangle 292" width="15" height="15" transform="translate(270.424 91)"/>
        <rect id="Rectangle_293" data-name="Rectangle 293" width="15" height="15" transform="translate(285.424 91)"/>
        <rect id="Rectangle_294" data-name="Rectangle 294" width="14" height="15" transform="translate(300.424 91)"/>
        <rect id="Rectangle_295" data-name="Rectangle 295" width="15" height="15" transform="translate(314.424 91)"/>
        <rect id="Rectangle_296" data-name="Rectangle 296" width="15" height="15" transform="translate(329.424 91)"/>
        <rect id="Rectangle_297" data-name="Rectangle 297" width="15" height="15" transform="translate(360.424 91)"/>
        <rect id="Rectangle_298" data-name="Rectangle 298" width="15" height="15" transform="translate(390.424 91)"/>
        <rect id="Rectangle_299" data-name="Rectangle 299" width="15" height="15" transform="translate(405.424 91)"/>
        <rect id="Rectangle_300" data-name="Rectangle 300" width="14" height="15" transform="translate(420.424 91)"/>
        <rect id="Rectangle_301" data-name="Rectangle 301" width="15" height="15" transform="translate(449.424 91)"/>
        <rect id="Rectangle_302" data-name="Rectangle 302" width="15" height="15" transform="translate(32.424 106)"/>
        <rect id="Rectangle_303" data-name="Rectangle 303" width="15" height="15" transform="translate(121.424 106)"/>
        <rect id="Rectangle_304" data-name="Rectangle 304" width="15" height="15" transform="translate(151.424 106)"/>
        <rect id="Rectangle_305" data-name="Rectangle 305" width="15" height="15" transform="translate(166.424 106)"/>
        <rect id="Rectangle_306" data-name="Rectangle 306" width="14" height="15" transform="translate(196.424 106)"/>
        <rect id="Rectangle_307" data-name="Rectangle 307" width="15" height="15" transform="translate(210.424 106)"/>
        <rect id="Rectangle_308" data-name="Rectangle 308" width="15" height="15" transform="translate(225.424 106)"/>
        <rect id="Rectangle_309" data-name="Rectangle 309" width="15" height="15" transform="translate(240.424 106)"/>
        <rect id="Rectangle_310" data-name="Rectangle 310" width="15" height="15" transform="translate(255.424 106)"/>
        <rect id="Rectangle_311" data-name="Rectangle 311" width="15" height="15" transform="translate(285.424 106)"/>
        <rect id="Rectangle_312" data-name="Rectangle 312" width="15" height="15" transform="translate(360.424 106)"/>
        <rect id="Rectangle_313" data-name="Rectangle 313" width="15" height="15" transform="translate(449.424 106)"/>
        <rect id="Rectangle_314" data-name="Rectangle 314" width="15" height="15" transform="translate(32.424 121)"/>
        <rect id="Rectangle_315" data-name="Rectangle 315" width="15" height="15" transform="translate(47.424 121)"/>
        <rect id="Rectangle_316" data-name="Rectangle 316" width="15" height="15" transform="translate(62.424 121)"/>
        <rect id="Rectangle_317" data-name="Rectangle 317" width="14" height="15" transform="translate(77.424 121)"/>
        <rect id="Rectangle_318" data-name="Rectangle 318" width="15" height="15" transform="translate(91.424 121)"/>
        <rect id="Rectangle_319" data-name="Rectangle 319" width="15" height="15" transform="translate(106.424 121)"/>
        <rect id="Rectangle_320" data-name="Rectangle 320" width="15" height="15" transform="translate(121.424 121)"/>
        <rect id="Rectangle_321" data-name="Rectangle 321" width="15" height="15" transform="translate(151.424 121)"/>
        <rect id="Rectangle_322" data-name="Rectangle 322" width="15" height="15" transform="translate(181.424 121)"/>
        <rect id="Rectangle_323" data-name="Rectangle 323" width="15" height="15" transform="translate(210.424 121)"/>
        <rect id="Rectangle_324" data-name="Rectangle 324" width="15" height="15" transform="translate(240.424 121)"/>
        <rect id="Rectangle_325" data-name="Rectangle 325" width="15" height="15" transform="translate(270.424 121)"/>
        <rect id="Rectangle_326" data-name="Rectangle 326" width="14" height="15" transform="translate(300.424 121)"/>
        <rect id="Rectangle_327" data-name="Rectangle 327" width="15" height="15" transform="translate(329.424 121)"/>
        <rect id="Rectangle_328" data-name="Rectangle 328" width="15" height="15" transform="translate(360.424 121)"/>
        <rect id="Rectangle_329" data-name="Rectangle 329" width="15" height="15" transform="translate(375.424 121)"/>
        <rect id="Rectangle_330" data-name="Rectangle 330" width="15" height="15" transform="translate(390.424 121)"/>
        <rect id="Rectangle_331" data-name="Rectangle 331" width="15" height="15" transform="translate(405.424 121)"/>
        <rect id="Rectangle_332" data-name="Rectangle 332" width="14" height="15" transform="translate(420.424 121)"/>
        <rect id="Rectangle_333" data-name="Rectangle 333" width="15" height="15" transform="translate(434.424 121)"/>
        <rect id="Rectangle_334" data-name="Rectangle 334" width="15" height="15" transform="translate(449.424 121)"/>
        <rect id="Rectangle_335" data-name="Rectangle 335" width="15" height="16" transform="translate(166.424 136)"/>
        <rect id="Rectangle_336" data-name="Rectangle 336" width="15" height="16" transform="translate(181.424 136)"/>
        <rect id="Rectangle_337" data-name="Rectangle 337" width="14" height="16" transform="translate(196.424 136)"/>
        <rect id="Rectangle_338" data-name="Rectangle 338" width="15" height="16" transform="translate(255.424 136)"/>
        <rect id="Rectangle_339" data-name="Rectangle 339" width="15" height="16" transform="translate(270.424 136)"/>
        <rect id="Rectangle_340" data-name="Rectangle 340" width="15" height="16" transform="translate(314.424 136)"/>
        <rect id="Rectangle_341" data-name="Rectangle 341" width="15" height="16" transform="translate(329.424 136)"/>
        <rect id="Rectangle_342" data-name="Rectangle 342" width="15" height="15" transform="translate(32.424 152)"/>
        <rect id="Rectangle_343" data-name="Rectangle 343" width="15" height="15" transform="translate(47.424 152)"/>
        <rect id="Rectangle_344" data-name="Rectangle 344" width="15" height="15" transform="translate(62.424 152)"/>
        <rect id="Rectangle_345" data-name="Rectangle 345" width="14" height="15" transform="translate(77.424 152)"/>
        <rect id="Rectangle_346" data-name="Rectangle 346" width="15" height="15" transform="translate(91.424 152)"/>
        <rect id="Rectangle_347" data-name="Rectangle 347" width="15" height="15" transform="translate(121.424 152)"/>
        <rect id="Rectangle_348" data-name="Rectangle 348" width="15" height="15" transform="translate(136.424 152)"/>
        <rect id="Rectangle_349" data-name="Rectangle 349" width="15" height="15" transform="translate(151.424 152)"/>
        <rect id="Rectangle_350" data-name="Rectangle 350" width="15" height="15" transform="translate(166.424 152)"/>
        <rect id="Rectangle_351" data-name="Rectangle 351" width="14" height="15" transform="translate(196.424 152)"/>
        <rect id="Rectangle_352" data-name="Rectangle 352" width="15" height="15" transform="translate(255.424 152)"/>
        <rect id="Rectangle_353" data-name="Rectangle 353" width="15" height="15" transform="translate(285.424 152)"/>
        <rect id="Rectangle_354" data-name="Rectangle 354" width="15" height="15" transform="translate(314.424 152)"/>
        <rect id="Rectangle_355" data-name="Rectangle 355" width="16" height="15" transform="translate(344.424 152)"/>
        <rect id="Rectangle_356" data-name="Rectangle 356" width="15" height="15" transform="translate(375.424 152)"/>
        <rect id="Rectangle_357" data-name="Rectangle 357" width="15" height="15" transform="translate(405.424 152)"/>
        <rect id="Rectangle_358" data-name="Rectangle 358" width="15" height="15" transform="translate(434.424 152)"/>
        <rect id="Rectangle_359" data-name="Rectangle 359" width="15" height="15" transform="translate(47.424 167)"/>
        <rect id="Rectangle_360" data-name="Rectangle 360" width="15" height="15" transform="translate(62.424 167)"/>
        <rect id="Rectangle_361" data-name="Rectangle 361" width="15" height="15" transform="translate(106.424 167)"/>
        <rect id="Rectangle_362" data-name="Rectangle 362" width="15" height="15" transform="translate(136.424 167)"/>
        <rect id="Rectangle_363" data-name="Rectangle 363" width="15" height="15" transform="translate(151.424 167)"/>
        <rect id="Rectangle_364" data-name="Rectangle 364" width="15" height="15" transform="translate(181.424 167)"/>
        <rect id="Rectangle_365" data-name="Rectangle 365" width="15" height="15" transform="translate(210.424 167)"/>
        <rect id="Rectangle_366" data-name="Rectangle 366" width="15" height="15" transform="translate(225.424 167)"/>
        <rect id="Rectangle_367" data-name="Rectangle 367" width="15" height="15" transform="translate(270.424 167)"/>
        <rect id="Rectangle_368" data-name="Rectangle 368" width="15" height="15" transform="translate(314.424 167)"/>
        <rect id="Rectangle_369" data-name="Rectangle 369" width="15" height="15" transform="translate(329.424 167)"/>
        <rect id="Rectangle_370" data-name="Rectangle 370" width="16" height="15" transform="translate(344.424 167)"/>
        <rect id="Rectangle_371" data-name="Rectangle 371" width="15" height="15" transform="translate(360.424 167)"/>
        <rect id="Rectangle_372" data-name="Rectangle 372" width="15" height="15" transform="translate(375.424 167)"/>
        <rect id="Rectangle_373" data-name="Rectangle 373" width="15" height="15" transform="translate(390.424 167)"/>
        <rect id="Rectangle_374" data-name="Rectangle 374" width="15" height="15" transform="translate(449.424 167)"/>
        <rect id="Rectangle_375" data-name="Rectangle 375" width="15" height="15" transform="translate(32.424 182)"/>
        <rect id="Rectangle_376" data-name="Rectangle 376" width="15" height="15" transform="translate(47.424 182)"/>
        <rect id="Rectangle_377" data-name="Rectangle 377" width="14" height="15" transform="translate(77.424 182)"/>
        <rect id="Rectangle_378" data-name="Rectangle 378" width="15" height="15" transform="translate(121.424 182)"/>
        <rect id="Rectangle_379" data-name="Rectangle 379" width="15" height="15" transform="translate(181.424 182)"/>
        <rect id="Rectangle_380" data-name="Rectangle 380" width="15" height="15" transform="translate(225.424 182)"/>
        <rect id="Rectangle_381" data-name="Rectangle 381" width="15" height="15" transform="translate(240.424 182)"/>
        <rect id="Rectangle_382" data-name="Rectangle 382" width="15" height="15" transform="translate(255.424 182)"/>
        <rect id="Rectangle_383" data-name="Rectangle 383" width="15" height="15" transform="translate(285.424 182)"/>
        <rect id="Rectangle_384" data-name="Rectangle 384" width="14" height="15" transform="translate(300.424 182)"/>
        <rect id="Rectangle_385" data-name="Rectangle 385" width="16" height="15" transform="translate(344.424 182)"/>
        <rect id="Rectangle_386" data-name="Rectangle 386" width="15" height="14" transform="translate(32.424 197)"/>
        <rect id="Rectangle_387" data-name="Rectangle 387" width="15" height="14" transform="translate(62.424 197)"/>
        <rect id="Rectangle_388" data-name="Rectangle 388" width="14" height="14" transform="translate(77.424 197)"/>
        <rect id="Rectangle_389" data-name="Rectangle 389" width="15" height="14" transform="translate(106.424 197)"/>
        <rect id="Rectangle_390" data-name="Rectangle 390" width="15" height="14" transform="translate(136.424 197)"/>
        <rect id="Rectangle_391" data-name="Rectangle 391" width="15" height="14" transform="translate(151.424 197)"/>
        <rect id="Rectangle_392" data-name="Rectangle 392" width="15" height="14" transform="translate(210.424 197)"/>
        <rect id="Rectangle_393" data-name="Rectangle 393" width="15" height="14" transform="translate(225.424 197)"/>
        <rect id="Rectangle_394" data-name="Rectangle 394" width="15" height="14" transform="translate(270.424 197)"/>
        <rect id="Rectangle_395" data-name="Rectangle 395" width="14" height="14" transform="translate(300.424 197)"/>
        <rect id="Rectangle_396" data-name="Rectangle 396" width="15" height="14" transform="translate(314.424 197)"/>
        <rect id="Rectangle_397" data-name="Rectangle 397" width="15" height="14" transform="translate(329.424 197)"/>
        <rect id="Rectangle_398" data-name="Rectangle 398" width="16" height="14" transform="translate(344.424 197)"/>
        <rect id="Rectangle_399" data-name="Rectangle 399" width="15" height="14" transform="translate(360.424 197)"/>
        <rect id="Rectangle_400" data-name="Rectangle 400" width="15" height="14" transform="translate(375.424 197)"/>
        <rect id="Rectangle_401" data-name="Rectangle 401" width="15" height="14" transform="translate(405.424 197)"/>
        <rect id="Rectangle_402" data-name="Rectangle 402" width="15" height="14" transform="translate(434.424 197)"/>
        <rect id="Rectangle_403" data-name="Rectangle 403" width="15" height="15" transform="translate(47.424 211)"/>
        <rect id="Rectangle_404" data-name="Rectangle 404" width="15" height="15" transform="translate(62.424 211)"/>
        <rect id="Rectangle_405" data-name="Rectangle 405" width="15" height="15" transform="translate(106.424 211)"/>
        <rect id="Rectangle_406" data-name="Rectangle 406" width="15" height="15" transform="translate(121.424 211)"/>
        <rect id="Rectangle_407" data-name="Rectangle 407" width="15" height="15" transform="translate(136.424 211)"/>
        <rect id="Rectangle_408" data-name="Rectangle 408" width="15" height="15" transform="translate(151.424 211)"/>
        <rect id="Rectangle_409" data-name="Rectangle 409" width="15" height="15" transform="translate(166.424 211)"/>
        <rect id="Rectangle_410" data-name="Rectangle 410" width="15" height="15" transform="translate(181.424 211)"/>
        <rect id="Rectangle_411" data-name="Rectangle 411" width="15" height="15" transform="translate(210.424 211)"/>
        <rect id="Rectangle_412" data-name="Rectangle 412" width="15" height="15" transform="translate(240.424 211)"/>
        <rect id="Rectangle_413" data-name="Rectangle 413" width="15" height="15" transform="translate(285.424 211)"/>
        <rect id="Rectangle_414" data-name="Rectangle 414" width="15" height="15" transform="translate(314.424 211)"/>
        <rect id="Rectangle_415" data-name="Rectangle 415" width="15" height="15" transform="translate(405.424 211)"/>
        <rect id="Rectangle_416" data-name="Rectangle 416" width="14" height="15" transform="translate(420.424 211)"/>
        <rect id="Rectangle_417" data-name="Rectangle 417" width="14" height="15" transform="translate(77.424 226)"/>
        <rect id="Rectangle_418" data-name="Rectangle 418" width="15" height="15" transform="translate(166.424 226)"/>
        <rect id="Rectangle_419" data-name="Rectangle 419" width="15" height="15" transform="translate(270.424 226)"/>
        <rect id="Rectangle_420" data-name="Rectangle 420" width="14" height="15" transform="translate(300.424 226)"/>
        <rect id="Rectangle_421" data-name="Rectangle 421" width="15" height="15" transform="translate(314.424 226)"/>
        <rect id="Rectangle_422" data-name="Rectangle 422" width="16" height="15" transform="translate(344.424 226)"/>
        <rect id="Rectangle_423" data-name="Rectangle 423" width="15" height="15" transform="translate(360.424 226)"/>
        <rect id="Rectangle_424" data-name="Rectangle 424" width="15" height="15" transform="translate(390.424 226)"/>
        <rect id="Rectangle_425" data-name="Rectangle 425" width="15" height="15" transform="translate(449.424 226)"/>
        <rect id="Rectangle_426" data-name="Rectangle 426" width="15" height="15" transform="translate(47.424 241)"/>
        <rect id="Rectangle_427" data-name="Rectangle 427" width="14" height="15" transform="translate(77.424 241)"/>
        <rect id="Rectangle_428" data-name="Rectangle 428" width="15" height="15" transform="translate(106.424 241)"/>
        <rect id="Rectangle_429" data-name="Rectangle 429" width="15" height="15" transform="translate(121.424 241)"/>
        <rect id="Rectangle_430" data-name="Rectangle 430" width="15" height="15" transform="translate(136.424 241)"/>
        <rect id="Rectangle_431" data-name="Rectangle 431" width="15" height="15" transform="translate(151.424 241)"/>
        <rect id="Rectangle_432" data-name="Rectangle 432" width="14" height="15" transform="translate(196.424 241)"/>
        <rect id="Rectangle_433" data-name="Rectangle 433" width="15" height="15" transform="translate(210.424 241)"/>
        <rect id="Rectangle_434" data-name="Rectangle 434" width="15" height="15" transform="translate(255.424 241)"/>
        <rect id="Rectangle_435" data-name="Rectangle 435" width="15" height="15" transform="translate(270.424 241)"/>
        <rect id="Rectangle_436" data-name="Rectangle 436" width="14" height="15" transform="translate(300.424 241)"/>
        <rect id="Rectangle_437" data-name="Rectangle 437" width="15" height="15" transform="translate(329.424 241)"/>
        <rect id="Rectangle_438" data-name="Rectangle 438" width="15" height="15" transform="translate(375.424 241)"/>
        <rect id="Rectangle_439" data-name="Rectangle 439" width="15" height="15" transform="translate(405.424 241)"/>
        <rect id="Rectangle_440" data-name="Rectangle 440" width="14" height="15" transform="translate(420.424 241)"/>
        <rect id="Rectangle_441" data-name="Rectangle 441" width="15" height="15" transform="translate(47.424 256)"/>
        <rect id="Rectangle_442" data-name="Rectangle 442" width="15" height="15" transform="translate(62.424 256)"/>
        <rect id="Rectangle_443" data-name="Rectangle 443" width="15" height="15" transform="translate(106.424 256)"/>
        <rect id="Rectangle_444" data-name="Rectangle 444" width="15" height="15" transform="translate(136.424 256)"/>
        <rect id="Rectangle_445" data-name="Rectangle 445" width="14" height="15" transform="translate(196.424 256)"/>
        <rect id="Rectangle_446" data-name="Rectangle 446" width="15" height="15" transform="translate(240.424 256)"/>
        <rect id="Rectangle_447" data-name="Rectangle 447" width="15" height="15" transform="translate(255.424 256)"/>
        <rect id="Rectangle_448" data-name="Rectangle 448" width="15" height="15" transform="translate(270.424 256)"/>
        <rect id="Rectangle_449" data-name="Rectangle 449" width="15" height="15" transform="translate(329.424 256)"/>
        <rect id="Rectangle_450" data-name="Rectangle 450" width="15" height="15" transform="translate(375.424 256)"/>
        <rect id="Rectangle_451" data-name="Rectangle 451" width="15" height="15" transform="translate(390.424 256)"/>
        <rect id="Rectangle_452" data-name="Rectangle 452" width="15" height="15" transform="translate(434.424 256)"/>
        <rect id="Rectangle_453" data-name="Rectangle 453" width="15" height="15" transform="translate(32.424 271)"/>
        <rect id="Rectangle_454" data-name="Rectangle 454" width="15" height="15" transform="translate(47.424 271)"/>
        <rect id="Rectangle_455" data-name="Rectangle 455" width="15" height="15" transform="translate(121.424 271)"/>
        <rect id="Rectangle_456" data-name="Rectangle 456" width="15" height="15" transform="translate(166.424 271)"/>
        <rect id="Rectangle_457" data-name="Rectangle 457" width="14" height="15" transform="translate(196.424 271)"/>
        <rect id="Rectangle_458" data-name="Rectangle 458" width="15" height="15" transform="translate(255.424 271)"/>
        <rect id="Rectangle_459" data-name="Rectangle 459" width="15" height="15" transform="translate(285.424 271)"/>
        <rect id="Rectangle_460" data-name="Rectangle 460" width="15" height="15" transform="translate(375.424 271)"/>
        <rect id="Rectangle_461" data-name="Rectangle 461" width="15" height="15" transform="translate(405.424 271)"/>
        <rect id="Rectangle_462" data-name="Rectangle 462" width="14" height="15" transform="translate(420.424 271)"/>
        <rect id="Rectangle_463" data-name="Rectangle 463" width="15" height="15" transform="translate(32.424 286)"/>
        <rect id="Rectangle_464" data-name="Rectangle 464" width="15" height="15" transform="translate(47.424 286)"/>
        <rect id="Rectangle_465" data-name="Rectangle 465" width="14" height="15" transform="translate(77.424 286)"/>
        <rect id="Rectangle_466" data-name="Rectangle 466" width="15" height="15" transform="translate(151.424 286)"/>
        <rect id="Rectangle_467" data-name="Rectangle 467" width="15" height="15" transform="translate(166.424 286)"/>
        <rect id="Rectangle_468" data-name="Rectangle 468" width="15" height="15" transform="translate(210.424 286)"/>
        <rect id="Rectangle_469" data-name="Rectangle 469" width="15" height="15" transform="translate(225.424 286)"/>
        <rect id="Rectangle_470" data-name="Rectangle 470" width="15" height="15" transform="translate(240.424 286)"/>
        <rect id="Rectangle_471" data-name="Rectangle 471" width="15" height="15" transform="translate(270.424 286)"/>
        <rect id="Rectangle_472" data-name="Rectangle 472" width="15" height="15" transform="translate(285.424 286)"/>
        <rect id="Rectangle_473" data-name="Rectangle 473" width="14" height="15" transform="translate(300.424 286)"/>
        <rect id="Rectangle_474" data-name="Rectangle 474" width="15" height="15" transform="translate(314.424 286)"/>
        <rect id="Rectangle_475" data-name="Rectangle 475" width="15" height="15" transform="translate(329.424 286)"/>
        <rect id="Rectangle_476" data-name="Rectangle 476" width="16" height="15" transform="translate(344.424 286)"/>
        <rect id="Rectangle_477" data-name="Rectangle 477" width="15" height="15" transform="translate(360.424 286)"/>
        <rect id="Rectangle_478" data-name="Rectangle 478" width="15" height="15" transform="translate(375.424 286)"/>
        <rect id="Rectangle_479" data-name="Rectangle 479" width="15" height="15" transform="translate(390.424 286)"/>
        <rect id="Rectangle_480" data-name="Rectangle 480" width="14" height="15" transform="translate(420.424 286)"/>
        <rect id="Rectangle_481" data-name="Rectangle 481" width="15" height="15" transform="translate(449.424 286)"/>
        <rect id="Rectangle_482" data-name="Rectangle 482" width="15" height="14" transform="translate(32.424 301)"/>
        <rect id="Rectangle_483" data-name="Rectangle 483" width="15" height="14" transform="translate(62.424 301)"/>
        <rect id="Rectangle_484" data-name="Rectangle 484" width="14" height="14" transform="translate(77.424 301)"/>
        <rect id="Rectangle_485" data-name="Rectangle 485" width="15" height="14" transform="translate(121.424 301)"/>
        <rect id="Rectangle_486" data-name="Rectangle 486" width="15" height="14" transform="translate(136.424 301)"/>
        <rect id="Rectangle_487" data-name="Rectangle 487" width="15" height="14" transform="translate(181.424 301)"/>
        <rect id="Rectangle_488" data-name="Rectangle 488" width="15" height="14" transform="translate(225.424 301)"/>
        <rect id="Rectangle_489" data-name="Rectangle 489" width="15" height="14" transform="translate(240.424 301)"/>
        <rect id="Rectangle_490" data-name="Rectangle 490" width="15" height="14" transform="translate(255.424 301)"/>
        <rect id="Rectangle_491" data-name="Rectangle 491" width="15" height="14" transform="translate(329.424 301)"/>
        <rect id="Rectangle_492" data-name="Rectangle 492" width="16" height="14" transform="translate(344.424 301)"/>
        <rect id="Rectangle_493" data-name="Rectangle 493" width="15" height="14" transform="translate(360.424 301)"/>
        <rect id="Rectangle_494" data-name="Rectangle 494" width="15" height="14" transform="translate(375.424 301)"/>
        <rect id="Rectangle_495" data-name="Rectangle 495" width="14" height="14" transform="translate(420.424 301)"/>
        <rect id="Rectangle_496" data-name="Rectangle 496" width="15" height="15" transform="translate(32.424 315)"/>
        <rect id="Rectangle_497" data-name="Rectangle 497" width="15" height="15" transform="translate(91.424 315)"/>
        <rect id="Rectangle_498" data-name="Rectangle 498" width="15" height="15" transform="translate(106.424 315)"/>
        <rect id="Rectangle_499" data-name="Rectangle 499" width="15" height="15" transform="translate(136.424 315)"/>
        <rect id="Rectangle_500" data-name="Rectangle 500" width="15" height="15" transform="translate(166.424 315)"/>
        <rect id="Rectangle_501" data-name="Rectangle 501" width="15" height="15" transform="translate(181.424 315)"/>
        <rect id="Rectangle_502" data-name="Rectangle 502" width="15" height="15" transform="translate(210.424 315)"/>
        <rect id="Rectangle_503" data-name="Rectangle 503" width="15" height="15" transform="translate(225.424 315)"/>
        <rect id="Rectangle_504" data-name="Rectangle 504" width="15" height="15" transform="translate(314.424 315)"/>
        <rect id="Rectangle_505" data-name="Rectangle 505" width="16" height="15" transform="translate(344.424 315)"/>
        <rect id="Rectangle_506" data-name="Rectangle 506" width="15" height="15" transform="translate(375.424 315)"/>
        <rect id="Rectangle_507" data-name="Rectangle 507" width="15" height="15" transform="translate(390.424 315)"/>
        <rect id="Rectangle_508" data-name="Rectangle 508" width="15" height="15" transform="translate(434.424 315)"/>
        <rect id="Rectangle_509" data-name="Rectangle 509" width="15" height="15" transform="translate(32.424 330)"/>
        <rect id="Rectangle_510" data-name="Rectangle 510" width="15" height="15" transform="translate(62.424 330)"/>
        <rect id="Rectangle_511" data-name="Rectangle 511" width="15" height="15" transform="translate(91.424 330)"/>
        <rect id="Rectangle_512" data-name="Rectangle 512" width="15" height="15" transform="translate(121.424 330)"/>
        <rect id="Rectangle_513" data-name="Rectangle 513" width="15" height="15" transform="translate(136.424 330)"/>
        <rect id="Rectangle_514" data-name="Rectangle 514" width="15" height="15" transform="translate(151.424 330)"/>
        <rect id="Rectangle_515" data-name="Rectangle 515" width="15" height="15" transform="translate(181.424 330)"/>
        <rect id="Rectangle_516" data-name="Rectangle 516" width="15" height="15" transform="translate(210.424 330)"/>
        <rect id="Rectangle_517" data-name="Rectangle 517" width="15" height="15" transform="translate(240.424 330)"/>
        <rect id="Rectangle_518" data-name="Rectangle 518" width="15" height="15" transform="translate(285.424 330)"/>
        <rect id="Rectangle_519" data-name="Rectangle 519" width="15" height="15" transform="translate(329.424 330)"/>
        <rect id="Rectangle_520" data-name="Rectangle 520" width="16" height="15" transform="translate(344.424 330)"/>
        <rect id="Rectangle_521" data-name="Rectangle 521" width="15" height="15" transform="translate(360.424 330)"/>
        <rect id="Rectangle_522" data-name="Rectangle 522" width="15" height="15" transform="translate(375.424 330)"/>
        <rect id="Rectangle_523" data-name="Rectangle 523" width="15" height="15" transform="translate(390.424 330)"/>
        <rect id="Rectangle_524" data-name="Rectangle 524" width="14" height="15" transform="translate(420.424 330)"/>
        <rect id="Rectangle_525" data-name="Rectangle 525" width="15" height="15" transform="translate(434.424 330)"/>
        <rect id="Rectangle_526" data-name="Rectangle 526" width="15" height="15" transform="translate(449.424 330)"/>
        <rect id="Rectangle_527" data-name="Rectangle 527" width="15" height="15" transform="translate(151.424 345)"/>
        <rect id="Rectangle_528" data-name="Rectangle 528" width="15" height="15" transform="translate(166.424 345)"/>
        <rect id="Rectangle_529" data-name="Rectangle 529" width="15" height="15" transform="translate(181.424 345)"/>
        <rect id="Rectangle_530" data-name="Rectangle 530" width="15" height="15" transform="translate(270.424 345)"/>
        <rect id="Rectangle_531" data-name="Rectangle 531" width="15" height="15" transform="translate(285.424 345)"/>
        <rect id="Rectangle_532" data-name="Rectangle 532" width="14" height="15" transform="translate(300.424 345)"/>
        <rect id="Rectangle_533" data-name="Rectangle 533" width="15" height="15" transform="translate(329.424 345)"/>
        <rect id="Rectangle_534" data-name="Rectangle 534" width="15" height="15" transform="translate(390.424 345)"/>
        <rect id="Rectangle_535" data-name="Rectangle 535" width="15" height="15" transform="translate(405.424 345)"/>
        <rect id="Rectangle_536" data-name="Rectangle 536" width="14" height="15" transform="translate(420.424 345)"/>
        <rect id="Rectangle_537" data-name="Rectangle 537" width="15" height="15" transform="translate(434.424 345)"/>
        <rect id="Rectangle_538" data-name="Rectangle 538" width="15" height="15" transform="translate(449.424 345)"/>
        <rect id="Rectangle_539" data-name="Rectangle 539" width="15" height="15" transform="translate(32.424 360)"/>
        <rect id="Rectangle_540" data-name="Rectangle 540" width="15" height="15" transform="translate(47.424 360)"/>
        <rect id="Rectangle_541" data-name="Rectangle 541" width="15" height="15" transform="translate(62.424 360)"/>
        <rect id="Rectangle_542" data-name="Rectangle 542" width="14" height="15" transform="translate(77.424 360)"/>
        <rect id="Rectangle_543" data-name="Rectangle 543" width="15" height="15" transform="translate(91.424 360)"/>
        <rect id="Rectangle_544" data-name="Rectangle 544" width="15" height="15" transform="translate(106.424 360)"/>
        <rect id="Rectangle_545" data-name="Rectangle 545" width="15" height="15" transform="translate(121.424 360)"/>
        <rect id="Rectangle_546" data-name="Rectangle 546" width="15" height="15" transform="translate(151.424 360)"/>
        <rect id="Rectangle_547" data-name="Rectangle 547" width="15" height="15" transform="translate(181.424 360)"/>
        <rect id="Rectangle_548" data-name="Rectangle 548" width="14" height="15" transform="translate(196.424 360)"/>
        <rect id="Rectangle_549" data-name="Rectangle 549" width="15" height="15" transform="translate(210.424 360)"/>
        <rect id="Rectangle_550" data-name="Rectangle 550" width="15" height="15" transform="translate(255.424 360)"/>
        <rect id="Rectangle_551" data-name="Rectangle 551" width="15" height="15" transform="translate(270.424 360)"/>
        <rect id="Rectangle_552" data-name="Rectangle 552" width="15" height="15" transform="translate(285.424 360)"/>
        <rect id="Rectangle_553" data-name="Rectangle 553" width="14" height="15" transform="translate(300.424 360)"/>
        <rect id="Rectangle_554" data-name="Rectangle 554" width="15" height="15" transform="translate(314.424 360)"/>
        <rect id="Rectangle_555" data-name="Rectangle 555" width="15" height="15" transform="translate(329.424 360)"/>
        <rect id="Rectangle_556" data-name="Rectangle 556" width="15" height="15" transform="translate(360.424 360)"/>
        <rect id="Rectangle_557" data-name="Rectangle 557" width="15" height="15" transform="translate(390.424 360)"/>
        <rect id="Rectangle_558" data-name="Rectangle 558" width="15" height="15" transform="translate(405.424 360)"/>
        <rect id="Rectangle_559" data-name="Rectangle 559" width="14" height="15" transform="translate(420.424 360)"/>
        <rect id="Rectangle_560" data-name="Rectangle 560" width="15" height="15" transform="translate(32.424 375)"/>
        <rect id="Rectangle_561" data-name="Rectangle 561" width="15" height="15" transform="translate(121.424 375)"/>
        <rect id="Rectangle_562" data-name="Rectangle 562" width="15" height="15" transform="translate(166.424 375)"/>
        <rect id="Rectangle_563" data-name="Rectangle 563" width="15" height="15" transform="translate(181.424 375)"/>
        <rect id="Rectangle_564" data-name="Rectangle 564" width="14" height="15" transform="translate(196.424 375)"/>
        <rect id="Rectangle_565" data-name="Rectangle 565" width="15" height="15" transform="translate(240.424 375)"/>
        <rect id="Rectangle_566" data-name="Rectangle 566" width="15" height="15" transform="translate(255.424 375)"/>
        <rect id="Rectangle_567" data-name="Rectangle 567" width="15" height="15" transform="translate(314.424 375)"/>
        <rect id="Rectangle_568" data-name="Rectangle 568" width="15" height="15" transform="translate(329.424 375)"/>
        <rect id="Rectangle_569" data-name="Rectangle 569" width="15" height="15" transform="translate(390.424 375)"/>
        <rect id="Rectangle_570" data-name="Rectangle 570" width="15" height="15" transform="translate(434.424 375)"/>
        <rect id="Rectangle_571" data-name="Rectangle 571" width="15" height="15" transform="translate(449.424 375)"/>
        <rect id="Rectangle_572" data-name="Rectangle 572" width="15" height="15" transform="translate(32.424 390)"/>
        <rect id="Rectangle_573" data-name="Rectangle 573" width="15" height="15" transform="translate(62.424 390)"/>
        <rect id="Rectangle_574" data-name="Rectangle 574" width="14" height="15" transform="translate(77.424 390)"/>
        <rect id="Rectangle_575" data-name="Rectangle 575" width="15" height="15" transform="translate(91.424 390)"/>
        <rect id="Rectangle_576" data-name="Rectangle 576" width="15" height="15" transform="translate(121.424 390)"/>
        <rect id="Rectangle_577" data-name="Rectangle 577" width="15" height="15" transform="translate(151.424 390)"/>
        <rect id="Rectangle_578" data-name="Rectangle 578" width="15" height="15" transform="translate(181.424 390)"/>
        <rect id="Rectangle_579" data-name="Rectangle 579" width="14" height="15" transform="translate(196.424 390)"/>
        <rect id="Rectangle_580" data-name="Rectangle 580" width="15" height="15" transform="translate(255.424 390)"/>
        <rect id="Rectangle_581" data-name="Rectangle 581" width="15" height="15" transform="translate(285.424 390)"/>
        <rect id="Rectangle_582" data-name="Rectangle 582" width="15" height="15" transform="translate(329.424 390)"/>
        <rect id="Rectangle_583" data-name="Rectangle 583" width="16" height="15" transform="translate(344.424 390)"/>
        <rect id="Rectangle_584" data-name="Rectangle 584" width="15" height="15" transform="translate(360.424 390)"/>
        <rect id="Rectangle_585" data-name="Rectangle 585" width="15" height="15" transform="translate(375.424 390)"/>
        <rect id="Rectangle_586" data-name="Rectangle 586" width="15" height="15" transform="translate(390.424 390)"/>
        <rect id="Rectangle_587" data-name="Rectangle 587" width="14" height="15" transform="translate(420.424 390)"/>
        <rect id="Rectangle_588" data-name="Rectangle 588" width="15" height="15" transform="translate(32.424 405)"/>
        <rect id="Rectangle_589" data-name="Rectangle 589" width="15" height="15" transform="translate(62.424 405)"/>
        <rect id="Rectangle_590" data-name="Rectangle 590" width="14" height="15" transform="translate(77.424 405)"/>
        <rect id="Rectangle_591" data-name="Rectangle 591" width="15" height="15" transform="translate(91.424 405)"/>
        <rect id="Rectangle_592" data-name="Rectangle 592" width="15" height="15" transform="translate(121.424 405)"/>
        <rect id="Rectangle_593" data-name="Rectangle 593" width="15" height="15" transform="translate(151.424 405)"/>
        <rect id="Rectangle_594" data-name="Rectangle 594" width="15" height="15" transform="translate(166.424 405)"/>
        <rect id="Rectangle_595" data-name="Rectangle 595" width="15" height="15" transform="translate(181.424 405)"/>
        <rect id="Rectangle_596" data-name="Rectangle 596" width="15" height="15" transform="translate(210.424 405)"/>
        <rect id="Rectangle_597" data-name="Rectangle 597" width="15" height="15" transform="translate(225.424 405)"/>
        <rect id="Rectangle_598" data-name="Rectangle 598" width="15" height="15" transform="translate(240.424 405)"/>
        <rect id="Rectangle_599" data-name="Rectangle 599" width="15" height="15" transform="translate(270.424 405)"/>
        <rect id="Rectangle_600" data-name="Rectangle 600" width="15" height="15" transform="translate(285.424 405)"/>
        <rect id="Rectangle_601" data-name="Rectangle 601" width="15" height="15" transform="translate(329.424 405)"/>
        <rect id="Rectangle_602" data-name="Rectangle 602" width="15" height="15" transform="translate(375.424 405)"/>
        <rect id="Rectangle_603" data-name="Rectangle 603" width="15" height="15" transform="translate(405.424 405)"/>
        <rect id="Rectangle_604" data-name="Rectangle 604" width="14" height="15" transform="translate(420.424 405)"/>
        <rect id="Rectangle_605" data-name="Rectangle 605" width="15" height="15" transform="translate(434.424 405)"/>
        <rect id="Rectangle_606" data-name="Rectangle 606" width="15" height="15" transform="translate(449.424 405)"/>
        <rect id="Rectangle_607" data-name="Rectangle 607" width="15" height="14" transform="translate(32.424 420)"/>
        <rect id="Rectangle_608" data-name="Rectangle 608" width="15" height="14" transform="translate(62.424 420)"/>
        <rect id="Rectangle_609" data-name="Rectangle 609" width="14" height="14" transform="translate(77.424 420)"/>
        <rect id="Rectangle_610" data-name="Rectangle 610" width="15" height="14" transform="translate(91.424 420)"/>
        <rect id="Rectangle_611" data-name="Rectangle 611" width="15" height="14" transform="translate(121.424 420)"/>
        <rect id="Rectangle_612" data-name="Rectangle 612" width="15" height="14" transform="translate(151.424 420)"/>
        <rect id="Rectangle_613" data-name="Rectangle 613" width="15" height="14" transform="translate(181.424 420)"/>
        <rect id="Rectangle_614" data-name="Rectangle 614" width="15" height="14" transform="translate(225.424 420)"/>
        <rect id="Rectangle_615" data-name="Rectangle 615" width="15" height="14" transform="translate(240.424 420)"/>
        <rect id="Rectangle_616" data-name="Rectangle 616" width="15" height="14" transform="translate(255.424 420)"/>
        <rect id="Rectangle_617" data-name="Rectangle 617" width="14" height="14" transform="translate(300.424 420)"/>
        <rect id="Rectangle_618" data-name="Rectangle 618" width="15" height="14" transform="translate(314.424 420)"/>
        <rect id="Rectangle_619" data-name="Rectangle 619" width="15" height="14" transform="translate(329.424 420)"/>
        <rect id="Rectangle_620" data-name="Rectangle 620" width="16" height="14" transform="translate(344.424 420)"/>
        <rect id="Rectangle_621" data-name="Rectangle 621" width="15" height="14" transform="translate(360.424 420)"/>
        <rect id="Rectangle_622" data-name="Rectangle 622" width="15" height="14" transform="translate(375.424 420)"/>
        <rect id="Rectangle_623" data-name="Rectangle 623" width="15" height="14" transform="translate(390.424 420)"/>
        <rect id="Rectangle_624" data-name="Rectangle 624" width="15" height="14" transform="translate(405.424 420)"/>
        <rect id="Rectangle_625" data-name="Rectangle 625" width="14" height="14" transform="translate(420.424 420)"/>
        <rect id="Rectangle_626" data-name="Rectangle 626" width="15" height="14" transform="translate(434.424 420)"/>
        <rect id="Rectangle_627" data-name="Rectangle 627" width="15" height="15" transform="translate(32.424 434)"/>
        <rect id="Rectangle_628" data-name="Rectangle 628" width="15" height="15" transform="translate(121.424 434)"/>
        <rect id="Rectangle_629" data-name="Rectangle 629" width="15" height="15" transform="translate(151.424 434)"/>
        <rect id="Rectangle_630" data-name="Rectangle 630" width="15" height="15" transform="translate(166.424 434)"/>
        <rect id="Rectangle_631" data-name="Rectangle 631" width="15" height="15" transform="translate(181.424 434)"/>
        <rect id="Rectangle_632" data-name="Rectangle 632" width="15" height="15" transform="translate(210.424 434)"/>
        <rect id="Rectangle_633" data-name="Rectangle 633" width="15" height="15" transform="translate(225.424 434)"/>
        <rect id="Rectangle_634" data-name="Rectangle 634" width="15" height="15" transform="translate(329.424 434)"/>
        <rect id="Rectangle_635" data-name="Rectangle 635" width="16" height="15" transform="translate(344.424 434)"/>
        <rect id="Rectangle_636" data-name="Rectangle 636" width="15" height="15" transform="translate(375.424 434)"/>
        <rect id="Rectangle_637" data-name="Rectangle 637" width="15" height="15" transform="translate(405.424 434)"/>
        <rect id="Rectangle_638" data-name="Rectangle 638" width="15" height="15" transform="translate(434.424 434)"/>
        <rect id="Rectangle_639" data-name="Rectangle 639" width="15" height="15" transform="translate(32.424 449)"/>
        <rect id="Rectangle_640" data-name="Rectangle 640" width="15" height="15" transform="translate(47.424 449)"/>
        <rect id="Rectangle_641" data-name="Rectangle 641" width="15" height="15" transform="translate(62.424 449)"/>
        <rect id="Rectangle_642" data-name="Rectangle 642" width="14" height="15" transform="translate(77.424 449)"/>
        <rect id="Rectangle_643" data-name="Rectangle 643" width="15" height="15" transform="translate(91.424 449)"/>
        <rect id="Rectangle_644" data-name="Rectangle 644" width="15" height="15" transform="translate(106.424 449)"/>
        <rect id="Rectangle_645" data-name="Rectangle 645" width="15" height="15" transform="translate(121.424 449)"/>
        <rect id="Rectangle_646" data-name="Rectangle 646" width="15" height="15" transform="translate(151.424 449)"/>
        <rect id="Rectangle_647" data-name="Rectangle 647" width="15" height="15" transform="translate(210.424 449)"/>
        <rect id="Rectangle_648" data-name="Rectangle 648" width="15" height="15" transform="translate(240.424 449)"/>
        <rect id="Rectangle_649" data-name="Rectangle 649" width="15" height="15" transform="translate(255.424 449)"/>
        <rect id="Rectangle_650" data-name="Rectangle 650" width="15" height="15" transform="translate(270.424 449)"/>
        <rect id="Rectangle_651" data-name="Rectangle 651" width="15" height="15" transform="translate(285.424 449)"/>
        <rect id="Rectangle_652" data-name="Rectangle 652" width="15" height="15" transform="translate(314.424 449)"/>
        <rect id="Rectangle_653" data-name="Rectangle 653" width="15" height="15" transform="translate(375.424 449)"/>
        <rect id="Rectangle_654" data-name="Rectangle 654" width="15" height="15" transform="translate(390.424 449)"/>
        <rect id="Rectangle_655" data-name="Rectangle 655" width="15" height="15" transform="translate(405.424 449)"/>
        <rect id="Rectangle_656" data-name="Rectangle 656" width="14" height="15" transform="translate(420.424 449)"/>
      </g>
      <path id="Path_116" data-name="Path 116" d="M76.084,0A76.084,76.084,0,1,1,0,76.084,76.084,76.084,0,0,1,76.084,0Z" transform="translate(448.897 424.321)" fill="#fff"/>
      <text id="qwyd7278ehje99j3jk2kflsu73k34l" transform="translate(335 821)" fill="#fff" font-size="24" font-family="Rubik-Regular, Rubik"><tspan x="0" y="0">qwyd7278ehje99j3jk2kflsu73k34l</tspan></text>
      <text id="F" transform="translate(501 465)" fill="#4f6ef7" font-size="60" font-family="AvenirNextLTPro-Bold, Avenir Next LT Pro" font-weight="700"><tspan x="11.72" y="58">F</tspan></text>
    </g>
    <g id="Group_51" data-name="Group 51" transform="translate(-65)">
      <g transform="matrix(1, 0, 0, 1, 65, 0)" filter="url(#Path_115)">
        <path id="Path_115-2" data-name="Path 115" d="M10.059.25H566.141a9.809,9.809,0,0,1,9.809,9.809V701.441a9.809,9.809,0,0,1-9.809,9.809H10.059A9.809,9.809,0,0,1,.25,701.441V10.059A9.809,9.809,0,0,1,10.059.25Z" transform="translate(1290.75 184.75)" fill="#fff" stroke="rgba(0,0,0,0.17)" stroke-width="0.5" fill-rule="evenodd"/>
      </g>
      <g id="check" transform="translate(1617 241)">
        <path id="Path_1" data-name="Path 1" d="M9,31.77,22.847,45.617,57.463,11" transform="translate(19.693 24.617)" fill="none" stroke="#4f6ef7" stroke-linecap="round" stroke-linejoin="round" stroke-miterlimit="10" stroke-width="5"/>
        <circle id="Ellipse_1" data-name="Ellipse 1" cx="52" cy="52" r="52" transform="translate(1 1)" stroke-width="5" stroke="#4f6ef7" stroke-linecap="round" stroke-linejoin="round" stroke-miterlimit="10" fill="none"/>
      </g>
      <text id="Transaction_Alert" data-name="Transaction Alert" transform="translate(1408 403)" fill="#4f6ef7" font-size="48" font-family="Rubik-Regular, Rubik"><tspan x="71.968" y="45">Transaction Alert</tspan></text>
      <text id="Account:_208_34" data-name="Account: 208****34" transform="translate(1427 515)" font-size="32" font-family="AvenirNextLTPro-Regular, Avenir Next LT Pro"><tspan x="0" y="31">Account: </tspan><tspan y="31" font-family="AvenirNextLTPro-Demi, Avenir Next LT Pro" font-weight="300">208****34</tspan></text>
      <text id="Bank:_Access_Bank" data-name="Bank: Access Bank" transform="translate(1427 627)" font-size="32" font-family="AvenirNextLTPro-Regular, Avenir Next LT Pro"><tspan x="0" y="31">Bank: </tspan><tspan y="31" font-family="AvenirNextLTPro-Demi, Avenir Next LT Pro" font-weight="300">Access Bank</tspan></text>
      <text id="Amount:_30_000" data-name="Amount:  ₦30,000" transform="translate(1427 739)" font-size="32" font-family="AvenirNextLTPro-Regular, Avenir Next LT Pro"><tspan x="0" y="35">Amount: </tspan><tspan y="35" font-family="AvenirNextLTPro-Demi, Avenir Next LT Pro" font-weight="300"> </tspan><tspan y="35" font-family="SegoeUI-Semibold, Segoe UI" font-weight="600">₦</tspan><tspan y="35" font-family="AvenirNextLTPro-Demi, Avenir Next LT Pro" font-weight="300">30,000</tspan></text>
    </g>
  </g>
</svg>
