<svg xmlns="http://www.w3.org/2000/svg" viewBox="52.5 52.5 45 45"><path fill-rule="evenodd" clip-rule="evenodd" fill="#343846" d="M89 82.3h-2.8c-3.1 0-5.5-1.6-7.7-3.9-.2.3-.4.6-.7.9-1 1.3-2 2.7-3.2 4 3 2.9 6.6 5.2 11.5 5.2H89v5.3l8-8-8-8.2v4.7zM64.9 71.2c.3-.5.7-.9 1.1-1.4.9-1.1 1.8-2.3 2.7-3.5-2.9-2.7-6.4-4.8-11.1-4.8H53v6.2s1.3-.1 4.6 0c3.2.1 5.2 1.4 7.3 3.5zm21.3-3.5H89v4.6l8-8.2-8-8v5.3h-2.8c-8.1 0-12.7 6.1-16.8 11.4-3.6 4.8-6.8 9.4-11.8 9.4H53v6.2h4.6c8.1 0 12.7-6.5 16.8-11.8 3.6-4.8 6.7-8.9 11.8-8.9z"/></svg>