<svg xmlns="http://www.w3.org/2000/svg" width="738.017" height="235.765" viewBox="0 0 738.017 235.765">
  <g id="flower" transform="translate(-0.158 34.021)" opacity="0.06">
    <g id="Boxyswap_HomePage-1100" transform="translate(-487 -487)">
      <g id="HEADER">
        <g id="Group-22" transform="translate(485 476)">
          <g id="Group-10">
            <g id="Group_3" data-name="Group 3" transform="translate(2 11)">
              <g id="Group-26" transform="translate(172.928 0.753)">
                <path id="Path-31" d="M13.907,59.759H121.629a13.859,13.859,0,0,0,9.99-4.253l41.032-42.668a13.859,13.859,0,0,1,9.99-4.253H201.89a13.86,13.86,0,0,1,9.928,4.189l6.624,6.8a13.86,13.86,0,0,0,9.928,4.189H330a13.86,13.86,0,0,0,9.336-3.616l18.115-16.51A13.86,13.86,0,0,1,366.79.021h88.985a13.86,13.86,0,0,1,13.86,13.86V122.75H.047V73.619A13.86,13.86,0,0,1,13.907,59.759Z" fill="#fff"/>
                <path id="Path-44" d="M456.078-34.546c-20.236,23.18-27.019,19.585-13.509,43.69s59.839,47.32,35.376,55.283S455.4,54.2,439.436,40.018s-12.862-.148,3.133,24.409,68.607,100.622,17.254,47.484-77.375-78.6-59.4-90.682S441.547-1.992,418.05-1.992s-51.6-9.9-49.036,6.662-1.794,29.486,7.209,43.238S413.674,69.07,418.05,82.822s41.37,58.255-3.833,25.948-64.8-30.365-61.015-65,27.5-49.1,0-49.1-42.441-25.355-42.441,9.992,12.093,56.716-6.7,70.4-41.838,57.219-41.838,7.755,14.138-57.919,0-68.035-8.3-20.232-19.368-10.116-13,8.138-6.5,23.621,6.5,13.537,6.5,19.617,6.6,13.168-6.5,22.387S226.1,84.911,226.1,58.221s4.118-43.434-7.455-43.434-.862,2.467-6.218,28.988S203.21,69.1,189.967,82.822s-25.606,44.309-22.3,22.154-.789-26.693,15.8-40.549,26-20.653,0-20.653-39.525-4.61-23.494-10.047,36.492,14.053,29.993-12.5S149.4-4.154,145.393,14.787s7.269,35.7,7.269,49.641-10.48,21.3-16.142,26.63-25.937,15.012-10.786,20.854,13.6,71.739-3.371,30.977-13.815-43.17-5.222-63.918q8.592-20.749,0-31.062" fill="none" stroke="#ffdbf4" stroke-width="0.693" fill-rule="evenodd"/>
              </g>
              <g id="Group-18" transform="translate(0.158 19.178)">
                <g id="Group-25" transform="matrix(0.966, -0.259, 0.259, 0.966, 509.295, 39.629)">
                  <path id="Combined-Shape-Copy" d="M24.64,79.4Q14.925,51.538,17.954,42c3.028-9.542,8.807-13,9.78-13s4.131,7.471,5.52,5.9S31.7,28.225,31.7,26.8s11.015-6.578,12.557-6.578,7.262,17.553,9.434,15.807-7.04-17.156-5.94-18.141a26.412,26.412,0,0,1,6.65-3.22c.642,0,3.309,9.341,4.926,8.521s0-9.7,0-10.448,5.256-2.2,5.256-2.2,3.033,11.416,4.256,10.549-1.223-11.394,0-12.13,6.1-1.939,7.043-1.526.431,6.383,2.419,5.307.214-5.157,1.1-5.756,11.677-2.378,12.93-1.444.694,15.549,0,15.549-8.617-1.179-9.036,1.228,8.128,1.945,8.128,2.644-2.339,7.87-2.339,8.651-6.118-2.323-7.166-1.161,6.323,2.388,6.323,3.577a44.411,44.411,0,0,1-2.146,8.136c-.433.746-6.141-3.526-7.258-2.171s5.823,3.555,5.823,5-1.533,4.873-2.741,4.873-9.932-5.082-11.794-2.9,11.232,5.683,10.551,7.838S75.881,66.753,75.02,67.21s-8.855-5.829-10.441-4.556,8.439,7.137,8.439,8.02c0,.505-2.071,3.193-5.449,5.793-.381.293-3.16-3.261-4.64-3.986-1.832-.9-2.985,0-2.985,1.315s3.623,5.285,2.985,5.606A69.448,69.448,0,0,1,54.4,81.983Q45.819,84.078,24.64,79.4ZM35.708,42.25c-2.032,1.479,3.451,8.807,5.429,7.228S37.74,40.77,35.708,42.25Zm5.466-9.527c0,.638,2.84,5.233,4.035,6.115s1.293-.883,1.621-1.846-1.975-5.266-3.119-5.841S41.174,32.084,41.174,32.722ZM60.879,25.6a2.566,2.566,0,0,0-2.549,1.493c-.247,1.019,1.408,3.728,2.215,4.216s2.064-.759,2.064-1.473S61.4,25.846,60.879,25.6Zm15.03,15.8c.907-.574,1.3-.954,1.3-1.643s-3.583-2.862-4.691-3.185-2.247.6-1.919,1.5S75,41.965,75.91,41.391ZM59,52.4a3.943,3.943,0,0,0-.917,2.09c0,.755,4.658,2.917,6.106,2.917a1.682,1.682,0,0,0,1.342-2.575C64.947,53.941,59.386,51.9,59,52.4Z" transform="translate(6.654 -7.248) rotate(8)" fill-rule="evenodd"/>
                  <path id="Combined-Shape" d="M24.083,78.849Q14.369,50.984,17.4,41.442c3.028-9.542,8.807-13,9.78-13s4.131,7.471,5.52,5.9S31.14,27.67,31.14,26.249,42.155,19.671,43.7,19.671s7.262,17.553,9.434,15.806-7.04-17.156-5.94-18.141a26.415,26.415,0,0,1,6.65-3.22c.642,0,3.309,9.341,4.926,8.521s0-9.7,0-10.448,5.256-2.2,5.256-2.2S67.055,21.4,68.278,20.538s-1.223-11.394,0-12.13,6.1-1.939,7.043-1.526.431,6.383,2.419,5.307.214-5.157,1.1-5.756,11.677-2.378,12.93-1.444.694,15.549,0,15.549-8.617-1.179-9.036,1.228,8.128,1.945,8.128,2.644-2.339,7.87-2.339,8.651-6.118-2.323-7.166-1.162,6.323,2.388,6.323,3.578a44.408,44.408,0,0,1-2.146,8.136c-.433.746-6.141-3.526-7.258-2.171S84.1,45,84.1,46.445s-1.533,4.873-2.741,4.873-9.932-5.082-11.794-2.9S80.8,54.106,80.116,56.261,75.325,66.2,74.464,66.656,65.609,60.826,64.022,62.1s8.439,7.137,8.439,8.02c0,.505-2.071,3.193-5.449,5.793-.381.293-3.16-3.261-4.64-3.986-1.832-.9-2.985,0-2.985,1.316s3.623,5.284,2.985,5.605a69.444,69.444,0,0,1-8.532,2.581Q45.262,83.524,24.083,78.849ZM35.151,41.7C33.119,43.175,38.6,50.5,40.58,48.924S37.183,40.216,35.151,41.7Zm5.466-9.527c0,.638,2.84,5.232,4.035,6.115s1.293-.883,1.621-1.846S44.3,31.172,43.154,30.6,40.618,31.531,40.618,32.168Zm19.705-7.127a2.567,2.567,0,0,0-2.549,1.493c-.247,1.019,1.408,3.728,2.215,4.216s2.064-.759,2.064-1.473S60.846,25.292,60.323,25.042Zm15.031,15.8c.907-.574,1.3-.954,1.3-1.642s-3.583-2.862-4.691-3.185-2.247.6-1.919,1.5S74.446,41.411,75.353,40.837ZM58.447,51.85a3.943,3.943,0,0,0-.917,2.09c0,.755,4.658,2.917,6.106,2.917a1.682,1.682,0,0,0,1.342-2.575C64.391,53.387,58.829,51.341,58.447,51.85Z" fill="#c297fb" fill-rule="evenodd"/>
                  <path id="Path-27" d="M91.741,5.145C78.75,17.711,54.8,42.336,38.283,61.253Q21.771,80.169.3,112.968" fill="none" stroke="#fff" stroke-linecap="round" stroke-width="0.554" fill-rule="evenodd"/>
                </g>
                <g id="Group-6" transform="translate(62.419 47.145)">
                  <path id="Path-13" d="M0,65.069,59.491,22.017a13.86,13.86,0,0,1,8.126-2.632h40.991a13.857,13.857,0,0,0,8.664-3.042L133.33,3.481A13.857,13.857,0,0,1,141.994.438h90.7a13.86,13.86,0,0,1,11.118,5.584l14.266,19.164a13.858,13.858,0,0,0,11.117,5.584h4.719a13.86,13.86,0,0,0,10.525-4.842l7.4-8.634a13.861,13.861,0,0,1,10.525-4.842h10.887a13.861,13.861,0,0,1,13.391,10.284l1.04,3.9a13.86,13.86,0,0,0,13.391,10.284h9.253a13.86,13.86,0,0,0,10.152-4.424l26.092-28.07A13.862,13.862,0,0,1,396.716,0h86.73a13.862,13.862,0,0,1,9.842,4.1L508.014,18.95a13.858,13.858,0,0,0,9.841,4.1h43.212a13.861,13.861,0,0,1,7.807,2.408L626.98,65.069Z" fill="#e6dbff"/>
                  <path id="Path-12" d="M608.777,51.257q-27.577-15.076-41.6-19.994C553.145,26.345,553.486,19.5,539.627,19.5s-20.579,7.63-26.7,3.815-4.523-6.084-19.56-17.325-23.82-13.266-27.121-10.5,24.642,28.333,24.642,35.776-13.317,13.573-27.327,8.447-5.7-6.589-20.389-16.4S412.021,2.3,409.538,5.987s-17.677.927-2.434,17.325,44.028,19.457,33.743,23.7-15.6,7.3-24.674,0-16.13-20.094-28.592-34.064S367.957-8.792,362.327-8.792s-40.308-18.943,0,14.78,51.887,40.93,49.549,45.269-19.924-3.1-24.3-11.546-4.074-8.043-16.856-16.4S355.453,5.987,347.612,5.987s-13.34-2.124-16.59-2.124H308.5c-6.639,0-40.356-15.2-18.99,2.124s30.431,13.232,41.512,13.232,28.253-1.7,28.253,4.093-8.833,10.1-21.531,7.951-21.129-11.627-21.129-2.831S371.2,47.013,374.564,47.013s12.89,9.04,2.031,9.04-33.56.106-45.573-6.858S319.8,43.511,314.148,37.387s15.983-1.5-9.1-8.955-27.322-10.6-31.035-13.04-.75-7.056-8.524-7.056-17.219,7.025-3.171,14.976,26.512,13.5,14.841,16.4-23.969,8.447-35.521,0-15.269-3.825-15.269-11.278,1.663-5.386-5.224-9.213,9.767-16.633,14.14-6.27,17.6,35.579,11.978,15.483-.7-25.208-11.978-32.945,4.205-12.893-14.14-8.586-11.09,32.577-8.481,41.531,14.138,18.7,2.977,20.762-8.154-3.057-8.154-3.057S197,38.8,197,23.312s-2.645-7.9-8.652-14.976-8.7-12.85-17.442-12.85h-22.95c-13.624,0-72.877,7.1-72.877,17.462s7.689,25.505,11.649,30.875S78.054,65.607,75.078,68.082s88.31,91.481,66.562,27.331S92.79,25.489,114.123,19.219s32.952-12.746,42.045,12.044S176.55,48.528,170.9,28.432s-8.56,29.5,31.089,48.239,427.55,67.308,378.849,29.359,145.9,65.658,81.02-20.317S411.754-117.551,427.461-56.844s8.71,64.8-15.585,43.745-45.924-25.852-37.312-12.926-16.7,6.179-32.187-3.756S147.435-13.1,82.609-13.1" fill="none" stroke="#b93cf6" stroke-linecap="round" stroke-linejoin="round" stroke-width="0.693" fill-rule="evenodd"/>
                </g>
                <g id="Group-7-Copy-2" transform="translate(201.468 0.202) rotate(150)">
                  <path id="Path-29" d="M23.509-64.866q0,35.723-15.414,56.715" fill="none" stroke="#b93cf6" stroke-width="0.693" fill-rule="evenodd"/>
                  <path id="Path-14" d="M23.581-50.451a13.763,13.763,0,0,0,7.608,7.708q5.363,2.274,9.841.485Q39.962-45.979,33.2-48.7T23.581-50.451Z" fill="#210164" fill-rule="evenodd"/>
                  <path id="Path-15" d="M22.034-50.634a20.041,20.041,0,0,1-11.776,3.347q-6.99,0-9.3-3.347a22.9,22.9,0,0,1,10.02-2.256A30.2,30.2,0,0,1,22.034-50.634Z" fill="#210164" fill-rule="evenodd"/>
                  <path id="Path-16" d="M21.213-33.259a13.949,13.949,0,0,0,2.81,7.751A9.161,9.161,0,0,0,31.5-21.493a18.8,18.8,0,0,0-4.163-7.4A27.43,27.43,0,0,0,21.213-33.259Z" fill="#210164" fill-rule="evenodd"/>
                  <path id="Path-17" d="M18.67-33.823a17.236,17.236,0,0,1-7.722,4.034,8.4,8.4,0,0,1-7.692-2.017,11.572,11.572,0,0,1,7.692-3.354A23.122,23.122,0,0,1,18.67-33.823Z" fill="#210164" fill-rule="evenodd"/>
                  <path id="Path-18" d="M14-16.015a17.792,17.792,0,0,0,1.871,4.854q1.211,2.082,5.012,2.679.153-3.8-1.978-5.491A9.694,9.694,0,0,0,14-16.015Z" fill="#210164" fill-rule="evenodd"/>
                  <path id="Path-19" d="M12.25-16.938a21.319,21.319,0,0,1-6.445-.79,6.224,6.224,0,0,1-3.846-3.5h5.7Q10.723-21.23,12.25-16.938Z" fill="#210164" fill-rule="evenodd"/>
                  <path id="Path-26" d="M8.666-8.681a10.751,10.751,0,0,1-2.7,6.174A10.166,10.166,0,0,1,0,0,8.633,8.633,0,0,1,3.408-5.974,12.985,12.985,0,0,1,8.666-8.681Z" fill="#210164" fill-rule="evenodd"/>
                </g>
                <path id="Path-28" d="M515.306,94.31l19.681-14.727a9.7,9.7,0,0,1,5.812-1.934h54.544a9.7,9.7,0,0,0,6.85-2.831l10.315-10.283a9.7,9.7,0,0,1,6.849-2.831h47.4a9.7,9.7,0,0,1,6.454,2.458l37.71,33.6Z" fill="#c297fb" fill-rule="evenodd"/>
                <path id="Path-3" d="M0,100.929,19.774,79.79A13.86,13.86,0,0,1,29.9,75.4H88.251A13.86,13.86,0,0,0,94.4,73.959L121.849,60.37A13.862,13.862,0,0,1,128,58.931h40.386A13.862,13.862,0,0,1,179,63.884L194.7,82.591a13.859,13.859,0,0,0,10.619,4.953h22.458a13.861,13.861,0,0,1,9.319,3.6L250.1,102.96Z" fill="#c297fb" fill-rule="evenodd"/>
                <g id="Group-25-2" data-name="Group-25" transform="translate(13.967 42.848) rotate(-6)">
                  <path id="Combined-Shape-Copy-2" data-name="Combined-Shape-Copy" d="M31.258,99.44Q19.148,64.566,22.923,52.624C26.7,40.682,33.9,36.358,35.113,36.358s5.149,9.35,6.88,7.38-1.94-8.349-1.94-10.129,13.73-8.233,15.652-8.233,9.052,21.968,11.759,19.782-8.775-21.471-7.4-22.7a32.868,32.868,0,0,1,8.289-4.03c.8,0,4.124,11.69,6.14,10.664s0-12.137,0-13.076,6.551-2.754,6.551-2.754,3.781,14.288,5.3,13.2-1.524-14.26,0-15.181,7.608-2.427,8.779-1.909.537,7.989,3.015,6.642.267-6.454,1.373-7.2S114.068,5.833,115.63,7s.865,19.46,0,19.46S104.889,24.986,104.366,28,114.5,30.433,114.5,31.308s-2.915,9.849-2.915,10.827-7.627-2.907-8.932-1.454,7.881,2.989,7.881,4.477a55.77,55.77,0,0,1-2.675,10.182c-.54.933-7.655-4.413-9.047-2.717s7.258,4.45,7.258,6.262-1.911,6.1-3.417,6.1-12.38-6.361-14.7-3.623,14,7.112,13.152,9.81S95.129,83.608,94.055,84.18s-11.037-7.3-13.014-5.7S91.56,87.411,91.56,88.516c0,.632-2.581,4-6.793,7.251-.475.367-3.938-4.081-5.783-4.988-2.284-1.123-3.721,0-3.721,1.646s4.516,6.614,3.721,7.015c-1.862.94-8.511,2.709-10.634,3.23Q57.657,105.292,31.258,99.44Zm13.8-46.5c-2.533,1.851,4.3,11.022,6.767,9.046S47.587,51.09,45.054,52.942Zm6.814-11.924c0,.8,3.54,6.549,5.03,7.653s1.612-1.1,2.02-2.31-2.461-6.59-3.888-7.31S51.867,40.22,51.867,41.018ZM76.429,32.1c-.652-.314-2.869.593-3.177,1.868s1.755,4.666,2.761,5.276,2.573-.95,2.573-1.843S77.082,32.412,76.429,32.1ZM95.165,51.867c1.131-.718,1.615-1.194,1.615-2.056s-4.466-3.583-5.847-3.986-2.8.757-2.392,1.874S94.034,52.585,95.165,51.867ZM74.091,65.65a4.945,4.945,0,0,0-1.144,2.615c0,.945,5.805,3.651,7.611,3.651a2.106,2.106,0,0,0,1.673-3.223C81.5,67.573,74.568,65.014,74.091,65.65Z" transform="translate(8.339 -9.108) rotate(8)" fill-rule="evenodd"/>
                  <path id="Combined-Shape-2" data-name="Combined-Shape" d="M30.019,97.3Q17.91,62.421,21.685,50.479c3.775-11.942,10.978-16.266,12.19-16.266s5.149,9.35,6.88,7.38-1.94-8.349-1.94-10.129,13.73-8.233,15.652-8.233S63.519,45.2,66.226,43.014s-8.775-21.471-7.4-22.7a32.868,32.868,0,0,1,8.289-4.03c.8,0,4.124,11.69,6.14,10.664s0-12.137,0-13.076S79.8,11.114,79.8,11.114s3.781,14.288,5.3,13.2-1.524-14.26,0-15.181,7.608-2.427,8.779-1.909.537,7.989,3.015,6.642.267-6.454,1.373-7.2,14.555-2.976,16.117-1.807.866,19.46,0,19.46-10.74-1.476-11.263,1.537,10.132,2.434,10.132,3.309-2.916,9.849-2.916,10.827-7.626-2.907-8.931-1.454,7.881,2.989,7.881,4.477A55.77,55.77,0,0,1,106.619,53.2c-.54.933-7.655-4.413-9.048-2.717s7.258,4.45,7.258,6.262-1.91,6.1-3.416,6.1-12.38-6.361-14.7-3.623,14,7.112,13.152,9.81-5.972,12.437-7.046,13.009-11.037-7.3-13.015-5.7,10.519,8.932,10.519,10.037c0,.632-2.581,4-6.793,7.251-.475.367-3.938-4.081-5.783-4.988-2.284-1.123-3.72,0-3.72,1.646s4.516,6.614,3.72,7.015c-1.862.94-8.511,2.709-10.634,3.23Q56.419,103.147,30.019,97.3Zm13.8-46.5c-2.533,1.851,4.3,11.022,6.767,9.046S46.348,48.946,43.815,50.8Zm6.814-11.924c0,.8,3.54,6.549,5.03,7.653s1.612-1.1,2.02-2.31-2.461-6.59-3.888-7.31S50.629,38.075,50.629,38.873Zm24.562-8.919c-.652-.314-2.869.593-3.177,1.868s1.755,4.666,2.761,5.276,2.573-.95,2.573-1.843S75.843,30.268,75.191,29.954ZM93.926,49.722c1.131-.718,1.615-1.194,1.615-2.056s-4.466-3.583-5.847-3.986-2.8.757-2.392,1.874S92.8,50.44,93.926,49.722ZM72.853,63.5a4.945,4.945,0,0,0-1.144,2.615c0,.945,5.806,3.651,7.611,3.651a2.106,2.106,0,0,0,1.673-3.223C80.262,65.429,73.329,62.869,72.853,63.5Z" fill="#d38bf7" fill-rule="evenodd"/>
                  <path id="Path-27-2" data-name="Path-27" d="M114.353,5.052C98.161,20.779,68.3,51.6,47.719,75.273Q27.138,98.948.372,140" fill="none" stroke="#fff" stroke-linecap="round" stroke-width="0.693" fill-rule="evenodd"/>
                </g>
                <g id="Group-25-Copy" transform="matrix(0.259, -0.966, 0.966, 0.259, 522.446, 126.942)">
                  <path id="Combined-Shape-Copy-3" data-name="Combined-Shape-Copy" d="M16.654,61.48Q8.882,39.188,11.3,31.554c2.423-7.634,7.046-10.4,7.824-10.4s3.3,5.977,4.416,4.718S22.3,20.537,22.3,19.4s8.812-5.262,10.046-5.262,5.809,14.042,7.547,12.645S34.26,13.058,35.14,12.27a21.131,21.131,0,0,1,5.32-2.576c.514,0,2.647,7.472,3.941,6.817s0-7.758,0-8.358,4.2-1.76,4.2-1.76,2.426,9.133,3.4,8.439-.978-9.115,0-9.7,4.883-1.551,5.635-1.22.345,5.107,1.935,4.245.171-4.126.881-4.605S69.8,1.645,70.8,2.392s.555,12.439,0,12.439-6.893-.943-7.229.983,6.5,1.556,6.5,2.115-1.871,6.3-1.871,6.921-4.895-1.858-5.732-.929,5.058,1.91,5.058,2.862a35.533,35.533,0,0,1-1.717,6.508c-.347.6-4.913-2.821-5.807-1.737s4.658,2.844,4.658,4-1.226,3.9-2.193,3.9-7.946-4.066-9.436-2.316,8.986,4.546,8.441,6.271-3.833,7.95-4.522,8.315-7.084-4.664-8.353-3.644,6.751,5.71,6.751,6.416c0,.4-1.656,2.555-4.36,4.635-.3.234-2.528-2.609-3.712-3.189-1.466-.718-2.388,0-2.388,1.052s2.9,4.228,2.388,4.484a55.563,55.563,0,0,1-6.825,2.064Q33.6,65.22,16.654,61.48Zm8.854-29.722c-1.626,1.183,2.761,7.046,4.343,5.783S27.134,30.574,25.508,31.757Zm4.373-7.622a16.6,16.6,0,0,0,3.228,4.892c.956.706,1.034-.706,1.3-1.477s-1.58-4.213-2.5-4.673S29.881,23.625,29.881,24.136Zm15.764-5.7a2.053,2.053,0,0,0-2.039,1.194c-.2.815,1.126,2.983,1.772,3.373s1.651-.607,1.651-1.178S46.064,18.635,45.646,18.434ZM57.67,31.07c.726-.459,1.036-.763,1.036-1.314s-2.867-2.29-3.753-2.548-1.8.484-1.535,1.2S56.944,31.53,57.67,31.07Zm-13.525,8.81a3.155,3.155,0,0,0-.734,1.672c0,.6,3.726,2.334,4.885,2.334a1.346,1.346,0,0,0,1.074-2.06C48.9,41.11,44.451,39.474,44.145,39.881Z" transform="translate(-1.677 2.195) rotate(-3)" fill-rule="evenodd"/>
                  <path id="Combined-Shape-3" data-name="Combined-Shape" d="M19.267,62.8Q11.495,40.51,13.918,32.876c2.423-7.634,7.046-10.4,7.824-10.4s3.3,5.977,4.416,4.718-1.245-5.337-1.245-6.475,8.812-5.262,10.046-5.262S40.767,29.5,42.5,28.1,36.872,14.38,37.753,13.591a21.13,21.13,0,0,1,5.32-2.576c.513,0,2.647,7.473,3.941,6.817s0-7.758,0-8.358,4.2-1.76,4.2-1.76,2.426,9.133,3.4,8.439-.978-9.115,0-9.7,4.883-1.551,5.635-1.22.345,5.107,1.935,4.245.171-4.126.881-4.605,9.342-1.9,10.344-1.155.555,12.439,0,12.439-6.893-.943-7.229.983,6.5,1.556,6.5,2.115-1.871,6.3-1.871,6.921-4.895-1.858-5.732-.929,5.058,1.91,5.058,2.862a35.525,35.525,0,0,1-1.717,6.508c-.347.6-4.913-2.821-5.807-1.737s4.658,2.844,4.658,4-1.226,3.9-2.193,3.9-7.946-4.066-9.436-2.316,8.986,4.546,8.441,6.271-3.833,7.95-4.522,8.315-7.084-4.664-8.353-3.644,6.751,5.71,6.751,6.416c0,.4-1.656,2.555-4.36,4.635-.3.234-2.528-2.609-3.712-3.189-1.466-.718-2.388,0-2.388,1.052s2.9,4.228,2.388,4.484a55.568,55.568,0,0,1-6.825,2.064Q36.21,66.542,19.267,62.8Zm8.854-29.722c-1.626,1.183,2.761,7.046,4.343,5.782S29.747,31.9,28.121,33.079Zm4.373-7.622a16.6,16.6,0,0,0,3.228,4.892c.956.706,1.034-.706,1.3-1.477s-1.58-4.213-2.5-4.673S32.494,24.947,32.494,25.457Zm15.764-5.7a2.053,2.053,0,0,0-2.039,1.194c-.2.815,1.126,2.983,1.772,3.373s1.651-.607,1.651-1.178S48.677,19.956,48.258,19.756ZM60.283,32.392c.726-.459,1.036-.764,1.036-1.314s-2.867-2.29-3.753-2.548-1.8.484-1.535,1.2S59.557,32.851,60.283,32.392ZM46.757,41.2a3.155,3.155,0,0,0-.734,1.672c0,.6,3.726,2.334,4.885,2.334a1.346,1.346,0,0,0,1.074-2.06C51.513,42.432,47.063,40.8,46.757,41.2Z" fill="#ffa3e3" fill-rule="evenodd"/>
                  <path id="Path-27-3" data-name="Path-27" d="M73.393,3.839C63,13.892,43.836,33.592,30.627,48.725Q17.417,63.858.239,90.1" fill="none" stroke="#74125d" stroke-linecap="round" stroke-width="0.55" fill-rule="evenodd"/>
                </g>
                <g id="Group-7" transform="translate(373.129 19.413)">
                  <path id="Path-29-2" data-name="Path-29" d="M23.509,64.866q0-35.723-15.414-56.715" fill="none" stroke="#b93cf6" stroke-width="0.693" fill-rule="evenodd"/>
                  <path id="Path-14-2" data-name="Path-14" d="M23.581,50.451a13.763,13.763,0,0,1,7.608-7.708q5.363-2.274,9.841-.485Q39.962,45.979,33.2,48.7T23.581,50.451Z" fill="#ffa3e3" fill-rule="evenodd"/>
                  <path id="Path-15-2" data-name="Path-15" d="M22.034,50.634a20.04,20.04,0,0,0-11.776-3.347q-6.99,0-9.3,3.347a22.9,22.9,0,0,0,10.02,2.256A30.2,30.2,0,0,0,22.034,50.634Z" fill="#ffa3e3" fill-rule="evenodd"/>
                  <path id="Path-16-2" data-name="Path-16" d="M21.213,33.258a13.949,13.949,0,0,1,2.81-7.751A9.161,9.161,0,0,1,31.5,21.493a18.8,18.8,0,0,1-4.163,7.4A27.43,27.43,0,0,1,21.213,33.258Z" fill="#ffa3e3" fill-rule="evenodd"/>
                  <path id="Path-17-2" data-name="Path-17" d="M18.67,33.823a17.236,17.236,0,0,0-7.722-4.034,8.4,8.4,0,0,0-7.692,2.017,11.572,11.572,0,0,0,7.692,3.354A23.122,23.122,0,0,0,18.67,33.823Z" fill="#ffa3e3" fill-rule="evenodd"/>
                  <path id="Path-18-2" data-name="Path-18" d="M14,16.015a17.792,17.792,0,0,1,1.871-4.854q1.211-2.082,5.012-2.679.153,3.8-1.978,5.491A9.694,9.694,0,0,1,14,16.015Z" fill="#ffa3e3" fill-rule="evenodd"/>
                  <path id="Path-19-2" data-name="Path-19" d="M12.25,16.938a21.319,21.319,0,0,0-6.445.79,6.224,6.224,0,0,0-3.846,3.5h5.7Q10.723,21.229,12.25,16.938Z" fill="#ffa3e3" fill-rule="evenodd"/>
                  <path id="Path-26-2" data-name="Path-26" d="M8.666,8.681a10.751,10.751,0,0,0-2.7-6.174A10.166,10.166,0,0,0,0,0,8.632,8.632,0,0,0,3.408,5.974,12.985,12.985,0,0,0,8.666,8.681Z" fill="#ffa3e3" fill-rule="evenodd"/>
                </g>
                <path id="Path-30" d="M409.323,94.291,393.736,76.819a6.93,6.93,0,0,0-5.172-2.317H366a6.931,6.931,0,0,0-3.959,1.242L359.95,77.2a4.81,4.81,0,0,1-6.643-1.125L342.453,61.1a6.93,6.93,0,0,0-5.611-2.863h-31.2a6.93,6.93,0,0,0-5.109,2.248l-30.979,33.8Z" fill="#d38bf7" fill-rule="evenodd"/>
              </g>
            </g>
          </g>
        </g>
      </g>
    </g>
  </g>
</svg>
