<svg xmlns="http://www.w3.org/2000/svg" width="229" height="53" viewBox="0 0 229 53">
  <g id="frostpaylogo" transform="translate(-833 -463)">
    <text id="frostpay" transform="translate(833 463)" fill="#777" font-size="40" font-family="AvenirNextLTPro-Bold, Avenir Next LT Pro" font-weight="700"><tspan x="0" y="39">frostpay</tspan></text>
    <g id="Group" transform="translate(1006.853 463.382)">
      <rect id="Rectangle" width="55" height="31" rx="4" transform="translate(0.147 -0.382)" fill="#777"/>
      <path id="BETA" d="M3.754,4.317H7.468A7.049,7.049,0,0,1,11.2,5.07a2.637,2.637,0,0,1,1.151,2.379,2.883,2.883,0,0,1-.565,1.823,2.525,2.525,0,0,1-1.626.916v.086a3.228,3.228,0,0,1,1.938.98,2.964,2.964,0,0,1,.62,1.981,3.212,3.212,0,0,1-1.177,2.64,5.062,5.062,0,0,1-3.273.954H3.754ZM5.8,9.486H7.767a3.37,3.37,0,0,0,1.874-.406,1.557,1.557,0,0,0,.59-1.382,1.384,1.384,0,0,0-.638-1.275,3.982,3.982,0,0,0-2.024-.394H5.8Zm0,1.66v3.962H7.973a3.2,3.2,0,0,0,1.938-.492,1.817,1.817,0,0,0,.655-1.553A1.649,1.649,0,0,0,9.9,11.617a3.537,3.537,0,0,0-2.028-.471Zm16.6,5.682H15.324V4.317H22.4V6.046H17.369V9.452h4.715v1.712H17.369v3.928H22.4Zm7.026,0H27.382V6.071H23.7V4.317h9.4V6.071h-3.68Zm12.135,0-1.249-3.474H35.529L34.3,16.828H32.148L36.83,4.266h2.225l4.681,12.563Zm-1.789-5.237L38.6,8.185q-.128-.342-.355-1.078t-.312-1.078a19.179,19.179,0,0,1-.676,2.3l-1.13,3.261Z" transform="translate(4.47 5.079)" fill="#fff" stroke="#fff" stroke-width="0.1" fill-rule="evenodd"/>
    </g>
  </g>
</svg>
