<?xml version="1.0" encoding="UTF-8"?>
<svg width="407px" height="377px" viewBox="0 0 407 377" version="1.1" xmlns="http://www.w3.org/2000/svg" xmlns:xlink="http://www.w3.org/1999/xlink">
    <!-- Generator: Sketch 52.2 (67145) - http://www.bohemiancoding.com/sketch -->
    <title>Artboard</title>
    <desc>Created with Sketch.</desc>
    <defs>
        <path d="M2.80000019,0 L174.212153,4.4408921e-16 C175.75855,1.60020615e-16 177.012153,1.25360279 177.012153,2.80000019 L177.012153,305.281936 C177.012153,306.828334 175.75855,308.081937 174.212153,308.081937 L2.80000019,308.081937 C1.25360279,308.081937 6.33468273e-16,306.828334 4.4408921e-16,305.281936 L4.4408921e-16,2.80000019 C2.54710147e-16,1.25360279 1.25360279,7.28157805e-16 2.80000019,4.4408921e-16 Z" id="path-1"></path>
        <polygon id="path-3" points="188.839127 0.430261051 188.839127 189.347351 0.0659649502 0.430261051"></polygon>
        <polygon id="path-5" points="13.0456911 0.0855061394 0.714168396 11.9449273 0.175403664 61.3990151 0.714168396 62.4786177 13.0456911 50.2808515"></polygon>
        <polygon id="path-7" points="0.00424721244 12.1957946 12.0345046 0.0949678844 65.535063 0.0949678844 53.2220225 12.3719324"></polygon>
        <linearGradient x1="50%" y1="0%" x2="50%" y2="100%" id="linearGradient-9">
            <stop stop-color="#FFFFFF" stop-opacity="0" offset="0%"></stop>
            <stop stop-color="#E089FF" stop-opacity="0.630236639" offset="100%"></stop>
        </linearGradient>
        <linearGradient x1="50%" y1="0%" x2="50%" y2="100%" id="linearGradient-10">
            <stop stop-color="#FFFFFF" stop-opacity="0" offset="0%"></stop>
            <stop stop-color="#CE48FC" stop-opacity="0.630236639" offset="100%"></stop>
        </linearGradient>
        <path d="M1.09207907,25.2185535 L2.13899394,0 L17.1882462,4.1385712 C14.7335445,16.918784 13.5989987,24.6637688 13.7846086,27.3735254 C13.9702185,30.0832821 14.2370901,32.1352122 14.5852235,33.5293158 L0.0457913082,31.4092651 L1.09207907,25.2185535 Z" id="path-11"></path>
        <path d="M2.4132893,4.58893101 C8.28055171,5.49456437 13.634161,4.18750839 18.4741172,0.667763091 C21.1399918,4.52582637 24.3540157,7.98499411 28.1161889,11.0452663 C33.7594488,15.6356746 41.1056853,18.8851676 42.4589035,22.4018899 C43.3610489,24.7463715 43.3610489,26.2670467 42.4589035,26.9639156 L0.79852564,13.3780317 C0.463311618,12.5320784 0.463311618,11.1998938 0.79852564,9.381478 C1.13560322,7.55295304 2.13799712,5.77350928 2.4132893,4.58893101 Z" id="path-13"></path>
        <path d="M1.09207907,25.2185535 L2.13899394,0 L17.1882462,4.1385712 C14.7335445,16.918784 13.5989987,24.6637688 13.7846086,27.3735254 C13.9702185,30.0832821 14.2370901,32.1352122 14.5852235,33.5293158 L0.0457913082,31.4092651 L1.09207907,25.2185535 Z" id="path-15"></path>
        <path d="M2.4132893,4.58893101 C8.28055171,5.49456437 13.634161,4.18750839 18.4741172,0.667763091 C21.1399918,4.52582637 24.3540157,7.98499411 28.1161889,11.0452663 C33.7594488,15.6356746 41.1056853,18.8851676 42.4589035,22.4018899 C43.3610489,24.7463715 43.3610489,26.2670467 42.4589035,26.9639156 L0.79852564,13.3780317 C0.463311618,12.5320784 0.463311618,11.1998938 0.79852564,9.381478 C1.13560322,7.55295304 2.13799712,5.77350928 2.4132893,4.58893101 Z" id="path-17"></path>
        <path d="M59.1656194,32.4919908 C56.1030351,36.8249897 51.8911045,49.2001648 44.2102884,59.1249512 C39.2860526,65.4878154 33.897297,67.6653392 29.5141454,73.9682975 C23.0917418,83.2036939 23.0917418,93.8419605 13.365214,96.7840427 C10.8249655,95.7183895 8.58288334,94.486413 6.63896745,93.0881129 C5.05675849,91.9499964 2.90733456,89.8253883 0.190695666,86.7142887 C19.1873632,44.3987038 26.9046193,25.5653391 31.3944611,16.8160839 C33.2149261,11.9094923 37.8081978,2.98803716 47.4260574,1.1535018 C56.5236505,-0.581796599 124.520307,2.66371734 133.736062,1.94894645 C161.015307,-0.166822686 164.83681,1.98970213 165.519758,4.44785535 C171.169063,24.7815483 156.118031,43.8464684 141.683842,47.6724339 C132.827888,50.0198171 105.321814,44.9596694 59.1656194,32.4919908 Z" id="path-19"></path>
        <path d="M5.34047863,0.385923869 C17.2275339,1.65893416 29.217005,13.3823975 49.431244,14.877028 C56.0054779,15.3631235 67.3180072,23.5849165 60.9109222,25.4306077 C56.4266257,26.7224006 38.8033591,27.0573789 8.04112252,26.4355426 C-1.68401028,8.22045659 -2.58422491,-0.462749661 5.34047863,0.385923869 Z" id="path-21"></path>
        <path d="M14.1232361,0.08809097 L7.12267833,1.61510383 C6.61627148,1.725565 6.21233192,2.10677259 6.07275687,2.60594028 L0.536338391,22.4060497 C0.432232375,22.7783681 0.649661478,23.1645864 1.02197988,23.2686925 C1.13272846,23.2996595 1.24940062,23.3028649 1.36168241,23.2780253 L8.25782965,21.7524236 C8.76002855,21.6413246 9.16086904,21.263798 9.3018261,20.7691488 L14.9456176,0.963847396 C15.0515666,0.592049233 14.8360533,0.204758659 14.4642551,0.0988096874 C14.3532061,0.0671647453 14.2360533,0.0634824652 14.1232361,0.08809097 Z" id="path-23"></path>
    </defs>
    <g id="Artboard" stroke="none" stroke-width="1" fill="none" fill-rule="evenodd">
        <g id="illustration" transform="translate(2.000000, 0.000000)">
            <g id="Group-25" transform="translate(52.982125, 250.521262) scale(-1, 1) rotate(3.000000) translate(-52.982125, -250.521262) translate(6.482125, 195.521262)"></g>
            <path d="M11.0092576,271.210632 C4.49414694,252.474107 2.2521309,239.897804 4.2832095,233.481724 C7.32982742,223.857604 13.1432249,220.372967 14.1211446,220.372967 C15.0990643,220.372967 18.2765322,227.908006 19.6735604,226.320756 C21.0705886,224.733506 18.107743,219.5921 18.107743,218.157944 C18.107743,216.723788 29.1883359,211.523433 30.7396101,211.523433 C32.2908843,211.523433 38.0447012,229.227341 40.2297062,227.465881 C42.4147112,225.704421 33.1476107,210.162744 34.2546564,209.168513 C35.361702,208.174282 40.2984559,205.920546 40.9440856,205.920546 C41.5897153,205.920546 44.2727146,215.341543 45.8993489,214.514924 C47.5259833,213.688305 45.8993489,204.734068 45.8993489,203.977396 C45.8993489,203.220725 51.1864616,201.757974 51.1864616,201.757974 C51.1864616,201.757974 54.2374477,213.272575 55.4674495,212.398004 C56.6974513,211.523433 54.2374477,200.905839 55.4674495,200.163685 C56.6974513,199.421531 61.607402,198.207991 62.5527927,198.624937 C63.4981834,199.041883 62.9861934,205.063171 64.9862268,203.977396 C66.9862602,202.891622 65.2016388,198.775922 66.0939495,198.171467 C66.9862602,197.567011 77.8404781,195.773005 79.100999,196.715442 C80.3615199,197.657878 79.7992939,212.398004 79.100999,212.398004 C78.4027041,212.398004 70.4330766,211.208836 70.0110121,213.636752 C69.5889477,216.064667 78.1878946,215.598101 78.1878946,216.30336 C78.1878946,217.00862 75.8348444,224.24089 75.8348444,225.029102 C75.8348444,225.817314 69.6799297,222.686106 68.6265751,223.857604 C67.5732205,225.029102 74.9871025,226.266196 74.9871025,227.465881 C74.9871025,228.665566 73.2640286,234.919457 72.828169,235.671603 C72.3923095,236.423748 66.650591,232.115141 65.5266186,233.481724 C64.4026462,234.848308 71.3839532,237.067695 71.3839532,238.528379 C71.3839532,239.989063 69.8421864,243.443228 68.6265751,243.443228 C67.4109639,243.443228 58.6354567,238.317227 56.761802,240.523171 C54.8881473,242.729116 68.0613044,246.254757 67.3761476,248.428898 C66.6909909,250.603038 62.5563888,258.45176 61.6897185,258.912675 C60.8230481,259.373591 52.7823744,253.033098 51.1864616,254.317957 C49.5905488,255.602816 59.6756005,261.516549 59.6756005,262.407042 C59.6756005,262.916618 57.5927071,265.627952 54.1937139,268.250261 C53.8107339,268.545728 51.0152063,264.961392 49.5264331,264.230068 C47.6833382,263.324691 46.5238101,264.230068 46.5238101,265.556898 C46.5238101,266.883729 50.1685172,270.88683 49.5264331,271.210632 C48.0235923,271.968513 42.6579603,273.393779 40.9440856,273.81344 C35.1910939,275.222126 25.2128179,274.354523 11.0092576,271.210632 Z M22.1432381,233.737924 C20.0990709,235.229864 25.6148183,242.620772 27.6046691,241.028261 C29.59452,239.43575 24.1874054,232.245983 22.1432381,233.737924 Z M27.642172,224.128579 C27.642172,224.77181 30.4993444,229.40603 31.7016682,230.296373 C32.9039921,231.186716 33.0023893,229.40603 33.3318734,228.43455 C33.6613574,227.463069 31.3455988,223.123382 30.1939301,222.543234 C29.0422613,221.963086 27.642172,223.485349 27.642172,224.128579 Z M47.4648545,216.940723 C46.9385223,216.687974 45.1493952,217.418621 44.9007238,218.446344 C44.6520524,219.474067 46.3171789,222.206633 47.1290475,222.698414 C47.9409161,223.190196 49.2053868,221.932975 49.2053868,221.212699 C49.2053868,220.492423 47.9911866,217.193472 47.4648545,216.940723 Z M62.5849575,232.871738 C63.4975855,232.292901 63.8881032,231.909216 63.8881032,231.215085 C63.8881032,230.520953 60.2835066,228.327991 59.1692295,228.002425 C58.0549524,227.676859 56.9087238,228.612164 57.2386521,229.512361 C57.5685804,230.412558 61.6723295,233.450574 62.5849575,232.871738 Z M45.5775575,243.979252 C45.1927201,244.491699 44.6547524,245.325223 44.6547524,246.086924 C44.6547524,246.848626 49.3400178,249.029067 50.7970038,249.029067 C52.2539898,249.029067 52.7363383,247.334612 52.1467749,246.4321 C51.5572115,245.529588 45.9623949,243.466804 45.5775575,243.979252 Z" id="Combined-Shape-Copy" fill="#000000" transform="translate(41.704633, 235.457101) scale(-1, 1) rotate(5.000000) translate(-41.704633, -235.457101) "></path>
            <path d="M12.2578251,269.215204 C5.74271439,250.478679 3.50069834,237.902376 5.53177695,231.486296 C8.57839486,221.862176 14.3917923,218.377539 15.3697121,218.377539 C16.3476318,218.377539 19.5250996,225.912577 20.9221278,224.325327 C22.319156,222.738077 19.3563104,217.596672 19.3563104,216.162516 C19.3563104,214.72836 30.4369033,209.528004 31.9881775,209.528004 C33.5394517,209.528004 39.2932687,227.231913 41.4782736,225.470453 C43.6632786,223.708992 34.3961781,208.167316 35.5032238,207.173085 C36.6102695,206.178854 41.5470233,203.925117 42.192653,203.925117 C42.8382828,203.925117 45.521282,213.346115 47.1479164,212.519495 C48.7745508,211.692876 47.1479164,202.738639 47.1479164,201.981968 C47.1479164,201.225297 52.435029,199.762545 52.435029,199.762545 C52.435029,199.762545 55.4860152,211.277147 56.7160169,210.402576 C57.9460187,209.528004 55.4860152,198.91041 56.7160169,198.168257 C57.9460187,197.426103 62.8559694,196.212563 63.8013601,196.629509 C64.7467508,197.046454 64.2347608,203.067743 66.2347942,201.981968 C68.2348277,200.896193 66.4502062,196.780494 67.342517,196.176038 C68.2348277,195.571583 79.0890455,193.777577 80.3495665,194.720013 C81.6100874,195.66245 81.0478614,210.402576 80.3495665,210.402576 C79.6512715,210.402576 71.681644,209.213407 71.2595796,211.641323 C70.8375151,214.069239 79.4364621,213.602672 79.4364621,214.307932 C79.4364621,215.013191 77.0834118,222.245462 77.0834118,223.033674 C77.0834118,223.821886 70.9284971,220.690678 69.8751425,221.862176 C68.821788,223.033674 76.23567,224.270768 76.23567,225.470453 C76.23567,226.670137 74.512596,232.924028 74.0767365,233.676174 C73.640877,234.42832 67.8991584,230.119712 66.775186,231.486296 C65.6512137,232.85288 72.6325207,235.072267 72.6325207,236.53295 C72.6325207,237.993634 71.0907538,241.447799 69.8751425,241.447799 C68.6595313,241.447799 59.8840241,236.321799 58.0103694,238.527743 C56.1367147,240.733687 69.3098718,244.259329 68.6247151,246.433469 C67.9395584,248.607609 63.8049563,256.456332 62.9382859,256.917247 C62.0716155,257.378163 54.0309418,251.037669 52.435029,252.322528 C50.8391162,253.607388 60.924168,259.521121 60.924168,260.411614 C60.924168,260.921189 58.8412746,263.632524 55.4422814,266.254832 C55.0593014,266.5503 52.2637738,262.965964 50.7750006,262.234639 C48.9319056,261.329263 47.7723775,262.234639 47.7723775,263.56147 C47.7723775,264.8883 51.4170847,268.891402 50.7750006,269.215204 C49.2721597,269.973084 43.9065277,271.39835 42.192653,271.818012 C36.4396613,273.226697 26.4613853,272.359095 12.2578251,269.215204 Z M23.3918056,231.742495 C21.3476383,233.234436 26.8633857,240.625344 28.8532366,239.032832 C30.8430874,237.440321 25.4359729,230.250554 23.3918056,231.742495 Z M28.8907394,222.133151 C28.8907394,222.776382 31.7479118,227.410602 32.9502357,228.300945 C34.1525596,229.191288 34.2509568,227.410602 34.5804408,226.439121 C34.9099249,225.46764 32.5941663,221.127953 31.4424975,220.547806 C30.2908287,219.967658 28.8907394,221.48992 28.8907394,222.133151 Z M48.7134219,214.945295 C48.1870898,214.692546 46.3979627,215.423193 46.1492913,216.450916 C45.9006198,217.478639 47.5657464,220.211204 48.377615,220.702986 C49.1894836,221.194767 50.4539542,219.937546 50.4539542,219.21727 C50.4539542,218.496994 49.2397541,215.198044 48.7134219,214.945295 Z M63.8335249,230.876309 C64.7461529,230.297473 65.1366706,229.913787 65.1366706,229.219656 C65.1366706,228.525525 61.5320741,226.332562 60.417797,226.006997 C59.3035198,225.681431 58.1572913,226.616735 58.4872195,227.516932 C58.8171478,228.41713 62.9208969,231.455145 63.8335249,230.876309 Z M46.8261249,241.983823 C46.4412875,242.49627 45.9033198,243.329795 45.9033198,244.091496 C45.9033198,244.853197 50.5885853,247.033638 52.0455712,247.033638 C53.5025572,247.033638 53.9849057,245.339183 53.3953423,244.436671 C52.805779,243.534159 47.2109623,241.471376 46.8261249,241.983823 Z" id="Combined-Shape" fill="#B93CF6" transform="translate(42.953200, 233.461673) scale(-1, 1) translate(-42.953200, -233.461673) "></path>
            <path d="M97.2717202,194.014213 C84.2036231,206.688651 60.1056793,231.525957 43.4953941,250.605193 C32.4218706,263.324683 19.6847466,280.711524 5.28402194,302.765714" id="Path-27" stroke="#FFFFFF" stroke-width="0.700000048" stroke-linecap="round" transform="translate(51.277871, 248.389964) scale(-1, 1) translate(-51.277871, -248.389964) "></path>
            <g id="Group-25-Copy" transform="translate(46.975694, 281.124767) rotate(-108.000000) translate(-46.975694, -281.124767) translate(21.788194, 250.666667)">
                <path d="M11.2881487,41.5523522 C7.77626882,31.5080334 6.56774124,24.7661008 7.66256593,21.3265542 C9.30480295,16.1672343 12.438434,14.2991824 12.9655681,14.2991824 C13.4927021,14.2991824 15.205472,18.3385827 15.9585206,17.4876861 C16.7115692,16.6367895 15.1144885,13.8805733 15.1144885,13.1117477 C15.1144885,12.3429221 21.087328,9.55510391 21.9235208,9.55510391 C22.7597136,9.55510391 25.8612286,19.045855 27.0390252,18.1015674 C28.2168217,17.1572798 23.2215201,8.82566293 23.8182576,8.2926734 C24.4149952,7.75968387 27.0760837,6.55149566 27.4241015,6.55149566 C27.7721192,6.55149566 29.2183526,11.6019252 30.0951673,11.1587892 C30.9719819,10.7156532 30.0951673,5.91544577 30.0951673,5.50980773 C30.0951673,5.10416968 32.9451118,4.32001473 32.9451118,4.32001473 C32.9451118,4.32001473 34.5897035,10.4927881 35.2527188,10.023946 C35.9157342,9.55510391 34.5897035,3.86320025 35.2527188,3.4653448 C35.9157342,3.06748934 38.5623749,2.41693206 39.0719746,2.64044927 C39.5815743,2.86396648 39.3055932,6.09187227 40.3836834,5.50980773 C41.4617736,4.92774318 40.4997983,2.7213898 40.9807859,2.3973519 C41.4617736,2.073314 47.3125888,1.11157939 47.9920551,1.61680274 C48.6715214,2.12202609 48.3684613,10.023946 47.9920551,10.023946 C47.615649,10.023946 43.319732,9.38645409 43.0922241,10.6880166 C42.8647161,11.9895791 47.4998589,11.7394611 47.4998589,12.1175382 C47.4998589,12.4956153 46.2314799,16.3727072 46.2314799,16.7952536 C46.2314799,17.2178 42.9137587,15.539215 42.3459626,16.1672343 C41.7781664,16.7952536 45.7745164,17.4584376 45.7745164,18.1015674 C45.7745164,18.7446972 44.8457174,22.0972971 44.6107733,22.5005091 C44.3758293,22.903721 41.2808358,20.5939529 40.6749741,21.3265542 C40.0691124,22.0591555 43.8322889,23.2489295 43.8322889,24.0319762 C43.8322889,24.8150229 43.0012209,26.6667394 42.3459626,26.6667394 C41.6907042,26.6667394 36.9603891,23.9187816 35.9504216,25.1013491 C34.940454,26.2839166 42.0412612,28.1739505 41.671937,29.3394685 C41.3026128,30.5049866 39.073913,34.7125471 38.6067464,34.9596358 C38.1395798,35.2067244 33.8053664,31.8076984 32.9451118,32.4964886 C32.0848572,33.1852789 37.5210642,36.3555261 37.5210642,36.8329036 C37.5210642,37.1060781 36.3983094,38.5595763 34.5661294,39.9653494 C34.3596893,40.1237443 32.8527991,38.2022455 32.0502966,37.8101955 C31.0568019,37.3248391 30.4317744,37.8101955 30.4317744,38.5214857 C30.4317744,39.232776 32.3964031,41.3787677 32.0502966,41.5523522 C31.2402111,41.9586383 28.3479418,42.7226981 27.4241015,42.9476713 C24.3230313,43.7028426 18.9443803,43.2377362 11.2881487,41.5523522 Z M17.289766,21.4638981 C16.1878861,22.2637011 19.161073,26.2258356 20.2336745,25.3721186 C21.3062759,24.5184016 18.391646,20.6640951 17.289766,21.4638981 Z M20.2538899,16.3124993 C20.2538899,16.6573239 21.7940089,19.141647 22.4421049,19.618944 C23.0902009,20.096241 23.1432405,19.141647 23.3208443,18.6208534 C23.4984481,18.1000598 22.2501706,15.7736306 21.6293796,15.4626238 C21.0085886,15.1516169 20.2538899,15.9676747 20.2538899,16.3124993 Z M30.9390313,12.4592172 C30.6553192,12.323723 29.6909151,12.7154098 29.5568723,13.2663538 C29.4228294,13.8172979 30.3203927,15.2821777 30.7580192,15.5458131 C31.1956457,15.8094484 31.877241,15.1354745 31.877241,14.7493474 C31.877241,14.3632203 31.2227433,12.5947114 30.9390313,12.4592172 Z M39.0893126,20.9995512 C39.581252,20.6892473 39.7917551,20.4835602 39.7917551,20.1114489 C39.7917551,19.7393376 37.8487475,18.5637292 37.2481119,18.3891991 C36.6474763,18.2146691 36.0296177,18.7160692 36.207461,19.1986489 C36.3853042,19.6812286 38.5973731,21.309855 39.0893126,20.9995512 Z M29.9217101,26.9540922 C29.7142688,27.2288061 29.4242848,27.6756437 29.4242848,28.0839782 C29.4242848,28.4923128 31.949812,29.6612084 32.73518,29.6612084 C33.5205481,29.6612084 33.7805513,28.7528414 33.4627554,28.2690207 C33.1449594,27.7852 30.1291513,26.6793783 29.9217101,26.9540922 Z" id="Combined-Shape-Copy" fill="#000000" transform="translate(27.834064, 22.385519) rotate(-3.000000) translate(-27.834064, -22.385519) "></path>
                <path d="M13.0591239,42.4456502 C9.5472441,32.4013315 8.33871652,25.6593988 9.4335412,22.2198522 C11.0757782,17.0605323 14.2094093,15.1924804 14.7365433,15.1924804 C15.2636774,15.1924804 16.9764472,19.2318807 17.7294959,18.3809841 C18.4825445,17.5300875 16.8854638,14.7738713 16.8854638,14.0050457 C16.8854638,13.2362201 22.8583033,10.4484019 23.6944961,10.4484019 C24.5306889,10.4484019 27.6322039,19.939153 28.8100005,18.9948654 C29.987797,18.0505778 24.9924953,9.71896093 25.5892329,9.18597141 C26.1859705,8.65298188 28.847059,7.44479367 29.1950767,7.44479367 C29.5430945,7.44479367 30.9893279,12.4952232 31.8661426,12.0520872 C32.7429572,11.6089512 31.8661426,6.80874378 31.8661426,6.40310573 C31.8661426,5.99746768 34.7160871,5.21331274 34.7160871,5.21331274 C34.7160871,5.21331274 36.3606788,11.3860861 37.0236941,10.917244 C37.6867095,10.4484019 36.3606788,4.75649826 37.0236941,4.3586428 C37.6867095,3.96078735 40.3333502,3.31023007 40.8429499,3.53374727 C41.3525496,3.75726448 41.0765685,6.98517028 42.1546587,6.40310573 C43.2327489,5.82104118 42.2707735,3.6146878 42.7517612,3.2906499 C43.2327489,2.966612 49.0835641,2.0048774 49.7630304,2.51010074 C50.4424967,3.01532409 50.1394366,10.917244 49.7630304,10.917244 C49.3866242,10.917244 45.0907073,10.2797521 44.8631994,11.5813146 C44.6356914,12.8828771 49.2708342,12.6327591 49.2708342,13.0108362 C49.2708342,13.3889133 48.0024552,17.2660052 48.0024552,17.6885516 C48.0024552,18.111098 44.684734,16.432513 44.1169378,17.0605323 C43.5491417,17.6885516 47.5454917,18.3517356 47.5454917,18.9948654 C47.5454917,19.6379952 46.6166926,22.9905952 46.3817486,23.3938071 C46.1468046,23.797019 43.0518111,21.4872509 42.4459494,22.2198522 C41.8400877,22.9524535 45.6032642,24.1422275 45.6032642,24.9252742 C45.6032642,25.7083209 44.7721962,27.5600374 44.1169378,27.5600374 C43.4616795,27.5600374 38.7313644,24.8120796 37.7213968,25.9946471 C36.7114293,27.1772146 43.8122365,29.0672485 43.4429123,30.2327666 C43.0735881,31.3982846 40.8448883,35.6058451 40.3777217,35.8529338 C39.9105551,36.1000224 35.5763417,32.7009964 34.7160871,33.3897867 C33.8558325,34.0785769 39.2920394,37.2488241 39.2920394,37.7262016 C39.2920394,37.9993762 38.1692847,39.4528743 36.3371047,40.8586474 C36.1306646,41.0170423 34.6237744,39.0955435 33.8212719,38.7034935 C32.8277771,38.2181371 32.2027496,38.7034935 32.2027496,39.4147837 C32.2027496,40.126074 34.1673784,42.2720657 33.8212719,42.4456502 C33.0111864,42.8519363 30.1189171,43.6159961 29.1950767,43.8409693 C26.0940065,44.5961406 20.7153556,44.1310342 13.0591239,42.4456502 Z M19.0607413,22.3571961 C17.9588614,23.1569991 20.9320483,27.1191336 22.0046498,26.2654166 C23.0772512,25.4116996 20.1626213,21.5573931 19.0607413,22.3571961 Z M22.0248652,17.2057973 C22.0248652,17.5506219 23.5649842,20.0349451 24.2130802,20.512242 C24.8611762,20.989539 24.9142158,20.0349451 25.0918196,19.5141514 C25.2694234,18.9933578 24.0211459,16.6669286 23.4003549,16.3559218 C22.7795638,16.044915 22.0248652,16.8609727 22.0248652,17.2057973 Z M32.7100065,13.3525152 C32.4262945,13.217021 31.4618904,13.6087078 31.3278476,14.1596518 C31.1938047,14.7105959 32.091368,16.1754757 32.5289945,16.4391111 C32.966621,16.7027464 33.6482163,16.0287725 33.6482163,15.6426454 C33.6482163,15.2565183 32.9937186,13.4880094 32.7100065,13.3525152 Z M40.8602879,21.8928492 C41.3522273,21.5825453 41.5627304,21.3768582 41.5627304,21.0047469 C41.5627304,20.6326356 39.6197228,19.4570272 39.0190872,19.2824971 C38.4184516,19.1079671 37.800593,19.6093672 37.9784363,20.0919469 C38.1562795,20.5745266 40.3683484,22.2031531 40.8602879,21.8928492 Z M31.6926853,27.8473902 C31.4852441,28.1221042 31.1952601,28.5689417 31.1952601,28.9772763 C31.1952601,29.3856108 33.7207873,30.5545064 34.5061553,30.5545064 C35.2915233,30.5545064 35.5515266,29.6461394 35.2337307,29.1623187 C34.9159347,28.678498 31.9001266,27.5726763 31.6926853,27.8473902 Z" id="Combined-Shape" fill="#FFA3E3"></path>
                <path d="M49.7464526,2.59432057 C42.7022766,9.38886166 29.712615,22.7037002 20.7590718,32.9317401 C14.7900429,39.7504333 7.92427327,49.0712098 0.161762865,60.8940697" id="Path-27" stroke="#74125D" stroke-width="0.5" stroke-linecap="round"></path>
            </g>
            <g id="Group-19" transform="translate(48.375000, 0.000000)">
                <mask id="mask-2" fill="white">
                    <use xlink:href="#path-1"></use>
                </mask>
                <use id="Rectangle-5" fill="#F5B5E4" xlink:href="#path-1"></use>
                <path d="M-15.8931954,223.184296 C-6.77421509,225.568017 36.2397761,241.38413 19.2997366,223.184296 C2.35969707,204.984461 -9.3766155,204.984461 -9.3766155,194.955882 C-9.3766155,184.927304 2.74052237,161.907542 11.0201295,161.907542 C19.2997366,161.907542 19.2997366,168.891073 19.2997366,184.947115 C19.2997366,201.003157 -9.91266109,197.261783 19.2997366,206.199818 C48.5121342,215.137853 36.7922013,210.079045 31.4890559,197.51308 C26.1859105,184.947115 27.139409,166.829007 38.5574621,166.829007 C49.9755152,166.829007 50.8646882,170.464848 60.3683813,174.600439 C69.8720743,178.73603 114.307216,194.496739 116.841902,184.947115 C119.376588,175.397491 115.168678,170.644785 96.5588894,164.571269 C77.9491011,158.497752 63.2379806,160.435677 66.3893117,153.595833 C69.5406428,146.755988 76.2758768,131.714962 96.5588894,142.655398 C116.841902,153.595833 138.325071,189.21534 160.05858,206.199818 C181.792088,223.184296 207.700374,225.813021 183.879477,203.320562 C160.05858,180.828103 136.338923,175.546704 139.013504,164.571269 C141.688086,153.595833 139.346677,147.695477 160.05858,135.833974 C180.770482,123.972472 139.346677,156.26877 160.05858,161.907542 C180.770482,167.546315 194.807895,180.415465 194.807895,153.595833 C194.807895,126.7762 189.215755,104.029527 156.824416,107.422738 C124.433076,110.815949 101.4718,108.59802 81.1943095,117.250524 C60.9168191,125.903029 55.1379598,166.547107 29.4284728,148.785248 C3.71898585,131.02339 28.6156751,127.07831 42.9420829,117.250524 C57.2684906,107.422738 60.9223412,83.0863028 27.4007928,102.837666 C-6.12075566,122.589029 -58.0146381,146.94757 -23.4972543,110.707264 C11.0201295,74.4669567 35.6435853,49.6663035 49.5318991,65.8623477 C63.4202129,82.0583919 83.5204713,95.3125477 73.6973009,75.7260983 C63.8741306,56.1396488 74.7643409,42.1170129 47.2270083,37.0511437 C19.6896756,31.9852746 24.7979995,1.44107135 38.5574621,5.46245038 C52.3169248,9.48382942 80.6255236,39.2582451 88.5922065,48.8170796 C96.5588894,58.3759142 81.382064,95.3125477 106.541172,95.3125477 C131.700281,95.3125477 181.315339,100.604999 152.220748,84.543431 C123.126157,68.4818626 103.316212,47.4557424 116.841902,44.430958 C130.367592,41.4061736 178.745679,51.3869469 186.776787,48.7876955 C194.807895,46.1884441 217.478336,40.0079937 172.096959,25.6227675 C126.715582,11.2375412 100.078367,29.472828 100.078367,5.46245038 C100.078367,-18.5479272 110.758287,-44.6122845 119.569865,-26.1209411 C128.381443,-7.62959763 171.175639,19.7408328 178.671095,5.46245038 C186.166551,-8.81593208 88.9069715,-75.6688256 85.0506405,-44.124119 C81.1943095,-12.5794123 102.916774,23.5043131 81.1943095,5.46245038 C59.4718454,-12.5794123 68.1600947,-30.4167981 62.1537901,-46.9462686 C56.1474856,-63.4757391 45.6258684,-46.1486245 38.5574621,-23.6727447 C31.4890559,-1.19686488 15.8630854,-41.2993342 2.35969707,-30.538063 C-11.1436913,-19.7767918 31.5240298,25.5011866 7.81541717,48.8170796 C-7.99032457,64.3610083 -22.4253354,71.4759447 -35.4896154,70.161889" id="Path-2" stroke="#FFFFFF" stroke-width="0.700000048" mask="url(#mask-2)"></path>
                <g id="Group-16" mask="url(#mask-2)">
                    <g transform="translate(-6.296875, -7.001862)">
                        <mask id="mask-4" fill="white">
                            <use xlink:href="#path-3"></use>
                        </mask>
                        <g id="Rectangle-3-Copy-2" stroke="none" fill="none"></g>
                        <path d="M-9.59632043,230.186158 C-0.477340089,232.56988 42.5366511,248.385992 25.5966116,230.186158 C8.65657207,211.986323 -3.0797405,211.986323 -3.0797405,201.957745 C-3.0797405,191.929166 9.03739737,168.909405 17.3170045,168.909405 C25.5966116,168.909405 25.5966116,175.892936 25.5966116,191.948978 C25.5966116,208.00502 -3.61578609,204.263645 25.5966116,213.20168 C54.8090092,222.139716 43.0890763,217.080907 37.7859309,204.514942 C32.4827855,191.948978 33.436284,173.830869 44.8543371,173.830869 C56.2723902,173.830869 57.1615632,177.46671 66.6652563,181.602301 C76.1689493,185.737893 120.604091,201.498601 123.138777,191.948978 C125.673463,182.399354 121.465553,177.646647 102.855764,171.573131 C84.2459761,165.499614 69.5348556,167.437539 72.6861867,160.597695 C75.8375178,153.757851 82.5727518,138.716825 102.855764,149.65726 C123.138777,160.597695 144.621946,196.217203 166.355455,213.20168 C188.088963,230.186158 213.997249,232.814883 190.176352,210.322424 C166.355455,187.829965 142.635798,182.548567 145.310379,171.573131 C147.984961,160.597695 145.643552,154.697339 166.355455,142.835837 C187.067357,130.974334 145.643552,163.270632 166.355455,168.909405 C187.067357,174.548178 201.10477,187.417327 201.10477,160.597695 C201.10477,133.778063 195.51263,111.031389 163.121291,114.4246 C130.729951,117.817812 107.768675,115.599882 87.4911845,124.252387 C67.2136941,132.904891 61.4348348,173.548969 35.7253478,155.78711 C10.0158609,138.025252 34.9125501,134.080173 49.2389579,124.252387 C63.5653656,114.4246 67.2192162,90.088165 33.6976678,109.839528 C0.176119342,129.590892 -51.7177631,153.949433 -17.2003793,117.709126 C17.3170045,81.4688189 41.9404603,56.6681657 55.8287741,72.8642099 C69.7170879,89.0602541 89.8173463,102.31441 79.9941759,82.7279605 C70.1710056,63.141511 81.0612159,49.1188751 53.5238833,44.0530059 C25.9865506,38.9871368 31.0948745,8.44293354 44.8543371,12.4643126 C58.6137998,16.4856916 86.9223986,46.2601073 94.8890815,55.8189418 C102.855764,65.3777764 87.678939,102.31441 112.838047,102.31441 C137.997156,102.31441 187.612214,107.606862 158.517623,91.5452932 C129.423032,75.4837248 109.613087,54.4576046 123.138777,51.4328202 C136.664467,48.4080358 185.042554,58.3888091 193.073662,55.7895577 C201.10477,53.1903063 223.775211,47.0098559 178.393834,32.6246296 C133.012457,18.2394034 106.375242,36.4746902 106.375242,12.4643126 C106.375242,-11.546065 117.055162,-37.6104223 125.86674,-19.1190789 C134.678318,-0.627735432 177.472514,26.742695 184.96797,12.4643126 C192.463426,-1.81406988 95.2038465,-68.6669634 91.3475155,-37.1222568 C87.4911845,-5.57755012 109.213649,30.5061753 87.4911845,12.4643126 C65.7687204,-5.57755012 74.4569697,-23.4149359 68.4506651,-39.9444064 C62.4443606,-56.4738769 51.9227434,-39.1467623 44.8543371,-16.6708825 C37.7859309,5.80499732 22.1599604,-34.297472 8.65657207,-23.5362008 C-4.84681628,-12.7749296 37.8209048,32.5030488 14.1122922,55.8189418 C-1.69344957,71.3628705 -16.1284604,78.4778069 -29.1927404,77.1637512" id="Path-2-Copy" stroke="#FFFFFF" stroke-width="0.700000048" fill="none" mask="url(#mask-4)"></path>
                    </g>
                </g>
                <path d="M138.573552,205.154562 L43.90891,205.154562 C39.6278724,205.154562 35.5821335,207.113297 32.92694,210.471456 L14.0069861,234.400488 C11.3517926,237.758647 7.3060537,239.717381 3.02501605,239.717381 L-17.8081633,239.717381 C-25.5401503,239.717381 -31.8081642,245.985395 -31.8081642,253.717382 L-31.8081642,301.488289 C-31.8081642,309.220276 -25.5401503,315.48829 -17.8081633,315.48829 L138.573552,315.48829 C146.305539,315.48829 152.573553,309.220276 152.573553,301.488289 L152.573553,219.154563 C152.573553,211.422576 146.305539,205.154562 138.573552,205.154562 Z" id="Path-73" fill="#E6DBFF" mask="url(#mask-2)"></path>
            </g>
            <path d="M400.969937,244.364991 L388.605221,233.164978 C385.901706,230.716123 382.384273,229.359901 378.736551,229.359901 L361.507733,229.359901 C358.690557,229.359901 356.054031,230.747099 354.458439,233.068859 L354.458439,233.068859 C353.275881,234.789611 350.922283,235.225902 349.201531,234.043344 C349.021308,233.919489 348.852171,233.780229 348.696023,233.627133 L338.225974,223.361738 C335.477996,220.667474 331.783029,219.158287 327.934595,219.158287 L303.104169,219.158287 C299.0552,219.158287 295.185515,220.828357 292.408036,223.774501 L272.996338,244.364991 L400.969937,244.364991 Z" id="Path-30" fill="#D38BF7"></path>
            <g id="box_unlocked-copy-14" transform="translate(232.383681, 171.545624)">
                <g id="Rectangle-2-Copy-3" transform="translate(60.376261, 23.324953)" fill="#FFFFFF" stroke="#C175E6" stroke-width="1.07519988">
                    <path d="M12.5080911,1.34839432 L1.24928102,12.1761708 L0.714385551,61.2750922 L0.86378128,61.5744585 L12.5080911,50.0564512 L12.5080911,1.34839432 Z" id="lol"></path>
                </g>
                <g id="Rectangle-2-Copy-3" transform="translate(60.376261, 23.324953)">
                    <mask id="mask-6" fill="white">
                        <use xlink:href="#path-5"></use>
                    </mask>
                    <path stroke="#C175E6" stroke-width="1.07519988" d="M12.5080911,1.34839432 L1.24928102,12.1761708 L0.714385551,61.2750922 L0.86378128,61.5744585 L12.5080911,50.0564512 L12.5080911,1.34839432 Z"></path>
                    <path d="M-0.113681102,58.0047017 L14.8685117,43.3186718" id="Path-36" stroke="#6F00C3" stroke-width="1.07519988" mask="url(#mask-6)"></path>
                    <path d="M-0.113681102,53.6985564 L14.8685117,39.0125266" id="Path-36-Copy" stroke="#6F00C3" stroke-width="1.07519988" mask="url(#mask-6)"></path>
                    <path d="M-0.113681102,49.3924112 L14.8685117,34.7063813" id="Path-36-Copy-3" stroke="#6F00C3" stroke-width="1.07519988" mask="url(#mask-6)"></path>
                    <path d="M-0.113681102,45.0862659 L14.8685117,30.400236" id="Path-36-Copy-2" stroke="#6F00C3" stroke-width="1.07519988" mask="url(#mask-6)"></path>
                    <path d="M-0.113681102,40.4212752 L14.8685117,25.7352454" id="Path-36-Copy-7" stroke="#6F00C3" stroke-width="1.07519988" mask="url(#mask-6)"></path>
                    <path d="M-0.113681102,36.11513 L14.8685117,21.4291001" id="Path-36-Copy-6" stroke="#6F00C3" stroke-width="1.07519988" mask="url(#mask-6)"></path>
                    <path d="M-0.113681102,31.8089847 L14.8685117,17.1229549" id="Path-36-Copy-5" stroke="#6F00C3" stroke-width="1.07519988" mask="url(#mask-6)"></path>
                    <path d="M-0.113681102,27.5028395 L14.8685117,12.8168096" id="Path-36-Copy-4" stroke="#6F00C3" stroke-width="1.07519988" mask="url(#mask-6)"></path>
                    <path d="M-0.113681102,22.8378488 L14.8685117,8.15181892" id="Path-36-Copy-9" stroke="#6F00C3" stroke-width="1.07519988" mask="url(#mask-6)"></path>
                    <path d="M-0.113681102,18.1728581 L14.8685117,3.48682823" id="Path-36-Copy-8" stroke="#6F00C3" stroke-width="1.07519988" mask="url(#mask-6)"></path>
                </g>
                <g id="Group-2" transform="translate(7.884884, 35.525698)" fill="#FFFFFF" stroke="#6F00C3" stroke-width="1.07519988">
                    <rect id="Rectangle-2" x="0.53759994" y="0.53759994" width="52.1303456" height="49.1631614"></rect>
                </g>
                <g id="Path-3" transform="translate(7.884884, 23.324953)">
                    <mask id="mask-8" fill="white">
                        <use xlink:href="#path-7"></use>
                    </mask>
                    <use id="Mask" fill="#3D0467" xlink:href="#path-7"></use>
                    <polygon id="Path-82" fill="#550591" mask="url(#mask-8)" points="-0.714168396 12.7656461 11.8601471 12.7656461 11.8601471 0"></polygon>
                </g>
                <g id="Group" transform="translate(0.029031, 0.000000)">
                    <polygon id="Combined-Shape" fill="url(#linearGradient-9)" points="9.28418914 3.84702121 68.0328144 3.84702121 60.8207844 35.6581628 20.5992178 35.6581628"></polygon>
                    <path d="M30.4661384,35.6581628 C27.0564211,12.4136743 25.3520346,0.781357026 25.3529789,0.761211037 C25.3781238,0.224723571 53.4473776,0.224723571 53.4473776,0.761211037 C53.4473776,0.781528264 51.7148297,12.4138455 48.2497339,35.6581628 L30.4661384,35.6581628 Z" id="Combined-Shape-Copy-5" fill="url(#linearGradient-10)"></path>
                    <path d="M22.7345275,35.6581628 L12.4937623,35.6581628 C4.27010328,12.6482856 0.158273748,1.12810912 0.158273748,1.09763328 C0.158273748,0.561145814 10.3990389,-0.153860203 10.4241838,0.382627263 C10.4256002,0.412846247 14.5290481,12.1713581 22.7345275,35.6581628 Z" id="Combined-Shape-Copy" fill="url(#linearGradient-10)"></path>
                    <path d="M59.326279,35.6585235 C63.9812084,12.8420013 66.3091452,1.42366715 66.3100894,1.40352117 C66.3352343,0.8670337 76.5759995,1.58203972 76.5759995,2.11852718 C76.5759995,2.14900302 75.8596915,10.1272554 70.4041711,26.3017235 L61.044398,35.6585235 L59.326279,35.6585235 Z" id="Combined-Shape-Copy-4" fill="url(#linearGradient-10)"></path>
                </g>
            </g>
            <g id="Girl_1_" transform="translate(212.425347, 232.523277) scale(-1, 1) translate(-212.425347, -232.523277) translate(74.925347, 87.523277)">
                <path d="M271.452027,156.891136 C296.83984,167.24458 179.177093,269.449858 91.9936707,224.67821 C4.81024845,179.906562 162.926103,180.815986 162.926103,180.815986 C162.926103,180.815986 215.026916,133.875711 271.452027,156.891136 Z" id="Shape" fill-rule="nonzero"></path>
                <g id="chair_1_" transform="translate(70.664931, 31.508380)" fill-rule="nonzero">
                    <path d="M75.1338382,37.2610722 C75.5062252,25.4359501 77.8423916,-2.85837246 116.535438,0.348812882 C180.080109,5.61589719 204.679332,191.426688 80.7993183,191.426688 C53.6767627,191.426688 19.5268428,186.469398 8.01529628,176.778369 C-2.3392156,168.061392 -2.9273256,145.817478 8.01529628,138.004069 C33.9430373,119.447224 73.2773053,96.2151569 75.1338382,37.2610722 Z" id="Shape" fill="#F6F8FF"></path>
                    <path d="M82.5189149,45.8916341 C72.3121658,72.5149429 63.6200802,94.0044177 40.8159513,98.1820834 C17.942085,102.359749 14.8736396,133.970753 28.1934824,142.256457 C41.5133253,150.542161 64.108242,148.105189 64.108242,148.105189 C64.108242,148.105189 111.578459,118.318393 111.578459,95.4166679 C111.578459,72.5149429 100.839946,-1.89698806 82.5189149,45.8916341 Z" id="armrest_1_" fill="#F6F8FF"></path>
                    <path d="M118.41729,23.2309379 C134.50872,46.6843558 148.73602,143.431857 113.050527,151.733604 C77.2953354,160.03535 92.419851,162.546803 69.0709444,165.197781 C45.7220379,167.848759 0.418189371,156.547221 12.0577935,147.408324 C23.6973977,138.269426 68.5997128,137.044851 84.1743368,124.294438 C115.491706,98.6559776 74.5508726,55.3795535 84.1743368,29.1263094 C90.0204677,13.1778009 113.050527,15.4088271 118.41729,23.2309379 Z" id="Shape" fill="#000000"></path>
                </g>
                <g id="Group-34" transform="translate(0.000000, 135.135940)">
                    <g id="Group-13" transform="translate(0.000000, 0.424303)">
                        <g id="Group-3" transform="translate(34.671962, 92.779324) rotate(-334.000000) translate(-34.671962, -92.779324) translate(9.484462, 66.172248)">
                            <g id="Group-33" transform="translate(30.864277, 0.000000)">
                                <mask id="mask-12" fill="white">
                                    <use xlink:href="#path-11"></use>
                                </mask>
                                <use id="Path-3" fill="#8C3CF6" xlink:href="#path-11"></use>
                                <path d="M0.573489277,18.593473 C2.88818887,20.6329553 5.40165898,22.0691703 8.1138996,22.9021181 C10.8261402,23.7350658 14.0078616,24.5957978 17.6590638,25.4843143 L15.7640824,15.7541782 L1.73075975,14.8577411 L0.573489277,18.593473 Z" id="Path-49" fill="#000000" mask="url(#mask-12)"></path>
                            </g>
                            <g id="Group-8" transform="translate(24.859081, 33.415182) scale(-1, 1) rotate(-18.000000) translate(-24.859081, -33.415182) translate(3.169844, 19.761551)">
                                <g id="Group-11">
                                    <mask id="mask-14" fill="white">
                                        <use xlink:href="#path-13"></use>
                                    </mask>
                                    <use id="Path-187" fill="#FFA3E3" xlink:href="#path-13"></use>
                                    <polygon id="Path-188" fill="#8C3CF6" mask="url(#mask-14)" points="0.330516422 10.8734129 43.0629016 25.3788964 50.0646038 32.1491289 -5.70501715 14.0696091"></polygon>
                                </g>
                                <path d="M19.3811975,17.4115929 C20.3670426,15.443128 22.0017015,14.786973 24.2851741,15.443128 C27.7103831,16.4273604 30.9397423,17.7257042 35.1242385,16.3043314" id="Path-189" stroke="#FFFFFF" stroke-width="0.806400071" stroke-linecap="round" stroke-linejoin="round"></path>
                                <path d="M27.484746,13.3318032 C28.0734431,12.5898864 28.7242361,11.9300964 29.4371251,11.3524332" id="Path-190" stroke="#FFFFFF" stroke-width="0.806400071" stroke-linecap="round" stroke-linejoin="round"></path>
                                <path d="M24.4937491,10.8991389 C25.0824461,10.1572222 25.7332392,9.49743218 26.4461282,8.91976895" id="Path-190-Copy" stroke="#FFFFFF" stroke-width="0.806400071" stroke-linecap="round" stroke-linejoin="round"></path>
                                <path d="M21.8261218,8.46647467 C22.4148189,7.72455792 23.0656119,7.06476793 23.778501,6.48710469" id="Path-190-Copy-2" stroke="#FFFFFF" stroke-width="0.806400071" stroke-linecap="round" stroke-linejoin="round"></path>
                            </g>
                        </g>
                        <g id="Group-3" transform="translate(88.584495, 125.035587) rotate(-361.000000) translate(-88.584495, -125.035587) translate(63.396995, 98.428511)">
                            <g id="Group-33" transform="translate(30.864277, 0.000000)">
                                <mask id="mask-16" fill="white">
                                    <use xlink:href="#path-15"></use>
                                </mask>
                                <use id="Path-3" fill="#8C3CF6" xlink:href="#path-15"></use>
                                <path d="M0.573489277,18.593473 C2.88818887,20.6329553 5.40165898,22.0691703 8.1138996,22.9021181 C10.8261402,23.7350658 14.0078616,24.5957978 17.6590638,25.4843143 L15.7640824,15.7541782 L1.73075975,14.8577411 L0.573489277,18.593473 Z" id="Path-49" fill="#000000" mask="url(#mask-16)"></path>
                            </g>
                            <g id="Group-8" transform="translate(24.859081, 33.415182) scale(-1, 1) rotate(-18.000000) translate(-24.859081, -33.415182) translate(3.169844, 19.761551)">
                                <g id="Group-11">
                                    <mask id="mask-18" fill="white">
                                        <use xlink:href="#path-17"></use>
                                    </mask>
                                    <use id="Path-187" fill="#FFA3E3" xlink:href="#path-17"></use>
                                    <polygon id="Path-188" fill="#8C3CF6" mask="url(#mask-18)" points="0.330516422 10.8734129 43.0629016 25.3788964 50.0646038 32.1491289 -5.70501715 14.0696091"></polygon>
                                </g>
                                <path d="M19.3811975,17.4115929 C20.3670426,15.443128 22.0017015,14.786973 24.2851741,15.443128 C27.7103831,16.4273604 30.9397423,17.7257042 35.1242385,16.3043314" id="Path-189" stroke="#FFFFFF" stroke-width="0.806400071" stroke-linecap="round" stroke-linejoin="round"></path>
                                <path d="M27.484746,13.3318032 C28.0734431,12.5898864 28.7242361,11.9300964 29.4371251,11.3524332" id="Path-190" stroke="#FFFFFF" stroke-width="0.806400071" stroke-linecap="round" stroke-linejoin="round"></path>
                                <path d="M24.4937491,10.8991389 C25.0824461,10.1572222 25.7332392,9.49743218 26.4461282,8.91976895" id="Path-190-Copy" stroke="#FFFFFF" stroke-width="0.806400071" stroke-linecap="round" stroke-linejoin="round"></path>
                                <path d="M21.8261218,8.46647467 C22.4148189,7.72455792 23.0656119,7.06476793 23.778501,6.48710469" id="Path-190-Copy-2" stroke="#FFFFFF" stroke-width="0.806400071" stroke-linecap="round" stroke-linejoin="round"></path>
                            </g>
                        </g>
                        <g id="Group-12" transform="translate(42.952591, 0.666761)">
                            <mask id="mask-20" fill="white">
                                <use xlink:href="#path-19"></use>
                            </mask>
                            <use id="Combined-Shape" fill="#B93CF6" xlink:href="#path-19"></use>
                            <path d="M35.8693563,70.0444749 C45.8476608,45.0412485 54.576728,31.8213683 62.0565578,30.3848343 C68.7489759,29.0995262 82.4904147,31.060425 98.261095,32.2757419 C108.929738,33.0978866 120.52703,33.5788283 131.498934,32.4827792 C149.626183,30.67194 117.749657,43.1925052 35.8693563,70.0444749 Z" id="Path-33" fill="#000000" mask="url(#mask-20)"></path>
                        </g>
                    </g>
                    <g id="Group-25" transform="translate(104.065732, 30.510005)">
                        <mask id="mask-22" fill="white">
                            <use xlink:href="#path-21"></use>
                        </mask>
                        <use id="Path-230" fill="#B93CF6" xlink:href="#path-21"></use>
                    </g>
                    <g id="Group-4" transform="translate(73.173375, 30.510005)">
                        <g id="Group-7" transform="translate(0.000000, 88.452354)">
                            <path d="M0.149764476,23.2841589 C-0.609810209,21.7445108 1.47767187,16.4145844 7.37994897,14.4969138 C13.2822261,12.5792432 16.918084,7.98446605 20.1231676,4.0297626 C21.7989476,2.59220477 26.2591633,2.59220477 28.293236,4.45893365 C30.3273087,6.32566254 32.2030654,8.74376391 36.0440392,7.82115255 C36.0440392,10.3633253 37.115582,15.6433715 36.0440392,16.768247 C34.9724963,17.8931225 23.5147991,22.5366742 17.4557844,24.9068756 C11.3967696,27.277077 0.909339162,24.8238071 0.149764476,23.2841589 Z M0.149764476,23.2841589 C0.909339162,24.8238071 11.3967696,27.277077 17.4557844,24.9068756 C23.5147991,22.5366742 34.9724963,17.8931225 36.0440392,16.768247 C37.115582,15.6433715 36.0440392,10.3633253 36.0440392,7.82115255 C32.2030654,8.74376391 30.3273087,6.32566254 28.293236,4.45893365 C26.2591633,2.59220477 21.7989476,2.59220477 20.1231676,4.0297626 C16.918084,7.98446605 13.2822261,12.5792432 7.37994897,14.4969138 C1.47767187,16.4145844 -0.609810209,21.7445108 0.149764476,23.2841589 Z" id="Path-231" fill="#8C3CF6"></path>
                            <path d="M0.149764476,21.2668276 C-0.609810209,19.7271795 1.47767187,14.3972531 7.37994897,12.4795825 C13.2822261,10.5619118 16.918084,5.96713472 20.1231676,2.01243127 C21.7989476,0.574873429 26.2591633,0.574873429 28.293236,2.44160232 C30.3273087,4.3083312 32.2030654,6.72643257 36.0440392,5.80382121 C36.0440392,8.34599399 37.115582,13.6260402 36.0440392,14.7509157 C34.9724963,15.8757912 23.5147991,20.5193429 17.4557844,22.8895443 C11.3967696,25.2597456 0.909339162,22.8064758 0.149764476,21.2668276 Z M0.149764476,21.2668276 C0.909339162,22.8064758 11.3967696,25.2597456 17.4557844,22.8895443 C23.5147991,20.5193429 34.9724963,15.8757912 36.0440392,14.7509157 C37.115582,13.6260402 36.0440392,8.34599399 36.0440392,5.80382121 C32.2030654,6.72643257 30.3273087,4.3083312 28.293236,2.44160232 C26.2591633,0.574873429 21.7989476,0.574873429 20.1231676,2.01243127 C16.918084,5.96713472 13.2822261,10.5619118 7.37994897,12.4795825 C1.47767187,14.3972531 -0.609810209,19.7271795 0.149764476,21.2668276 Z" id="Path-231-Copy" fill="#FFA3E3"></path>
                        </g>
                        <path d="M34.4530321,0 C42.3435799,0 50.8487128,3.97528899 48.6820289,17.3924298 C47.7361927,23.2494988 51.0733048,24.5697757 48.6820289,41.6107974 C48.1579537,45.3455302 42.7264292,57.4970947 42.116573,62.0126679 C41.5761399,66.0142099 42.8397363,72.3285901 42.116573,76.888114 C41.8340813,78.6692161 40.2863031,82.3196499 37.4732386,87.8394153 C33.8190378,88.0048842 30.8675855,88.0048842 28.6188815,87.8394153 C26.3701776,87.6739464 22.991612,87.1893663 18.4831847,86.3856751 C19.4932457,47.7993853 20.417548,24.8016369 21.2560915,17.3924298 C22.5139068,6.2786192 26.5624842,0 34.4530321,0 Z" id="Path-229" fill="#B93CF6"></path>
                    </g>
                </g>
                <g id="Group-20" transform="translate(156.697917, 79.000000) scale(-1, 1) translate(-156.697917, -79.000000) translate(107.697917, 0.000000)">
                    <path d="M45.5241438,6.10592664 C51.0238048,8.45370622 52.1540542,33.479868 64.1542821,51.1757858 C76.15451,68.8717036 76.15451,92.4000197 61.2058902,97.7668197 C46.2572704,103.13362 43.5236563,93.529835 29.2086497,80.9709541 C19.665312,72.5983669 15.385674,62.242012 16.3697359,49.9018894 L18.5491765,16.2292087 C32.8660473,7.9151676 41.857703,4.54074025 45.5241438,6.10592664 Z" id="Path-76" fill="#000000"></path>
                    <path d="M41.4984698,56.006107 C46.4172892,56.8983362 51.1615907,59.6698961 53.2687328,78.5412559 C54.6734942,91.1221625 55.0400074,104.309782 54.3682724,118.104115 C39.6456973,112.66771 32.2844097,109.949508 32.2844097,109.949508 C32.2844097,109.949508 25.1478055,65.5156195 29.2655652,55.6212116 C29.8534914,54.208506 40.8839147,55.8946323 41.4984698,56.006107 Z" id="Path-79" fill="#8C3CF6"></path>
                    <path d="M36.6440499,55.2132863 C38.6563806,55.5176143 41.9548827,55.5176143 45.2589024,60.4550616 C48.5629221,65.3925089 53.9275683,71.8450585 57.9272664,79.1104611 C61.9269645,86.3758638 63.0312662,93.7002126 58.5560514,108.040135 C55.5725748,117.600082 55.5725748,127.450829 58.5560514,137.592373 C53.3739753,139.670115 48.3668527,143.285098 43.5346835,148.437324 C38.7025143,153.58955 25.9692759,156.724139 5.33496828,157.841092 C10.095666,134.829134 12.4760149,120.828309 12.4760149,115.838616 C12.4760149,108.354077 -0.412293992,75.474489 3.49662178,66.3244609 C4.75366119,63.3819708 12.0487823,60.717898 21.9326804,56.1145561 C28.4862437,53.0622895 34.9424668,54.9559532 36.6440499,55.2132863 Z" id="Path-78" fill="#FFA3E3"></path>
                    <path d="M45.6542857,10.104174 C47.5338713,12.6541141 47.7415923,16.4275337 48.5700162,20.1465321 C49.1222989,22.6258643 50.1585526,25.5153779 51.6787776,28.8150727 L48.6665316,29.8942937 L49.4779045,33.77202 C47.0557967,34.6743759 44.8919212,34.8999649 42.986278,34.4487869 L36.502051,45.3185908 C35.9348189,50.4701726 36.3284012,53.8878907 37.6827978,55.571745 C45.1622831,64.870619 50.7938874,71.0119879 41.2474785,74.0036011 C35.3466995,75.8527622 30.8570693,74.0036011 23.4760784,64.9546136 C20.7280366,61.5855543 16.6958639,60.2373616 11.3795602,60.9100353 C12.7581155,60.0577036 15.0303819,57.9497861 18.1963594,54.5862828 C19.7895977,44.830626 15.8477314,35.3078418 19.3540157,22.5569553 C21.4807072,14.8230696 22.84879,12.799459 29.4312435,8.41822582 C35.6487245,4.27991579 42.2685661,5.51093691 45.6542857,10.104174 Z" id="Path-74" fill="#8C3CF6"></path>
                    <g id="chin" transform="translate(32.000000, 33.000000)" fill="#8C3CF6">
                        <path d="M10.4845111,1.03255246 C12.7020063,2.72500634 14.8658818,3.57123328 16.9761376,3.57123328 C16.499566,4.33836456 16.2291083,5.01309237 16.1647647,5.59541671 C16.0682493,6.46890321 15.9081946,11.7789744 13.1525188,12.3192289 C11.3154015,12.6793985 8.26465664,12.540441 4.00028408,11.9023563 C2.28216258,11.7531899 1.34675778,11.5212229 1.19406967,11.2064552 C-1.76905462,5.0979525 2.67615148,1.19073314 10.4845111,1.03255246 Z" id="Path-74" transform="translate(8.622998, 6.773352) rotate(-1.000000) translate(-8.622998, -6.773352) "></path>
                    </g>
                    <path d="M48.8561326,6.5409301 C50.786027,10.726234 49.0812296,14.1130856 43.0526935,16.6786452 C37.0241573,19.2442049 32.8905004,24.7589067 32.8905004,28.077552 C32.8905004,31.3961973 29.6415999,28.8343921 27.1558409,28.077552 C24.6700819,27.3207119 23.1835036,30.3590228 24.2111341,33.1313916 C24.8962211,34.9796375 25.6968787,36.1629237 26.613107,36.6812502 C25.2577845,40.3535454 24.0257722,43.2522072 22.9170699,45.3772356 C21.8083677,47.502264 20.2347975,50.5719464 18.1963594,54.5862828 C14.3747096,59.0411158 11.0344253,61.6742352 8.17550637,62.4856408 C-1.95599248,52.4195497 10.6289477,43.2057989 9.39242974,25.5457276 C8.17550637,8.16550778 17.5783432,2.05196602 26.613107,0.555281706 C35.6478708,-0.94140261 46.9262382,2.35562625 48.8561326,6.5409301 Z" id="Path-75" fill="#000000"></path>
                    <path d="M12.1379533,54.3786294 C15.5913938,52.4867493 24.2996542,52.9703307 28.6093273,61.6363641 C31.4824427,67.4137198 38.4175515,81.3101005 49.4146538,103.325506 L84.8968192,78.7873104 L89.1716783,84.8096533 C68.0630466,109.236045 54.8093669,122.433493 49.4106393,124.401997 C41.3125478,127.354753 37.5565416,124.987718 29.5193752,112.366925 C21.4822087,99.7461313 10.4671426,78.6599807 8.74818792,70.503336 C7.02923327,62.3466914 8.68451269,56.2705095 12.1379533,54.3786294 Z" id="Path-77" fill="#8C3CF6" transform="translate(48.617200, 89.507782) rotate(-15.000000) translate(-48.617200, -89.507782) "></path>
                    <path d="M80.8859589,69.7627454 C80.7800788,65.9882779 80.7271388,63.7049674 80.7271388,62.9128137 C80.7271388,62.12066 82.3385996,60.0941455 85.5615213,56.8332701 L90.8278218,65.1111188 L86.5738527,74.4734669 L81.9926015,74.4734669 L80.8859589,69.7627454 Z" id="Path-32" fill="#8C3CF6"></path>
                    <g id="Group-21" transform="translate(81.859375, 44.111732)">
                        <mask id="mask-24" fill="white">
                            <use xlink:href="#path-23"></use>
                        </mask>
                        <use id="Path-81" fill="#000000" xlink:href="#path-23"></use>
                        <path d="M14.4998805,0.804313876 L8.12141519,2.1702568 C7.6150888,2.27868617 7.20995822,2.65773303 7.06812236,3.15573497 L1.96133391,21.0862539 C1.85543784,21.4580671 2.07100629,21.845327 2.44281952,21.9512231 C2.55363687,21.982785 2.67053182,21.9865032 2.78313096,21.9620477 L9.06533765,20.5976117 C9.56745049,20.4885575 9.96947834,20.113214 10.1127067,19.6197611 L15.3187156,1.68392145 C15.4264811,1.31264574 15.2128639,0.924306107 14.8415882,0.816540609 C14.7304475,0.784281214 14.6130425,0.780080316 14.4998805,0.804313876 Z" id="Path-81-Copy" stroke="#B93CF6" stroke-width="0.700000048" mask="url(#mask-24)"></path>
                    </g>
                    <path d="M83.6081716,60.8126245 C83.6081716,61.6198295 84.0022742,63.8045358 85.5881091,62.9528626 C86.6606045,62.3768785 88.4964198,61.0928637 89.3017268,59.8748027 C90.9991921,57.3073142 91.7558517,53.7163514 92.138897,53.2981652 C92.7036656,52.6815842 94.5715584,56.5919611 94.8909494,58.6550161 C95.2103403,60.7180711 93.9258863,64.692012 93.4193504,65.9325141 C93.0816598,66.7595156 90.7998272,69.6064998 86.5738527,74.4734669 L84.3317099,72.7235796 L81.5967718,67.7924889 C82.937705,62.6011093 83.6081716,60.2744878 83.6081716,60.8126245 Z" id="Path-34" fill="#8C3CF6"></path>
                </g>
                <path d="M202.15954,98.4056005 C202.15954,125.340692 183.260705,146.518384 160.456576,150.69605 C137.58271,154.873716 134.514265,186.48472 147.834107,194.770423 C161.15395,203.056127 183.748867,200.619155 183.748867,200.619155 C183.748867,200.619155 231.219084,170.832359 231.219084,147.930634 C231.219084,125.028909 202.15954,44.9317857 202.15954,98.4056005 Z" id="armrest_1_" fill="#F6F8FF" fill-rule="nonzero"></path>
            </g>
            <g id="Group-7" transform="translate(130.923611, 270.363128) scale(-1, 1) translate(-130.923611, -270.363128) translate(109.923611, 237.363128)">
                <path d="M23.7158277,65.5093371 C23.7158277,41.4579104 18.5326597,22.3655413 8.16632381,8.23222978" id="Path-29" stroke="#B93CF6" stroke-width="0.700000048"></path>
                <path d="M23.7881944,50.9516722 C25.2976016,47.2929283 27.855832,44.6981195 31.4628856,43.1672457 C35.0699393,41.6363719 38.3791448,41.4730231 41.390502,42.6771995 C40.6726862,45.1823606 38.0391677,47.3509735 33.4899466,49.1830384 C28.9407255,51.0151032 25.7068081,51.6046478 23.7881944,50.9516722 Z" id="Path-14" fill="#FFA3E3"></path>
                <path d="M22.2275045,51.1362154 C19.0088921,48.8830344 15.0490489,47.7564439 10.347975,47.7564439 C5.64690102,47.7564439 2.51942633,48.8830344 0.96555091,51.1362154 C4.13235081,52.6552041 7.50183466,53.4146984 11.0740025,53.4146984 C14.6461703,53.4146984 18.3640043,52.6552041 22.2275045,51.1362154 Z" id="Path-15" fill="#FFA3E3"></path>
                <path d="M21.3997834,33.5883575 C21.4686948,30.9421791 22.413566,28.332979 24.2343969,25.7607572 C26.0552279,23.1885354 28.5707191,21.8368739 31.7808705,21.7057728 C30.6149046,25.0976384 29.2149802,27.5895394 27.5810974,29.1814759 C25.9472145,30.7734123 23.8867766,32.2423729 21.3997834,33.5883575 Z" id="Path-16" fill="#FFA3E3"></path>
                <path d="M18.8343248,34.1581216 C16.4959277,32.0855079 13.8993435,30.7276397 11.044572,30.0845168 C8.18980058,29.441394 5.60321687,30.1203281 3.2848209,32.1213192 C5.8211134,34.3791951 8.40769711,35.508133 11.044572,35.508133 C13.6814469,35.508133 16.2780312,35.0581292 18.8343248,34.1581216 Z" id="Path-17" fill="#FFA3E3"></path>
                <path d="M14.1215242,16.1737366 C14.5652683,14.3071722 15.1945128,12.6731632 16.0092578,11.2717096 C16.8240028,9.87025605 18.5093089,8.96835176 21.0651763,8.56599674 C21.1678781,11.1245003 20.5027206,12.9729959 19.0697037,14.1114835 C17.6366868,15.2499712 15.9872937,15.9373889 14.1215242,16.1737366 Z" id="Path-18" fill="#FFA3E3"></path>
                <path d="M12.358022,17.1063259 C9.76171293,17.0903397 7.59462989,17.3562931 5.85677285,17.9041863 C4.11891581,18.4520795 2.8256365,19.6307039 1.97693492,21.4400595 C3.7540011,21.4400595 5.6717223,21.4400595 7.73009851,21.4400595 C9.78847473,21.4400595 11.3311159,19.9954816 12.358022,17.1063259 Z" id="Path-19" fill="#FFA3E3"></path>
                <path d="M8.74217277,8.76752475 C8.29839265,5.95503393 7.38897016,3.87661551 6.01390532,2.5322695 C4.63884047,1.18792349 2.63420536,0.34383366 0,0 C0.314162717,2.4932612 1.46010196,4.50440781 3.43781772,6.03343984 C5.41553348,7.56247186 7.18365183,8.4738335 8.74217277,8.76752475 Z" id="Path-26" fill="#FFA3E3"></path>
            </g>
            <path d="M149.094937,308.081937 L136.730221,296.881924 C134.026706,294.433069 130.509273,293.076847 126.861551,293.076847 L109.632733,293.076847 C106.815557,293.076847 104.179031,294.464045 102.583439,296.785805 L102.583439,296.785805 C101.400881,298.506557 99.0472831,298.942848 97.3265315,297.76029 C97.1463081,297.636435 96.977171,297.497175 96.8210228,297.344079 L86.3509739,287.078684 C83.6029961,284.38442 79.9080291,282.875233 76.0595955,282.875233 L51.2291695,282.875233 C47.1802001,282.875233 43.3105151,284.545303 40.5330361,287.491447 L21.1213379,308.081937 L149.094937,308.081937 Z" id="Path-30" fill="#D38BF7"></path>
            <path d="M268.065972,31.8310372 L280.199564,31.8310372 C284.031536,18.5457896 291.434997,11.9031657 302.409946,11.9031657 C313.384895,11.9031657 320.745268,16.8526825 324.491066,26.7517161 C331.615183,24.8046564 337.068436,25.1500163 340.850826,27.7877956 C344.633216,30.425575 346.353627,34.2331192 346.012058,39.2104283 L361.819444,39.2104283" id="Path-49" stroke="#FF9FE5" stroke-width="0.700000048" stroke-linecap="round"></path>
            <g id="Group-5" transform="translate(256.000000, 110.000000)">
                <path d="M3.67152797,0.629422719 L110.015972,0.629422719 C111.562369,0.629422719 112.815972,1.8830255 112.815972,3.42942291 L112.815972,32.8387335 C112.815972,34.3851309 111.562369,35.6387337 110.015972,35.6387337 L98.8229167,35.6387337 L98.8229167,42.6405959 L91.8263889,35.6387337 L3.67152797,35.6387337 C2.12513056,35.6387337 0.871527778,34.3851309 0.871527778,32.8387335 L0.871527778,3.42942291 C0.871527778,1.8830255 2.12513056,0.629422719 3.67152797,0.629422719 Z" id="Rectangle-8" stroke="#8C3CF6" stroke-width="0.700000048" fill="#FFFFFF" stroke-linecap="round" stroke-linejoin="round"></path>
                <rect id="Rectangle-10" fill="#FFA3E3" x="14.8645833" y="12.5325885" width="83.9583333" height="2.80074488"></rect>
                <rect id="Rectangle-10-Copy" fill="#FFA3E3" x="14.8645833" y="20.9348231" width="34.9826389" height="2.80074488"></rect>
            </g>
            <g id="question" transform="translate(218.390625, 75.620112)">
                <path d="M2.80000019,0 L39.1791665,-1.33226763e-15 C40.7255639,-1.61633622e-15 41.9791667,1.25360279 41.9791667,2.80000019 L41.9791667,25.2074486 C41.9791667,26.753846 40.7255639,28.0074488 39.1791665,28.0074488 L20.9895833,28.0074488 L13.9930556,35.009311 L13.9930556,28.0074488 L2.80000019,28.0074488 C1.25360279,28.0074488 -2.54710147e-16,26.753846 -4.4408921e-16,25.2074486 L0,2.80000019 C-1.89379063e-16,1.25360279 1.25360279,2.84068595e-16 2.80000019,0 Z" id="Rectangle-27" stroke="#FFA3E3" stroke-width="0.700000048" fill="#FFFFFF" fill-rule="nonzero" stroke-linecap="round" stroke-linejoin="round"></path>
                <path d="M19.043674,16.5200186 L19.043674,15.7104283 C19.043674,15.0102386 19.1930776,14.4012285 19.4918891,13.8833799 C19.7907006,13.3655312 20.3372989,12.8148695 21.1317003,12.231378 C21.8969494,11.6843548 22.4016418,11.2394493 22.6457926,10.896648 C22.8899435,10.5538468 23.0120171,10.1709363 23.0120171,9.74790503 C23.0120171,9.27381824 22.8371057,8.91278833 22.4872776,8.66480447 C22.1374494,8.41682061 21.649155,8.29283054 21.0223796,8.29283054 C19.9291666,8.29283054 18.6829226,8.65021368 17.28361,9.36499069 L16.0920139,6.96904097 C17.7172571,6.0573356 19.4408636,5.60148976 21.2628852,5.60148976 C22.764231,5.60148976 23.9576372,5.96251967 24.8431396,6.68459032 C25.7286421,7.40666097 26.1713867,8.36940739 26.1713867,9.57285847 C26.1713867,10.3751592 25.9891873,11.0680449 25.624783,11.6515363 C25.2603787,12.2350277 24.5680209,12.8914458 23.5476888,13.6208101 C22.8480325,14.1386587 22.4052879,14.5325095 22.2194417,14.8023743 C22.0335955,15.0722391 21.9406738,15.4259755 21.9406738,15.863594 L21.9406738,16.5200186 L19.043674,16.5200186 Z M18.6938477,20.2616387 C18.6938477,19.6489727 18.8578271,19.1858333 19.185791,18.8722067 C19.5137549,18.5585801 19.9911174,18.4017691 20.6178928,18.4017691 C21.222804,18.4017691 21.6910565,18.5622268 22.0226644,18.8831471 C22.3542723,19.2040674 22.5200738,19.66356 22.5200738,20.2616387 C22.5200738,20.8378365 22.3524503,21.291859 22.0171984,21.6237197 C21.6819464,21.9555805 21.2155159,22.1215084 20.6178928,22.1215084 C20.0056936,22.1215084 19.5319751,21.9592273 19.1967231,21.6346601 C18.8614711,21.310093 18.6938477,20.8524238 18.6938477,20.2616387 Z" id="?" fill="#8C3CF6"></path>
            </g>
        </g>
    </g>
</svg>