<?xml version="1.0" encoding="UTF-8"?>
<svg width="171px" height="31px" viewBox="0 0 171 31" version="1.1" xmlns="http://www.w3.org/2000/svg" xmlns:xlink="http://www.w3.org/1999/xlink">
    <!-- Generator: Sketch 52.3 (67297) - http://www.bohemiancoding.com/sketch -->
    <title>logo-name</title>
    <desc>Created with Sketch.</desc>
    <g id="Symbols" stroke="none" stroke-width="1" fill="none" fill-rule="evenodd">
        <g id="FOOTER" transform="translate(-100.000000, -60.000000)">
            <g id="logo-name">
                <g transform="translate(100.000000, 60.000000)">
                    <g id="blocks">
                        <g id="Group" transform="translate(1.000000, 1.000000)" fill="#FF99DF">
                            <polygon id="Shape" points="21.9994301 5.46625514 12.9714508 9.97654321 11.0564249 10.9246914 9.15051813 9.97654321 0.113419689 5.46625514 11.0564249 0.0012345679"></polygon>
                            <polygon id="Shape" points="21.9994301 5.46625514 21.9994301 14.4868313 11.0564249 19.9518519 11.0564249 10.9246914 12.9714508 9.97654321"></polygon>
                            <polygon id="Shape" points="11.0564249 10.9246914 11.0564249 19.9518519 0.113419689 14.6382716 0.113419689 5.46625514 9.15051813 9.97654321"></polygon>
                        </g>
                        <path d="M25.948,6.3644908 C25.8839286,6.21982677 25.8505,6.15589044 25.8077857,6.09389157 C25.7873571,6.0648296 25.7650714,6.03770509 25.7427857,6.00993477 C25.6954286,5.95310247 25.6425,5.9001451 25.584,5.8491252 C25.5561429,5.82458398 25.5292143,5.80004276 25.4985714,5.777439 C25.4187143,5.7173776 25.3314286,5.66377441 25.2367143,5.61533779 C25.2274286,5.61060177 21.5020387,3.81543311 14.0605446,0.229831811 C13.4244732,-0.0762876079 12.5831875,-0.0769334294 11.9471161,0.229831811 L0.801357143,5.5914424 C0.667642857,5.66377441 0.581285714,5.7173776 0.501428571,5.77679318 C0.469857143,5.80004276 0.442928571,5.8252298 0.415071429,5.84977102 C0.356571429,5.9001451 0.304571429,5.95310247 0.257214286,6.00928894 C0.234,6.03770509 0.210785714,6.0648296 0.190357143,6.09453739 C0.147642857,6.15524462 0.114214286,6.21918095 0.0863571429,6.28505475 C0.0204285714,6.45813493 0,6.55436234 0,6.65381886 L0,15.5009284 L0,15.6468841 L0,24.4991602 C0,24.9292773 0.308285714,25.3309784 0.820857143,25.571224 L11.9590714,30.7784832 C12.0955714,30.8430654 12.2487857,30.8895645 12.4085,30.9270222 C12.4456429,30.9354178 12.4809286,30.9438135 12.519,30.9509176 C12.6731429,30.9799795 12.8328571,31 13,31 C13.1708571,31 13.3333571,30.9786879 13.4912143,30.9483343 C13.5283571,30.9412302 13.5636429,30.9334804 13.5998571,30.9250847 C13.7595714,30.8869812 13.9127857,30.8385446 14.0492857,30.7733166 C14.0511429,30.7724555 17.7679048,28.9846062 25.1995714,25.4097686 C25.701,25.1682313 26,24.7716969 26,24.3473921 L26,15.5009284 C26,15.4987757 25.9996905,12.5497391 25.9990714,6.65381886 C25.9990714,6.55436234 25.9786429,6.45813493 25.948,6.3644908 Z M3.71335714,9.11762811 L9.99978571,12.140073 C10.0007143,12.1407188 10.0016429,12.1413646 10.0025714,12.1413646 L11.1456429,12.6883755 L11.1456429,18.437479 L10.2291429,18.0086535 L3.71335714,14.9597299 L3.71335714,9.11762811 Z M11.1428571,27.2845886 L3.71428571,23.812006 L3.71428571,18.0738815 L11.1428571,21.5496931 L11.1428571,27.2845886 Z M13.897,10.0153201 L13.0037143,10.4422081 L12.1095,10.0133826 C12.1085714,10.0127368 12.1076429,10.0127368 12.1067143,10.012091 L5.12292857,6.65317304 L13.0027857,2.86284631 L20.878,6.65381886 L13.897,10.0153201 Z M22.2847857,9.11956557 L22.2847857,14.8241074 L14.8608571,18.3980839 L14.8608571,12.6896672 L16.0057857,12.1426563 C16.0067143,12.1426563 16.0067143,12.1420105 16.0076429,12.1413646 C16.0085714,12.1407188 16.0095,12.1407188 16.0113571,12.140073 L22.2847857,9.11956557 Z M22.2857143,23.6712169 L14.8571429,27.2451935 L14.8571429,21.5412974 L22.2857143,17.9653835 L22.2857143,23.6712169 Z" id="Shape" fill="#373A4C" fill-rule="nonzero"></path>
                    </g>
                    <g id="Group" transform="translate(146.000000, 2.000000)">
                        <rect id="Rectangle" fill="#B079F8" fill-rule="nonzero" x="0" y="0" width="25" height="14" rx="4"></rect>
                        <path d="M3.75390625,4.2890625 L5.44921875,4.2890625 C6.23568102,4.2890625 6.80403471,4.40364469 7.15429688,4.6328125 C7.50455904,4.86198031 7.6796875,5.22395586 7.6796875,5.71875 C7.6796875,6.052085 7.59375086,6.32942598 7.421875,6.55078125 C7.24999914,6.77213652 7.00260578,6.91145805 6.6796875,6.96875 L6.6796875,7.0078125 C7.08073117,7.08333371 7.3756501,7.23242076 7.56445312,7.45507812 C7.75325615,7.67773549 7.84765625,7.97916477 7.84765625,8.359375 C7.84765625,8.8723984 7.66862158,9.27408709 7.31054688,9.56445312 C6.95247217,9.85481916 6.45443027,10 5.81640625,10 L3.75390625,10 L3.75390625,4.2890625 Z M4.6875,6.6484375 L5.5859375,6.6484375 C5.97656445,6.6484375 6.26171785,6.58658916 6.44140625,6.46289062 C6.62109465,6.33919209 6.7109375,6.12890773 6.7109375,5.83203125 C6.7109375,5.56380074 6.61393326,5.36979227 6.41992188,5.25 C6.22591049,5.13020773 5.91797086,5.0703125 5.49609375,5.0703125 L4.6875,5.0703125 L4.6875,6.6484375 Z M4.6875,7.40625 L4.6875,9.21484375 L5.6796875,9.21484375 C6.07031445,9.21484375 6.36523338,9.13997471 6.56445312,8.99023438 C6.76367287,8.84049404 6.86328125,8.60416828 6.86328125,8.28125 C6.86328125,7.98437352 6.76171977,7.76432363 6.55859375,7.62109375 C6.35546773,7.47786387 6.04687707,7.40625 5.6328125,7.40625 L4.6875,7.40625 Z M12.265625,10 L9.03515625,10 L9.03515625,4.2890625 L12.265625,4.2890625 L12.265625,5.078125 L9.96875,5.078125 L9.96875,6.6328125 L12.1210938,6.6328125 L12.1210938,7.4140625 L9.96875,7.4140625 L9.96875,9.20703125 L12.265625,9.20703125 L12.265625,10 Z M15.4726562,10 L14.5390625,10 L14.5390625,5.08984375 L12.859375,5.08984375 L12.859375,4.2890625 L17.1523438,4.2890625 L17.1523438,5.08984375 L15.4726562,5.08984375 L15.4726562,10 Z M21.0117188,10 L20.4414062,8.4140625 L18.2578125,8.4140625 L17.6992188,10 L16.7148438,10 L18.8515625,4.265625 L19.8671875,4.265625 L22.0039062,10 L21.0117188,10 Z M20.1953125,7.609375 L19.6601562,6.0546875 C19.6210936,5.95052031 19.5670576,5.78645945 19.4980469,5.5625 C19.4290361,5.33854055 19.3815105,5.17447969 19.3554688,5.0703125 C19.2851559,5.3906266 19.1822923,5.74088352 19.046875,6.12109375 L18.53125,7.609375 L20.1953125,7.609375 Z" id="BETA" stroke="#FFFFFF" stroke-width="0.1" fill="#FFFFFF"></path>
                    </g>
                    <path d="M48.691,21.032851 L48.691,22.33 L48.541,22.48 L46,22.48 L45.85,22.33 L45.85,7 L46,6.85 L48.541,6.85 L48.691,7 L48.691,12.643969 C49.656229,11.4581186 50.8623,10.861 52.3,10.861 C53.7408068,10.861 54.9902486,11.3990544 56.0401391,12.470518 C57.0912629,13.5432403 57.616,14.9916584 57.616,16.807 C57.616,18.5944764 57.0911218,20.0289037 56.0401391,21.101482 C54.9902486,22.1729456 53.7408068,22.711 52.3,22.711 C50.8629972,22.711 49.6569446,22.1494041 48.691,21.032851 Z M51.712,20.206 C52.5662013,20.206 53.2787958,19.894447 53.8594143,19.2671122 C54.4413368,18.6383683 54.733,17.8069605 54.733,16.765 C54.733,15.7515869 54.438299,14.9344615 53.8494968,14.3055136 C53.261682,13.6776206 52.5522479,13.366 51.712,13.366 C50.8717496,13.366 50.1514207,13.6846709 49.5423631,14.3271931 C48.9327531,14.9702982 48.628,15.7941363 48.628,16.807 C48.628,17.8055293 48.9324932,18.6186265 49.541822,19.254739 C50.1508693,19.8905576 50.8714061,20.206 51.712,20.206 Z M66.2160002,22.732 C64.4968471,22.732 63.0585488,22.1566807 61.9099342,21.008066 C60.761668,19.8597999 60.1860002,18.4566095 60.1860002,16.807 C60.1860002,15.1571268 60.7688699,13.750324 61.931263,12.5951061 C63.0937723,11.4397729 64.538907,10.861 66.2580002,10.861 C67.9770271,10.861 69.4186748,11.436221 70.5742353,12.5846041 C71.7297498,13.7329415 72.3090002,15.1432903 72.3090002,16.807 C72.3090002,18.4429709 71.7260607,19.8427453 70.5637373,20.9978939 C69.4011593,22.1532955 67.9490064,22.732 66.2160002,22.732 Z M66.2580002,20.227 C67.2244564,20.227 67.9955953,19.9012603 68.5823929,19.2477812 C69.1730412,18.5900138 69.4680002,17.7788765 69.4680002,16.807 C69.4680002,15.8503695 69.1599735,15.0434736 68.5421207,14.3786102 C67.9267867,13.7164573 67.1547251,13.387 66.2160002,13.387 C65.2636989,13.387 64.4995273,13.7126035 63.9126075,14.3662188 C63.3219592,15.0239862 63.0270002,15.8351235 63.0270002,16.807 C63.0270002,17.7496895 63.3350732,18.5533582 63.9533898,19.2254415 C64.5688635,19.8944347 65.3337638,20.227 66.2580002,20.227 Z M77.8050293,16.7017172 L73.7703481,11.092 L76.8350004,11.092 L76.9578188,11.1558859 L79.3970004,14.6347187 L81.8361819,11.1558859 L81.9590004,11.092 L84.9626501,11.092 L80.9261494,16.6394903 L85.1287302,22.48 L82.0640004,22.48 L81.9412716,22.4162418 L79.3344748,18.7065695 L76.7480412,22.415796 L76.6250004,22.48 L73.6222425,22.48 L77.8050293,16.7017172 Z M91.3180005,22.69 C89.5479918,22.69 87.9473079,22.1254731 86.5210157,20.9987023 L86.4887249,20.7985014 L87.6227249,19.0765014 L87.8384452,19.0393348 C89.0177317,19.930656 90.1977089,20.374 91.3810005,20.374 C91.8979851,20.374 92.2913634,20.2732171 92.5637803,20.0768235 C92.8250216,19.8884868 92.9530005,19.6295527 92.9530005,19.285 C92.9530005,19.1196067 92.9098558,18.9786671 92.8234405,18.8576857 C92.7355137,18.7345882 92.5696904,18.6125673 92.3247876,18.4965607 C92.0647814,18.3733999 91.8471392,18.2849827 91.6728877,18.2313669 C91.4913084,18.1754963 91.1905864,18.0845804 90.7665664,17.9573025 L90.5837924,17.8962286 C90.1877997,17.7830878 89.8511932,17.6732478 89.5736537,17.5665018 C89.2941693,17.4590078 88.9839233,17.3128 88.6425581,17.1278938 C88.2938004,16.9389834 88.0085506,16.7305316 87.7872102,16.5018132 C87.5634822,16.2706276 87.3784476,15.978273 87.231539,15.6256923 C87.0836226,15.270693 87.0100005,14.8731337 87.0100005,14.434 C87.0100005,13.3678013 87.4040318,12.5060881 88.1882204,11.861148 C88.9652976,11.2220564 89.9405951,10.903 91.1080005,10.903 C92.5798165,10.903 93.9664155,11.331845 95.2645693,12.1877706 L95.3129802,12.3861049 L94.3049802,14.1921049 L94.0959094,14.2470694 C92.9696901,13.5603503 91.9524662,13.219 91.0450005,13.219 C90.5856125,13.219 90.235888,13.3152544 89.9919572,13.5028936 C89.7560436,13.6843656 89.6410005,13.9203513 89.6410005,14.224 C89.6410005,14.4123485 89.7403983,14.5884244 89.9522048,14.7578697 C90.1852422,14.9442996 90.4164701,15.0797331 90.6457285,15.1648862 C90.8887619,15.2551557 91.2829189,15.3911923 91.8470826,15.5808359 C91.8681075,15.5913484 91.8967083,15.6027887 91.9324347,15.6146975 C91.9603857,15.6240145 91.9803132,15.628 92.0349745,15.6349009 C92.5297808,15.7904115 92.9477054,15.9427061 93.2891234,16.0920764 C93.6340361,16.2429757 93.9954969,16.4469685 94.373783,16.7039175 C94.764733,16.9694685 95.0649656,17.2993536 95.2726295,17.6924318 C95.4805333,18.0859639 95.5840005,18.5404808 95.5840005,19.054 C95.5840005,20.2184631 95.1792926,21.1235372 94.3713888,21.7551711 C93.5733757,22.3790723 92.5538219,22.69 91.3180005,22.69 Z M102.48968,18.3330376 L104.797196,11.1540986 L104.940001,11.05 L107.103001,11.05 L107.24569,11.1537435 L109.575057,18.3392467 L111.705261,11.1991164 L111.849001,11.092 L114.596511,11.092 L110.899648,22.4603872 L110.757001,22.564 L108.489001,22.564 L108.346424,22.460604 L106.010399,15.3139518 L103.65446,22.4609604 L103.512001,22.564 L101.244001,22.564 L101.101196,22.4599014 L97.4472281,11.092 L100.257001,11.092 L100.400956,11.1998473 L102.48968,18.3330376 Z M123.746001,21.3523747 C122.85379,22.2573873 121.703794,22.711 120.305001,22.711 C119.166069,22.711 118.198462,22.3957124 117.407928,21.7647352 C116.608039,21.1262921 116.207001,20.2322338 116.207001,19.096 C116.207001,17.8604852 116.640644,16.9123502 117.506327,16.2667559 C118.360301,15.629894 119.476632,15.313 120.851001,15.313 C121.871863,15.313 122.844,15.4493028 123.767001,15.7220274 L123.767001,15.715 C123.767001,14.9861628 123.54918,14.4399842 123.115326,14.0644092 C122.676589,13.684607 122.035672,13.492 121.187001,13.492 C120.199798,13.492 119.162245,13.71875 118.073818,14.1734096 L117.873994,14.0833117 L117.180994,12.0463117 L117.261562,11.8611596 C118.652685,11.2365741 120.08058,10.924 121.544001,10.924 C123.190629,10.924 124.443038,11.3426728 125.293111,12.1854797 C126.142842,13.0279484 126.566001,14.2214734 126.566001,15.757 L126.566001,22.33 L126.416001,22.48 L123.896001,22.48 L123.746001,22.33 L123.746001,21.3523747 Z M123.809001,17.7925985 C123.095274,17.5297147 122.298512,17.398 121.418001,17.398 C120.647982,17.398 120.054036,17.5448182 119.63398,17.8336063 C119.227046,18.1133733 119.027001,18.5009615 119.027001,19.012 C119.027001,19.4679806 119.206996,19.8217633 119.573977,20.0875087 C119.952842,20.3618586 120.433047,20.5 121.019001,20.5 C121.841004,20.5 122.511824,20.2930805 123.036894,19.8810004 C123.553919,19.4752337 123.809001,18.9586122 123.809001,18.319 L123.809001,17.7925957 Z M133.006001,12.643969 C133.97123,11.4581186 135.177301,10.861 136.615001,10.861 C138.055808,10.861 139.30525,11.3990544 140.35514,12.470518 C141.406264,13.5432403 141.931001,14.9916584 141.931001,16.807 C141.931001,18.5944764 141.406123,20.0289037 140.35514,21.101482 C139.30525,22.1729456 138.055808,22.711 136.615001,22.711 C135.177998,22.711 133.971946,22.1494041 133.006001,21.032851 L133.006001,25.69 L132.856001,25.84 L130.315001,25.84 L130.165001,25.69 L130.165001,11.242 L130.315001,11.092 L132.856001,11.092 L133.006001,11.242 L133.006001,12.643969 Z M136.027001,20.206 C136.881202,20.206 137.593797,19.894447 138.174415,19.2671122 C138.756338,18.6383683 139.048001,17.8069605 139.048001,16.765 C139.048001,15.7515869 138.7533,14.9344615 138.164498,14.3055136 C137.576683,13.6776206 136.867249,13.366 136.027001,13.366 C135.186751,13.366 134.466422,13.6846709 133.857364,14.3271931 C133.247754,14.9702982 132.943001,15.7941363 132.943001,16.807 C132.943001,17.8055293 133.247494,18.6186265 133.856823,19.254739 C134.46587,19.8905576 135.186407,20.206 136.027001,20.206 Z" id="boxswap" stroke="#373A4C" stroke-width="0.3" fill="#373A4C"></path>
                </g>
            </g>
        </g>
    </g>
</svg>