<svg xmlns="http://www.w3.org/2000/svg" viewBox="0 0 100 100"><title>Fill 24</title><path fill="#FFF" d="M0 0h5v30H0z"/><path fill="#FFF" d="M-.1 0h30v5h-30zM70 0h30v5H70z"/><path fill="#FFF" d="M95 0h5v30h-5zm0 70h5v30h-5z"/><path fill="#FFF" d="M70 95h30v5H70zM-.1 95h30v5h-30z"/><path fill="#FFF" d="M0 70h5v30H0zm14-56v36h36V14H14zm30 30H20V20h23.9l.1 24zm5.9 6v36h36V50h-36zM80 80H56V56h23.9l.1 24zM57.2 14h7.2v7.2h-7.2zm7.2 0h7.2v7.2h-7.2zm0 7.2h7.2v7.2h-7.2zm-7.2 7.2h7.2v7.2h-7.2zm0 7.2h7.2v7.2h-7.2zm14.4 0h7.2v7.2h-7.2zm0-7.2h7.2v7.2h-7.2zM78.8 14H86v7.2h-7.2zm0 21.6H86v7.2h-7.2zM35.6 64.4h7.2v7.2h-7.2zm-7.2 0h7.2v7.2h-7.2zm0-7.2h7.2v7.2h-7.2zm-14.4 0h7.2v7.2H14zm0 7.2h7.2v7.2H14zm7.2 7.2h7.2v7.2h-7.2z"/><path fill="#FFF" d="M35.6 71.6h7.2v7.2h-7.2zm-7.2 7.2h7.2V86h-7.2zm-14.4 0h7.2V86H14zM26 26h12v12H26zm36 36h12v12H62z"/></svg>